<svg id="Layer_1" xmlns="http://www.w3.org/2000/svg" viewBox="0 0 72 96"><style>.st0{fill:#999}</style><path class="st0" d="M0 2v92c0 1.1.9 2 2 2h68c1.1 0 2-.9 2-2V28H50c-1.1 0-2-.9-2-2V0H2C.9 0 0 .9 0 2z"/><path class="st0" d="M71.9 24c-.1-.4-.2-.7-.4-1L52 1.2V24h19.9z"/><path d="M6 41h60v49H6V41zm5.4-34.7c1 0 2.2.4 2.9 1.2l-.9 2.1c-.4-.5-1.3-1-2-1-2.1 0-3.2 2.2-3.2 4.9 0 2.8 1.2 5.2 3.2 5.2.9 0 1.6-.5 2.2-1l.9 2.1c-.8.7-1.8 1.3-3.2 1.3-3.3 0-5.2-3.2-5.2-7.4 0-4.4 1.9-7.4 5.3-7.4zm4.7 11.2c.5.7 1.3 1.2 2.1 1.2.9 0 1.5-.7 1.5-1.8 0-2.6-4.2-2.5-4.2-6.6 0-2.3 1.3-4 3.6-4 .9 0 1.9.3 2.7.9l-.7 2.2c-.4-.4-1.3-.8-1.9-.8-1 0-1.5.8-1.5 1.7 0 2.6 4.3 2.4 4.3 6.5 0 2.2-1.2 4.1-3.5 4.1-1.1 0-2.3-.5-3.1-1.4l.7-2zM27.7 6.3c3 0 4.9 3 4.9 7.3S30.7 21 27.7 21c-3 0-4.9-3.1-4.9-7.4.1-4.3 1.9-7.3 4.9-7.3zm0 12.3c1.7 0 2.7-2 2.7-5.1 0-3-1-4.9-2.7-4.9-1.7 0-2.7 1.9-2.7 4.9 0 3.1 1 5.1 2.7 5.1zm6.5-12.1h2.2l3.1 8c.3.9.6 2.2.6 2.2h.1s-.1-1.3-.1-2.2v-8H42v14.2h-2.2l-3.1-8.1c-.3-.9-.6-2.2-.6-2.2H36s.1 1.3.1 2.2v8h-2V6.5z" fill="#fff"/><path class="st0" d="M31.2 53.3c4.2-.4 5.4-3 10.2-3.5 2.4-.2 3.9.3 4.1 1.1.1.8-1 1.3-2.5 1.4-2 .2-2.9-.5-3-1.2-1.5.1-1.7.8-1.6 1.2.1.9 2 1.7 5 1.4 3.5-.3 4.6-1.6 4.4-3-.4-1.8-3-3.3-7.9-2.9-6.2.6-6.1 3.4-10.3 3.7-1.7.1-2.7-.2-2.9-.9-.1-.7.7-1 1.7-1.1.9-.1 2 .1 2.6.4.4-.2.5-.4.5-.6-.1-.6-1.4-.9-3-.8-3.1.3-3.1 1.7-3 2.3.3 1.7 2.7 2.8 5.7 2.5zm20.9 7c-3.9.9-8.8 1.5-14.7 1.5-6 0-11-.6-14.8-1.5-3.4-.9-5.3-1.9-5.9-2.9.3 2.2.9 4.4 1.6 6.5-.9.5-1.7 1.2-2.4 2.1-1.4 1.7-2 3.7-1.9 5.7s1.1 3.6 2.6 4.8c1.6 1.2 3.3 1.6 5.3 1.2.7-.1 1.6-.5 2.4-.7-1.6 0-3-.5-4.3-1.6-1.5-1.1-2.5-2.6-2.7-4.4-.4-1.7 0-3.3 1-4.7.2-.3.4-.5.7-.7.5 1.4 1.2 2.6 1.9 3.9 1.5 2.2 3 4.2 4.4 6.3.6 1.2 1.1 2.5 1.4 3.7 1 1.4 2.4 2.3 4.1 2.8 2.1.7 4.3 1 6.6 1h.2c2.2 0 4.6-.4 6.8-1.1 1.6-.5 3-1.4 4-2.9h.1c.2-1.1.6-2.4 1.2-3.7 1.5-2.1 3-4.1 4.4-6.3 2-3.6 3.3-7.6 4.1-12-.9 1.3-2.8 2.3-6.1 3zm-29.6-3.1c3.9 1 8.8 1.5 14.7 1.5 6 0 10.9-.5 14.7-1.5 4.1-1 6-2.2 6-3.4 0-.9-.9-1.7-2.5-2.4.4.2.6.6.6 1.1 0 1.2-1.9 2.2-5.6 3.1-3.4.7-7.9 1.3-13.2 1.3-5.2 0-9.8-.5-13.1-1.2-3.6-.9-5.5-1.9-5.5-3.1 0-.5.2-1 1-1.5-2.2.9-3.4 1.6-3.4 2.7.2 1.3 2.2 2.5 6.3 3.4z"/></svg>