<svg id="Layer_1" xmlns="http://www.w3.org/2000/svg" viewBox="0 0 72 96"><style>.st0{fill:#999}</style><path class="st0" d="M0 2v92c0 1.1.9 2 2 2h68c1.1 0 2-.9 2-2V28H50c-1.1 0-2-.9-2-2V0H2C.9 0 0 .9 0 2z"/><path class="st0" d="M71.9 24c-.1-.4-.2-.7-.4-1L52 1.2V24h19.9z"/><path d="M6 41h60v49H6zm3-27.4L5.5 6.4h3.6l1.1 2.9.6 1.8s.2-.9.6-1.8l1.2-2.9h3.6l-3.4 7.2 3.3 7.1h-3.5l-1.1-3c-.4-.9-.6-1.7-.6-1.7s-.2.8-.6 1.7l-1.1 3H5.7L9 13.6zm10.5 3.1c.6.6 1.4 1.2 2.3 1.2.9 0 1.3-.6 1.3-1.2 0-2-4.8-2.1-4.8-6.2 0-2.4 1.7-4.3 4.5-4.3 1.2 0 2.4.3 3.4 1L25 10.1c-.5-.4-1.4-.9-2.2-.9-.9 0-1.3.6-1.3 1.2 0 2.1 4.8 2 4.8 6.1 0 2.3-1.5 4.4-4.4 4.4-1.4 0-2.9-.5-4-1.4l1.6-2.8zm10-10.3h4.2c3.7 0 5.9 2.6 5.9 7.1s-2.2 7.2-5.9 7.2h-4.2V6.4zm4.1 11.4c1.7 0 2.6-1.5 2.6-4.3s-1-4.2-2.6-4.2h-.8v8.5h.8z" fill="#fff"/><path d="M29.8 58.2h3.1v2.1h-1.1c-.3 0-.6.3-.6.6s.3.6.6.6h8.6c.3 0 .6-.3.6-.6s-.3-.6-.6-.6h-1.1v-2.1h3.1c1.2 0 2.2-1 2.2-2.2v-7.3c0-1.2-1-2.2-2.2-2.2H29.8c-1.2 0-2.2 1-2.2 2.2V56c0 1.2 1 2.2 2.2 2.2zm8.1 2.1h-3.8v-2.1h3.8v2.1zm-9-11.6c0-.5.4-1 1-1h12.4c.5 0 1 .4 1 1V56c0 .5-.4 1-1 1H29.8c-.5 0-1-.4-1-1v-7.3zm2.7 20.8H19.2c-1.2 0-2.2 1-2.2 2.2V79c0 1.2 1 2.2 2.2 2.2h3.1v2.1h-1.1c-.3 0-.6.3-.6.6s.3.6.6.6h8.6c.3 0 .6-.3.6-.6s-.3-.6-.6-.6h-1.1v-2.1h3.1c1.2 0 2.2-1 2.2-2.2v-7.3c-.3-1.2-1.2-2.2-2.4-2.2zm-4.3 13.8h-3.8v-2.1h3.8v2.1zm5.2-4.3c0 .5-.4 1-1 1H19.2c-.5 0-1-.4-1-1v-7.3c0-.5.4-1 1-1h12.4c.5 0 1 .4 1 1V79zm20.3-9.5H40.4c-1.2 0-2.2 1-2.2 2.2V79c0 1.2 1 2.2 2.2 2.2h3.1v2.1h-1.1c-.3 0-.6.3-.6.6s.3.6.6.6H51c.3 0 .6-.3.6-.6s-.3-.6-.6-.6h-1.1v-2.1H53c1.2 0 2.2-1 2.2-2.2v-7.3c-.2-1.2-1.2-2.2-2.4-2.2zm-4.3 13.8h-3.8v-2.1h3.8v2.1zm5.3-4.3c0 .5-.4 1-1 1H40.4c-.5 0-1-.4-1-1v-7.3c0-.5.4-1 1-1h12.4c.5 0 1 .4 1 1V79zM46 67.7c0 .3.3.6.6.6s.6-.3.6-.6v-2.1c0-.3-.3-.6-.6-.6h-10v-1.5c0-.3-.3-.6-.6-.6s-.6.3-.6.6V65h-10c-.3 0-.6.3-.6.6v2.1c0 .3.3.6.6.6s.6-.3.6-.6v-1.5h20v1.5z" fill="#999" stroke="#999" stroke-width="1.5" stroke-miterlimit="10"/></svg>