<svg xmlns="http://www.w3.org/2000/svg" xmlns:xlink="http://www.w3.org/1999/xlink" width="216" height="22"><defs><path id="j" d="M36 0h-31a3 3 0 0 0-3 3v16a3 3 0 0 0 3 3h31z"/><path id="k" d="M36 1h-31a2 2 0 0 0-2 2v16a2 2 0 0 0 2 2h31z"/><path id="l" d="M13.5 12h5v5h2v-5h5v-2h-5v-5h-2v5h-5z"/><path id="m" d="M35 1h1v20h-1v-20z" fill="#fff" fill-opacity=".8"/><path id="a" d="M0 0h31a3 3 0 0 1 3 3v16a3 3 0 0 1-3 3h-31z"/><path id="c" d="M1 1h30a2 2 0 0 1 2 2v16a2 2 0 0 1-2 2h-30z"/><path id="e" d="M10.5 12h12v-2h-12z"/><linearGradient id="b" x1="0%" y1="0%" x2="0%" y2="100%"><stop offset="0%" stop-color="#bfbfbf"/><stop offset="15%" stop-color="#ababab"/><stop offset="85%" stop-color="#ababab"/><stop offset="100%" stop-color="#c9b6b6"/></linearGradient><linearGradient id="d" x1="0%" y1="0%" x2="0%" y2="100%"><stop offset="0%" stop-color="#fff"/><stop offset="100%" stop-color="#f0f0f0"/></linearGradient><linearGradient id="f" x1="0%" y1="0%" x2="0%" y2="100%"><stop offset="0%" stop-color="#fff"/><stop offset="100%" stop-color="#e0e0e0"/></linearGradient><linearGradient id="h" x1="0%" y1="0%" x2="0%" y2="100%"><stop offset="0%" stop-color="#f1f2f3"/><stop offset="41%" stop-color="#f1f2f3"/><stop offset="100%" stop-color="#b1d7f6"/></linearGradient><filter id="n"><feGaussianBlur in="SourceAlpha" stdDeviation=".5" result="blur"/><feOffset dy="-1" dx="1" in="blur" result="blurOffset"/><feComposite in="blurOffset" in2="SourceAlpha" operator="arithmetic" k2="-1" k3="1" result="shadowDiff"/><feFlood flood-color="#fff" flood-opacity="1" result="flood"/><feComposite in="flood" in2="shadowDiff" operator="in" result="composite"/><feComposite in="composite" in2="SourceGraphic"/></filter><filter id="g"><feGaussianBlur in="SourceAlpha" stdDeviation=".5" result="blur"/><feOffset dy="-1" dx="-1" in="blur" result="blurOffset"/><feComposite in="blurOffset" in2="SourceAlpha" operator="arithmetic" k2="-1" k3="1" result="shadowDiff"/><feFlood flood-color="#fff" flood-opacity="1" result="flood"/><feComposite in="flood" in2="shadowDiff" operator="in" result="composite"/><feComposite in="composite" in2="SourceGraphic"/></filter><filter id="i"><feGaussianBlur in="SourceAlpha" stdDeviation="1.5" result="blur"/><feOffset in="blur" result="blurOffset"/><feComposite in="blurOffset" in2="SourceAlpha" operator="arithmetic" k2="-2" k3="2" result="shadowDiff"/><feFlood flood-color="#a0d5f3" flood-opacity="1" result="flood"/><feComposite in="flood" in2="shadowDiff" operator="in" result="composite"/><feComposite in="composite" in2="SourceGraphic"/></filter></defs><use xlink:href="#a" fill="url(#b)"/><use xlink:href="#c" fill="url(#d)"/><use xlink:href="#e" fill="#ababab"/><use xlink:href="#a" x="36" fill="#ababab"/><use xlink:href="#c" x="36" fill="url(#f)" filter="url(#g)"/><use xlink:href="#e" x="36" fill="#444"/><use xlink:href="#a" x="72" fill="#597db1"/><use xlink:href="#c" x="72" fill="url(#h)" filter="url(#i)"/><use xlink:href="#e" x="72" fill="#444"/><use xlink:href="#j" x="108" fill="url(#b)"/><use xlink:href="#k" x="108" fill="url(#d)"/><use xlink:href="#l" x="108" fill="#ababab"/><use xlink:href="#m" x="108"/><use xlink:href="#j" x="144" fill="#ababab"/><use xlink:href="#k" x="144" fill="url(#f)" filter="url(#n)"/><use xlink:href="#l" x="144" fill="#444"/><use xlink:href="#m" x="144"/><use xlink:href="#j" x="180" fill="#597db1"/><use xlink:href="#k" x="180" fill="url(#h)" filter="url(#i)"/><use xlink:href="#l" x="180" fill="#444"/><use xlink:href="#m" x="180"/></svg>