<?xml version="1.0" encoding="UTF-8"?>
<svg xmlns="http://www.w3.org/2000/svg" xmlns:xlink="http://www.w3.org/1999/xlink" width="216" height="22" version="1.1">
  <defs>
    <path id="minusButtonOuterPath" fill="#2779ff" d="M 36,0 h -29 a 5,5 0 0 0 -5,5 v 12 a 5,5 0 0 0 5,5 h 29 z" />
    <path id="minusButtonInnerPath" d="M 35,2 h -28 a 3,3 0 0 0 -3,3 v 12 a 3,3 0 0 0 3,3 h 28 z" />
    <path id="minusIcon" d="M 13.5,12 h 12 v -2 h -12 z" fill="#2779ff" />

    <path id="plusButtonOuterPath" fill="#2779ff" d="M 0,0 h 29 a 5,5 0 0 1 5,5 v 12 a 5,5 0 0 1 -5,5 h -29 z" />
    <path id="plusButtonInnerPath" d="M 1,2 h 28 a 3,3 0 0 1 3,3 v 12 a 3,3 0 0 1 -3,3 h -28 z" />
    <path id="plusIcon" d="M 10.5,12 h 5 v 5 h 2 v -5 h 5 v -2 h -5 v -5 h -2 v 5 h -5 z" fill="#2779ff" />
  </defs>
  <g>
    <!-- minus_Disabled -->
    <use xlink:href="#minusButtonOuterPath" x="0" y="0" />
    <use xlink:href="#minusButtonInnerPath" x="0" y="0" style="fill: #fff;" />
    <use xlink:href="#minusIcon" x="0" y="0" style="fill-opacity: .5;" />

    <!-- minus -->
    <use xlink:href="#minusButtonOuterPath" x="36" y="0" />
    <use xlink:href="#minusButtonInnerPath" x="36" y="0" style="fill: #fff;" />
    <use xlink:href="#minusIcon" x="36" y="0" />

    <!-- minus_Focused -->
    <use xlink:href="#minusButtonOuterPath" x="72" y="0" />
    <use xlink:href="#minusButtonInnerPath" x="72" y="0" style="fill: #e4eeff;" />
    <use xlink:href="#minusIcon" x="72" y="0" />

    <!-- plus_Disabled -->
    <use xlink:href="#plusButtonOuterPath" x="108" y="0" />
    <use xlink:href="#plusButtonInnerPath" x="108" y="0" style="fill: #fff;" />
    <use xlink:href="#plusIcon" x="108" y="0" style="fill-opacity: .5;" />

    <!-- plus -->
    <use xlink:href="#plusButtonOuterPath" x="144" y="0" />
    <use xlink:href="#plusButtonInnerPath" x="144" y="0" style="fill: #fff;" />
    <use xlink:href="#plusIcon" x="144" y="0" />

    <!-- plus_Focused -->
    <use xlink:href="#plusButtonOuterPath" x="180" y="0" />
    <use xlink:href="#plusButtonInnerPath" x="180" y="0" style="fill: #e4eeff;" />
    <use xlink:href="#plusIcon" x="180" y="0" />
  </g>
</svg>
