<?xml version="1.0" encoding="UTF-8"?><svg xmlns="http://www.w3.org/2000/svg" xmlns:xlink="http://www.w3.org/1999/xlink" width="216" height="22"><defs><path id="d" fill="#2779ff" d="M36 0h-29a5 5 0 0 0-5 5v12a5 5 0 0 0 5 5h29z"/><path id="e" d="M35 2h-28a3 3 0 0 0-3 3v12a3 3 0 0 0 3 3h28z"/><path id="f" d="M13.5 12h5v5h2v-5h5v-2h-5v-5h-2v5h-5z" fill="#2779ff"/><path id="a" fill="#2779ff" d="M0 0h29a5 5 0 0 1 5 5v12a5 5 0 0 1-5 5h-29z"/><path id="b" d="M1 2h28a3 3 0 0 1 3 3v12a3 3 0 0 1-3 3h-28z"/><path id="c" d="M10.5 12h12v-2h-12z" fill="#2779ff"/></defs><use xlink:href="#a"/><use xlink:href="#b" fill="#fff"/><use xlink:href="#c" fill-opacity=".5"/><use xlink:href="#a" x="36"/><use xlink:href="#b" x="36" fill="#fff"/><use xlink:href="#c" x="36"/><use xlink:href="#a" x="72"/><use xlink:href="#b" x="72" fill="#e4eeff"/><use xlink:href="#c" x="72"/><use xlink:href="#d" x="108"/><use xlink:href="#e" x="108" fill="#fff"/><use xlink:href="#f" x="108" fill-opacity=".5"/><use xlink:href="#d" x="144"/><use xlink:href="#e" x="144" fill="#fff"/><use xlink:href="#f" x="144"/><use xlink:href="#d" x="180"/><use xlink:href="#e" x="180" fill="#e4eeff"/><use xlink:href="#f" x="180"/></svg>
