<?xml version="1.0" standalone="no"?>
<!DOCTYPE svg PUBLIC "-//W3C//DTD SVG 1.1//EN" "http://www.w3.org/Graphics/SVG/1.1/DTD/svg11.dtd" >
<svg>
<metadata>
Created by FontForge 20090914 at Tue Oct 11 15:20:19 2016
 By www-data
&#194;&#169; 2005 Microsoft Corporation. All Rights Reserved.
</metadata>
<defs>
<font id="Corbel" horiz-adv-x="1050" >
  <font-face 
    font-family="Corbel"
    font-weight="400"
    font-stretch="normal"
    units-per-em="2048"
    panose-1="2 11 5 3 2 2 4 2 2 4"
    ascent="1523"
    descent="-525"
    x-height="950"
    cap-height="1338"
    bbox="-1059 -490.003 2273 1943"
    underline-thickness="120"
    underline-position="-130"
    unicode-range="U+000D-U+FB04"
  />
<missing-glyph horiz-adv-x="948" 
d="M948 1338v-1338h-948v1338h948zM855 91v1156h-762v-1156h762zM363 224v125h122v-125h-122zM715 896c0 -23.333 -3.16895 -43.999 -9.50195 -61.999s-14.666 -34.5 -24.999 -49.5s-22.166 -28.667 -35.499 -41s-27.333 -24.166 -42 -35.499l-48 -38.5
c-16 -13 -30.333 -27 -43 -42s-23 -32 -31 -51s-12 -40.833 -12 -65.5v-11h-88c-0.666992 4.66699 -1.16699 9.66699 -1.5 15s-0.5 9.66602 -0.5 12.999c0 33.333 5 61.833 15 85.5s22.5 44.334 37.5 62.001s31.833 33.5 50.5 47.5l53 41c21.333 16.667 39.333 34.667 54 54
s22 43.666 22 72.999c0 38 -14.833 67.5 -44.5 88.5s-68.834 31.5 -117.501 31.5c-33.333 0 -65.333 -4 -96 -12s-58 -17.333 -82 -28v84c23.333 12.667 51.333 22.834 84 30.501s65.334 11.5 98.001 11.5c40.667 0 77.167 -4.83301 109.5 -14.5
s59.833 -23.334 82.5 -41.001s40 -38.834 52 -63.501s18 -52 18 -82z" />
    <glyph glyph-name="uniFB00" unicode="ff" horiz-adv-x="1237" 
d="M546 1473c23.333 0 46.502 -1.33008 69.502 -3.99707s41.833 -5.66699 56.5 -9v-131c-21.333 3.33301 -40.666 5.66602 -57.999 6.99902s-32.666 2 -45.999 2c-34 0 -64.5 -4.33301 -91.5 -13s-49.667 -22.5 -68 -41.5s-32.333 -44 -42 -75s-14.5 -68.5 -14.5 -112.5
v-146h431v149c0 66 9.16699 122.5 27.5 169.5s43.5 85.667 75.5 116s69.667 52.666 113 66.999s90 21.5 140 21.5c32 0 61.5 -1.66699 88.5 -5s46.833 -7 59.5 -11v-131c-20 4 -42 7 -66 9s-44.667 3 -62 3c-34.667 0 -65.834 -4.33301 -93.501 -13
s-50.834 -22.5 -69.501 -41.5s-33 -44 -43 -75s-15 -68.5 -15 -112.5v-146h283v-133h-283v-817h-155v817h-431v-817h-155v817h-167v133h167v149c0 66 9.16699 122.5 27.5 169.5s43.166 85.667 74.499 116s68.166 52.666 110.499 66.999s87.833 21.5 136.5 21.5z" />
    <glyph glyph-name="uniFB01" unicode="fi" horiz-adv-x="1098" 
d="M352 817v-816.999h-155v817h-167v133h167v111c0 75.333 12.5 139.166 37.5 191.499s58 94.833 99 127.5s87.833 56.334 140.5 71.001s106.667 22 162 22c20 0 40.833 -0.833008 62.5 -2.5s43 -4 64 -7s41.167 -6.5 60.5 -10.5s36.333 -8.33301 51 -13v-132
c-38 9.33301 -74.333 16.666 -109 21.999s-71.667 8 -111 8c-98 0 -172.833 -23 -224.5 -69s-77.5 -116.333 -77.5 -211v-108h586v-950h-155v817h-431z" />
    <glyph glyph-name="uniFB02" unicode="fl" horiz-adv-x="1098" 
d="M635 817l-283.001 -0.000976562v-817h-155v817h-167v133h167v111c0 74.667 12.5 138 37.5 190s58 94.5 99 127.5s88.167 57 141.5 72s108.333 22.5 165 22.5c29.333 0 58 -1.33301 86 -4s55 -6 81 -10s50.167 -8.66699 72.5 -14s41.833 -10.666 58.5 -15.999v-1429h-155
v1322c-21.333 5.33301 -42.666 9.33301 -63.999 12s-42.333 4 -63 4c-99.333 0 -174.833 -23 -226.5 -69s-77.5 -116.333 -77.5 -211v-108h283v-133z" />
    <glyph glyph-name="uniFB03" unicode="ffi" horiz-adv-x="1684" 
d="M938 817v-816.997h-155v817h-431v-817h-155v817h-167v133h167v149c0 66 9.16699 122.5 27.5 169.5s43.166 85.667 74.499 116s68.166 52.666 110.499 66.999s87.833 21.5 136.5 21.5c23.333 0 46.5 -1.33301 69.5 -4s41.833 -5.66699 56.5 -9v-131
c-21.333 3.33301 -40.666 5.66602 -57.999 6.99902s-32.666 2 -45.999 2c-34 0 -64.5 -4.33301 -91.5 -13s-49.667 -22.5 -68 -41.5s-32.333 -44 -42 -75s-14.5 -68.5 -14.5 -112.5v-146h431v111c0 75.333 12.5 139.166 37.5 191.499s58 94.833 99 127.5
s87.833 56.334 140.5 71.001s106.667 22 162 22c20 0 40.833 -0.833008 62.5 -2.5s43 -4 64 -7s41.167 -6.5 60.5 -10.5s36.333 -8.33301 51 -13v-132c-38 9.33301 -74.5 16.666 -109.5 21.999s-71.167 8 -108.5 8c-99.333 0 -174.833 -23 -226.5 -69
s-77.5 -116.333 -77.5 -211v-108h586v-950h-155v817h-431z" />
    <glyph glyph-name="uniFB04" unicode="ffl" horiz-adv-x="1684" 
d="M1221 817l-282.998 0.000976562v-817h-155v817h-431v-817h-155v817h-167v133h167v149c0 66 9.16699 122.5 27.5 169.5s43.166 85.667 74.499 116s68.166 52.666 110.499 66.999s87.833 21.5 136.5 21.5c23.333 0 46.5 -1.33301 69.5 -4s41.833 -5.66699 56.5 -9v-131
c-20.667 3.33301 -39.834 5.66602 -57.501 6.99902s-33.167 2 -46.5 2c-34 0 -64.5 -4.33301 -91.5 -13s-49.667 -22.5 -68 -41.5s-32.333 -44 -42 -75s-14.5 -68.5 -14.5 -112.5v-146h431v111c0 74.667 12.5 138 37.5 190s58 94.5 99 127.5s88.167 57 141.5 72
s108.333 22.5 165 22.5c29.333 0 58 -1.33301 86 -4s55 -6 81 -10s50.167 -8.66699 72.5 -14s41.833 -10.666 58.5 -15.999v-1429h-155v1325c-21.333 4 -42.666 7.16699 -63.999 9.5s-42.333 3.5 -63 3.5c-99.333 0 -174.833 -23 -226.5 -69s-77.5 -116.333 -77.5 -211v-108
h283v-133z" />
    <glyph glyph-name="f_b.liga" unicode="fb" horiz-adv-x="1720" 
d="M938 861h2.99902c34 36 73.667 64 119 84s97 30 155 30c27.333 0 56.333 -3 87 -9s61.167 -16.333 91.5 -31s59.5 -34 87.5 -58s52.667 -53.833 74 -89.5s38.333 -78 51 -127s19 -105.5 19 -169.5c0 -88.667 -12 -165.334 -36 -230.001s-55.667 -118.167 -95 -160.5
s-84.333 -73.833 -135 -94.5s-103 -31 -157 -31c-40.667 0 -76.5 5.16699 -107.5 15.5s-57.5 22.666 -79.5 36.999s-39.333 28.833 -52 43.5s-21.667 26.334 -27 35.001h-3l-33 -106h-117v1322c-21.333 5.33301 -42.666 9.33301 -63.999 12s-43 4 -65 4
c-98 0 -172.833 -23 -224.5 -69s-77.5 -116.333 -77.5 -211v-108h283v-133h-283v-817h-155v817h-167v133h167v111c0 74.667 12.5 138 37.5 190s58 94.5 99 127.5s88.167 57 141.5 72s108.333 22.5 165 22.5c29.333 0 58 -1.33301 86 -4s55 -6 81 -10
s50.167 -8.66699 72.5 -14s41.833 -10.666 58.5 -15.999v-568zM1463 479c0 75.333 -9.00391 136.498 -27.0039 183.498s-40.667 83.833 -68 110.5s-57.166 44.834 -89.499 54.501s-63.166 14.5 -92.499 14.5c-48 0 -93.167 -10 -135.5 -30s-79.833 -46 -112.5 -78v-497
c9.33301 -12.667 21.5 -26.5 36.5 -41.5s32.833 -29 53.5 -42s43.834 -24 69.501 -33s53.834 -13.5 84.501 -13.5c46 0 86.5 9 121.5 27s64.333 43.5 88 76.5s41.5 72.333 53.5 118s18 95.834 18 150.501z" />
    <glyph glyph-name="f_f_b.liga" unicode="ffb" horiz-adv-x="2306" 
d="M352 817l0.00195312 -816.998h-155v817h-167v133h167v149c0 66 9.16699 122.5 27.5 169.5s43.166 85.667 74.499 116s68.166 52.666 110.499 66.999s87.833 21.5 136.5 21.5c23.333 0 46.5 -1.33301 69.5 -4s41.833 -5.66699 56.5 -9v-131
c-20.667 3.33301 -39.834 5.66602 -57.501 6.99902s-33.167 2 -46.5 2c-34 0 -64.5 -4.33301 -91.5 -13s-49.667 -22.5 -68 -41.5s-32.333 -44 -42 -75s-14.5 -68.5 -14.5 -112.5v-146h431v111c0 74.667 12.5 138 37.5 190s58 94.5 99 127.5s88.167 57 141.5 72
s108.333 22.5 165 22.5c29.333 0 58 -1.33301 86 -4s55 -6 81 -10s50.167 -8.66699 72.5 -14s41.833 -10.666 58.5 -15.999v-568h3c34 36 73.667 64 119 84s97 30 155 30c26.667 0 55.5 -3 86.5 -9s61.667 -16.333 92 -31s59.5 -34 87.5 -58s52.667 -53.833 74 -89.5
s38.333 -78 51 -127s19 -105.5 19 -169.5c0 -88.667 -12 -165.334 -36 -230.001s-55.667 -118.167 -95 -160.5s-84.333 -73.833 -135 -94.5s-103 -31 -157 -31c-40.667 0 -76.5 5.16699 -107.5 15.5s-57.5 22.833 -79.5 37.5s-39.333 29.167 -52 43.5
s-21.667 25.833 -27 34.5h-3l-33 -106h-117v1322c-21.333 5.33301 -42.666 9.33301 -63.999 12s-42.333 4 -63 4c-99.333 0 -174.833 -23 -226.5 -69s-77.5 -116.333 -77.5 -211v-108h283v-133h-283v-817h-155v817h-431zM2049 479.002
c0 75.333 -9.00391 136.498 -27.0039 183.498s-40.667 83.833 -68 110.5s-57.166 44.834 -89.499 54.501s-63.166 14.5 -92.499 14.5c-48 0 -93.167 -10 -135.5 -30s-79.833 -46 -112.5 -78v-497c9.33301 -12.667 21.5 -26.5 36.5 -41.5s32.833 -29 53.5 -42
s43.834 -24 69.501 -33s53.834 -13.5 84.501 -13.5c46 0 86.5 9 121.5 27s64.333 43.5 88 76.5s41.5 72.333 53.5 118s18 95.834 18 150.501z" />
    <glyph glyph-name="f_h.liga" unicode="fh" horiz-adv-x="1713" 
d="M938 820l3.00098 -0.00195312c17.333 22 36.666 42.5 57.999 61.5s45 35.333 71 49s54 24.5 84 32.5s62.333 12 97 12c36 0 71.833 -4.66699 107.5 -14s69 -26.5 100 -51.5s56.167 -59.833 75.5 -104.5s29 -101 29 -169v-636h-155v611
c0 76.667 -14.5 134.334 -43.5 173.001s-76.5 58 -142.5 58c-54.667 0 -106.667 -14.833 -156 -44.5s-92 -70.5 -128 -122.5v-675h-155v1322c-21.333 5.33301 -42.666 9.33301 -63.999 12s-42.333 4 -63 4c-99.333 0 -174.833 -23.167 -226.5 -69.5
s-77.5 -117.5 -77.5 -213.5v-105h283v-133h-283v-817h-155v817h-167v133h167v111c0 74.667 12.5 138 37.5 190s58 94.5 99 127.5s88.167 57 141.5 72s108.333 22.5 165 22.5c29.333 0 58.333 -1.33301 87 -4s55.667 -6 81 -10s49.166 -8.66699 71.499 -14
s41.833 -10.666 58.5 -15.999v-609z" />
    <glyph glyph-name="f_f_h.liga" unicode="ffh" horiz-adv-x="2299" 
d="M1524 820h2.99707c17.333 22 36.666 42.5 57.999 61.5s45 35.333 71 49s54 24.5 84 32.5s62.333 12 97 12s70.334 -4.66699 107.001 -14s70.167 -26.5 100.5 -51.5s55.333 -59.5 75 -103.5s29.5 -100.667 29.5 -170v-636h-155v611c0 76.667 -14.5 134.334 -43.5 173.001
s-76.5 58 -142.5 58c-54.667 0 -106.667 -14.833 -156 -44.5s-92 -70.5 -128 -122.5v-675h-155v1322c-21.333 5.33301 -42.666 9.33301 -63.999 12s-43.666 4 -66.999 4c-96.667 0 -170.834 -23 -222.501 -69s-77.5 -116.333 -77.5 -211v-108h283v-133h-283v-817h-155v817
h-431v-817h-155v817h-167v133h167v149c0 66 9.16699 122.5 27.5 169.5s43.166 85.667 74.499 116s68.166 52.666 110.499 66.999s87.833 21.5 136.5 21.5c23.333 0 46.5 -1.33301 69.5 -4s41.833 -5.66699 56.5 -9v-131c-21.333 3.33301 -40.666 5.66602 -57.999 6.99902
s-32.666 2 -45.999 2c-34 0 -64.5 -4.33301 -91.5 -13s-49.667 -22.5 -68 -41.5s-32.333 -44 -42 -75s-14.5 -68.5 -14.5 -112.5v-146h431v111c0 74.667 12.5 138 37.5 190s58 94.5 99 127.5s88.167 57 141.5 72s108.333 22.5 165 22.5c29.333 0 58 -1.33301 86 -4
s54.833 -6 80.5 -10s49.834 -8.66699 72.501 -14s42.334 -10.666 59.001 -15.999v-609z" />
    <glyph glyph-name="f_j.liga" unicode="fj" horiz-adv-x="1098" 
d="M938 -212c0 -87.333 -25 -155.499 -75 -204.499s-129.333 -73.5 -238 -73.5c-27.333 0 -54.5 2.16699 -81.5 6.5s-46.833 8.83301 -59.5 13.5v132c18.667 -5.33301 38.334 -9.5 59.001 -12.5s41.667 -4.5 63 -4.5c63.333 0 108.666 13 135.999 39s41 66.667 41 122v1011
h-431v-817h-155v817h-167v133h167v111c0 75.333 12.5 139.166 37.5 191.499s58 94.833 99 127.5s87.833 56.334 140.5 71.001s106.667 22 162 22c20 0 40.833 -0.833008 62.5 -2.5s43 -4 64 -7s41.167 -6.5 60.5 -10.5s36.333 -8.33301 51 -13v-132
c-38 9.33301 -74.667 16.666 -110 21.999s-71.333 8 -108 8c-99.333 0 -174.833 -23 -226.5 -69s-77.5 -116.333 -77.5 -211v-108h586v-1162z" />
    <glyph glyph-name="f_f_j.liga" unicode="ffj" horiz-adv-x="1684" 
d="M1524 -212c0 -87.333 -24.998 -155.497 -74.998 -204.497s-129.333 -73.5 -238 -73.5c-28 0 -55.333 2.16699 -82 6.5s-46.334 8.83301 -59.001 13.5v132c20 -5.33301 39.833 -9.5 59.5 -12.5s40.5 -4.5 62.5 -4.5c63.333 0 108.666 13 135.999 39s41 66.667 41 122v1011
h-431v-817h-155v817h-431v-817h-155v817h-167v133h167v149c0 66 9.16699 122.5 27.5 169.5s43.166 85.667 74.499 116s68.166 52.666 110.499 66.999s87.833 21.5 136.5 21.5c23.333 0 46.5 -1.33301 69.5 -4s41.833 -5.66699 56.5 -9v-131
c-21.333 3.33301 -40.666 5.66602 -57.999 6.99902s-32.666 2 -45.999 2c-34 0 -64.5 -4.33301 -91.5 -13s-49.667 -22.5 -68 -41.5s-32.333 -44 -42 -75s-14.5 -68.5 -14.5 -112.5v-146h431v111c0 75.333 12.5 139.166 37.5 191.499s58 94.833 99 127.5
s87.833 56.334 140.5 71.001s106.667 22 162 22c20 0 40.833 -0.833008 62.5 -2.5s43 -4 64 -7s41.167 -6.5 60.5 -10.5s36.333 -8.33301 51 -13v-132c-38 9.33301 -75 16.666 -111 21.999s-71.667 8 -107 8c-99.333 0 -174.833 -23 -226.5 -69s-77.5 -116.333 -77.5 -211
v-108h586v-1162z" />
    <glyph glyph-name="f_k.liga" unicode="fk" horiz-adv-x="1620" 
d="M783 1322c-21.333 5.33301 -42.667 9.33203 -64 11.999s-42.333 4 -63 4c-99.333 0 -174.833 -23 -226.5 -69s-77.5 -116.333 -77.5 -211v-108h283v-133h-283v-817h-155v817h-167v133h167v111c0 74.667 12.5 138 37.5 190s58 94.5 99 127.5s88.167 57 141.5 72
s108.333 22.5 165 22.5c29.333 0 58 -1.33301 86 -4s55 -6 81 -10s50.167 -8.66699 72.5 -14s41.833 -10.666 58.5 -15.999v-903h2l448 424h202l-464 -437l463 -513h-193l-456 506h-2v-506h-155v1322z" />
    <glyph glyph-name="f_f_k.liga" unicode="ffk" horiz-adv-x="2206" 
d="M1369 1322c-21.333 5.33301 -42.667 9.33398 -64 12.001s-42.333 4 -63 4c-99.333 0 -174.833 -23 -226.5 -69s-77.5 -116.333 -77.5 -211v-108h283v-133h-283v-817h-155v817h-431v-817h-155v817h-167v133h167v149c0 66 9.16699 122.5 27.5 169.5
s43.166 85.667 74.499 116s68.166 52.666 110.499 66.999s87.833 21.5 136.5 21.5c23.333 0 46.5 -1.33301 69.5 -4s41.833 -5.66699 56.5 -9v-131c-21.333 3.33301 -40.666 5.66602 -57.999 6.99902s-32.666 2 -45.999 2c-34 0 -64.5 -4.33301 -91.5 -13
s-49.667 -22.5 -68 -41.5s-32.333 -44 -42 -75s-14.5 -68.5 -14.5 -112.5v-146h431v111c0 74.667 12.5 138 37.5 190s58 94.5 99 127.5s88.167 57 141.5 72s108.333 22.5 165 22.5c29.333 0 58 -1.33301 86 -4s55 -6 81 -10s50.167 -8.66699 72.5 -14
s41.833 -10.666 58.5 -15.999v-903h2l448 424h202l-464 -437l463 -513h-193l-456 506h-2v-506h-155v1322z" />
    <glyph glyph-name=".notdef" horiz-adv-x="948" 
d="M948 1338v-1338h-948v1338h948zM855 91v1156h-762v-1156h762zM363 224v125h122v-125h-122zM715 896c0 -23.333 -3.16895 -43.999 -9.50195 -61.999s-14.666 -34.5 -24.999 -49.5s-22.166 -28.667 -35.499 -41s-27.333 -24.166 -42 -35.499l-48 -38.5
c-16 -13 -30.333 -27 -43 -42s-23 -32 -31 -51s-12 -40.833 -12 -65.5v-11h-88c-0.666992 4.66699 -1.16699 9.66699 -1.5 15s-0.5 9.66602 -0.5 12.999c0 33.333 5 61.833 15 85.5s22.5 44.334 37.5 62.001s31.833 33.5 50.5 47.5l53 41c21.333 16.667 39.333 34.667 54 54
s22 43.666 22 72.999c0 38 -14.833 67.5 -44.5 88.5s-68.834 31.5 -117.501 31.5c-33.333 0 -65.333 -4 -96 -12s-58 -17.333 -82 -28v84c23.333 12.667 51.333 22.834 84 30.501s65.334 11.5 98.001 11.5c40.667 0 77.167 -4.83301 109.5 -14.5
s59.833 -23.334 82.5 -41.001s40 -38.834 52 -63.501s18 -52 18 -82z" />
    <glyph glyph-name="glyph1" horiz-adv-x="0" 
 />
    <glyph glyph-name="glyph1" horiz-adv-x="0" 
 />
    <glyph glyph-name="uni000D" unicode="&#xd;" horiz-adv-x="410" 
 />
    <glyph glyph-name="space" unicode=" " horiz-adv-x="410" 
 />
    <glyph glyph-name="space" unicode="&#xa0;" horiz-adv-x="410" 
 />
    <glyph glyph-name="exclam" unicode="!" horiz-adv-x="541" 
d="M175 0v195h191v-195h-191zM360 1338l-24 -907h-131l-24 907h179z" />
    <glyph glyph-name="quotedbl" unicode="&#x22;" horiz-adv-x="742" 
d="M123 1338h155v-494h-155v494zM464 1338h155v-494h-155v494z" />
    <glyph glyph-name="numbersign" unicode="#" horiz-adv-x="1341" 
d="M428 949l80 389h148l-80 -389h304l80 389h148l-80 -389h193v-132h-220l-61 -296h199v-132h-226l-80 -389h-148l80 389h-304l-80 -389h-148l80 389h-193v132h220l61 296h-199v132h226zM488 521h304l61 296h-304z" />
    <glyph glyph-name="dollar" unicode="$" 
d="M455 25c-31.333 0 -62.832 1.3291 -94.499 3.99609s-61.5 6.33398 -89.5 11.001s-53.167 10 -75.5 16s-40.166 12.333 -53.499 19v138c21.333 -8 46.666 -16 75.999 -24s64.666 -14.833 105.999 -20.5s82.666 -8.5 123.999 -8.5h7v286
c-39.333 6.66699 -77.833 15 -115.5 25s-71.334 24.667 -101.001 44s-53.5 44.333 -71.5 75s-27 69.667 -27 117c0 39.333 7.83301 75 23.5 107s37.334 59.667 65.001 83s60.834 42.333 99.501 57s81 24.334 127 29.001v104h132v-101c54.667 -2.66699 105.167 -8 151.5 -16
s88.5 -18.333 126.5 -31v-139c-42 12.667 -85.333 23.667 -130 33s-94 15.333 -148 18v-283c40 -7.33301 79.5 -16.166 118.5 -26.499s74 -25 105 -44s56 -43.667 75 -74s28.5 -69.166 28.5 -116.499c0 -38 -7.66699 -72.5 -23 -103.5s-37.333 -58 -66 -81s-63 -42 -103 -57
s-85 -25.833 -135 -32.5v-108h-132v100zM757.001 305.996c0 19.333 -4 35.502 -12 48.502s-19.5 24.167 -34.5 33.5s-32.833 17.166 -53.5 23.499s-44 11.833 -70 16.5v-259c23.333 4 45.333 9.33301 66 16s38.667 15.5 54 26.5s27.5 24.167 36.5 39.5
s13.5 33.666 13.5 54.999zM297.001 712.998c0 -35.333 12.833 -62.5 38.5 -81.5s65.5 -33.5 119.5 -43.5v259c-105.333 -13.333 -158 -58 -158 -134z" />
    <glyph glyph-name="percent" unicode="%" horiz-adv-x="1648" 
d="M1305 852c42 0 80.5 -8.83301 115.5 -26.5s64.833 -44.5 89.5 -80.5s43.834 -81.167 57.501 -135.5s20.5 -118.166 20.5 -191.499s-6.83301 -137.166 -20.5 -191.499s-32.834 -99.5 -57.501 -135.5s-54.5 -63 -89.5 -81s-73.5 -27 -115.5 -27s-80.5 9 -115.5 27
s-64.833 45 -89.5 81s-43.834 81.167 -57.501 135.5s-20.5 118.166 -20.5 191.499s6.83301 137.166 20.5 191.499s32.834 99.5 57.501 135.5s54.5 62.833 89.5 80.5s73.5 26.5 115.5 26.5zM1305 104c46 0 81 25.833 105 77.5s36 130.5 36 236.5s-12 184.667 -36 236
s-59 77 -105 77s-81 -25.667 -105 -77s-36 -130 -36 -236s12 -184.833 36 -236.5s59 -77.5 105 -77.5zM1263 1363l101 -78l-977 -1310l-101 78zM343 1363c42 0 80.5 -8.83301 115.5 -26.5s64.833 -44.5 89.5 -80.5s43.834 -81.167 57.501 -135.5
s20.5 -118.166 20.5 -191.499s-6.83301 -137.166 -20.5 -191.499s-32.834 -99.5 -57.501 -135.5s-54.5 -63 -89.5 -81s-73.5 -27 -115.5 -27s-80.5 9 -115.5 27s-64.833 45 -89.5 81s-43.834 81.167 -57.501 135.5s-20.5 118.166 -20.5 191.499
s6.83301 137.166 20.5 191.499s32.834 99.5 57.501 135.5s54.5 62.833 89.5 80.5s73.5 26.5 115.5 26.5zM343 615c46 0 81 25.833 105 77.5s36 130.5 36 236.5s-12 184.667 -36 236s-59 77 -105 77s-81 -25.667 -105 -77s-36 -130 -36 -236s12 -184.833 36 -236.5
s59 -77.5 105 -77.5z" />
    <glyph glyph-name="ampersand" unicode="&#x26;" horiz-adv-x="1371" 
d="M1229 696c-1.33301 -96.667 -17.8301 -184.33 -49.4971 -262.997s-73.834 -148.334 -126.501 -209.001l80.5 -83l66.5 -69l47.5 -48.5l23.5 -23.5h-197l-38.5 38.5l-86.5 88.5c-64.667 -49.333 -134.334 -87 -209.001 -113s-150.334 -39 -227.001 -39
c-73.333 0 -136.166 10 -188.499 30s-95.166 46.333 -128.499 79s-57.666 69.834 -72.999 111.501s-23 84.167 -23 127.5c0 52 7.5 97.667 22.5 137s35.333 74.166 61 104.499s55.167 57.333 88.5 81s68 45.5 104 65.5c-26.667 25.333 -51.834 50.666 -75.501 75.999
s-44.334 51.666 -62.001 78.999s-31.5 56.166 -41.5 86.499s-15 63.5 -15 99.5c0 49.333 8.83301 93.166 26.5 131.499s42.834 70.833 75.501 97.5s71.667 47 117 61s95.666 21 150.999 21c50.667 0 97.834 -6.33301 141.501 -19s81.667 -31.5 114 -56.5
s57.833 -55.833 76.5 -92.5s28 -79 28 -127c0 -50 -8.66699 -93.833 -26 -131.5s-40.333 -71.5 -69 -101.5s-61.334 -56.833 -98.001 -80.5s-74.667 -46.167 -114 -67.5l74.5 -76.5l87 -89.5l93.5 -96.5l95 -98.5c34 44.667 61.167 97.334 81.5 158.001
s31.166 131.334 32.499 212.001h160zM513.003 107.004c24.667 0 51.165 2.16504 79.498 6.49805s57.166 11.166 86.499 20.499s58.833 21.333 88.5 36s58.167 32.334 85.5 53.001l-99.5 102l-102 104.5l-96.5 98.5l-83 85c-29.333 -16.667 -56.666 -34.5 -81.999 -53.5
s-47.5 -39.5 -66.5 -61.5s-34 -46.333 -45 -73s-16.5 -56.667 -16.5 -90c0 -29.333 5 -57.666 15 -84.999s25.333 -51.666 46 -72.999s46.834 -38.333 78.501 -51s68.834 -19 111.501 -19zM344.001 1052c0 -24.667 3.66797 -48.001 11.001 -70.001
s18.166 -43.667 32.499 -65s31.833 -43 52.5 -65l71 -72c32 16.667 62.5 34 91.5 52s54.5 37.667 76.5 59s39.333 45.333 52 72s19 57 19 91c0 31.333 -5 58 -15 80s-24 40.333 -42 55s-39.5 25.334 -64.5 32.001s-52.5 10 -82.5 10c-62.667 0 -112 -15.333 -148 -46
s-54 -75 -54 -133z" />
    <glyph glyph-name="quotesingle" unicode="'" horiz-adv-x="401" 
d="M123 1338h155v-494h-155v494z" />
    <glyph glyph-name="parenleft" unicode="(" horiz-adv-x="614" 
d="M265 519c0 -89.333 7.66699 -172.002 23 -248.002s35.666 -145.667 60.999 -209s54.833 -120.5 88.5 -171.5s68.5 -96.167 104.5 -135.5l-85 -80c-18.667 16 -40.334 37.5 -65.001 64.5s-49.834 59.333 -75.501 97s-50.834 80.334 -75.501 128.001s-46.667 100 -66 157
s-35 118.833 -47 185.5s-18 137.334 -18 212.001c0 75.333 6 146.166 18 212.499s27.667 128 47 185s41.333 109.333 66 157s49.834 90.334 75.501 128.001s50.834 70 75.501 97s46.334 48.5 65.001 64.5l85 -80c-36 -39.333 -70.833 -84.5 -104.5 -135.5
s-63.167 -108.167 -88.5 -171.5s-45.666 -133 -60.999 -209s-23 -158.667 -23 -248z" />
    <glyph glyph-name="parenright" unicode=")" horiz-adv-x="614" 
d="M349 519c0 89.333 -7.66699 172.002 -23 248.002s-35.666 145.667 -60.999 209s-54.833 120.5 -88.5 171.5s-68.5 96.167 -104.5 135.5l85 80c18.667 -16 40.334 -37.5 65.001 -64.5s49.834 -59.333 75.501 -97s50.834 -80.334 75.501 -128.001s46.667 -100 66 -157
s35 -118.667 47 -185s18 -137.166 18 -212.499c0 -74.667 -6 -145.334 -18 -212.001s-27.667 -128.5 -47 -185.5s-41.333 -109.333 -66 -157s-49.834 -90.334 -75.501 -128.001s-50.834 -70 -75.501 -97s-46.334 -48.5 -65.001 -64.5l-85 80
c36 39.333 70.833 84.5 104.5 135.5s63.167 108.167 88.5 171.5s45.666 133 60.999 209s23 158.667 23 248z" />
    <glyph glyph-name="asterisk" unicode="*" horiz-adv-x="1101" 
d="M553 849h-5l-82 -199l-112 -154l-117 85l112 154l154 147l-2 5l-206 21l-175 57l45 138l175 -57l178 -104l4 4l-44 202v190h145v-190l-44 -202l4 -4l178 104l175 57l45 -138l-175 -57l-206 -21l-2 -5l154 -147l112 -154l-117 -85l-112 154z" />
    <glyph glyph-name="plus" unicode="+" 
d="M115 587h340v363h140v-363h340v-132h-340v-363h-140v363h-340v132z" />
    <glyph glyph-name="comma" unicode="," horiz-adv-x="540" 
d="M187 218h173l-189 -608h-151z" />
    <glyph glyph-name="hyphen" unicode="-" horiz-adv-x="681" 
d="M120 571h441v-145h-441v145z" />
    <glyph glyph-name="hyphen" unicode="&#x2010;" horiz-adv-x="681" 
d="M120 571h441v-145h-441v145z" />
    <glyph glyph-name="hyphen" unicode="&#xad;" horiz-adv-x="681" 
d="M120 571h441v-145h-441v145z" />
    <glyph glyph-name="period" unicode="." horiz-adv-x="541" 
d="M175 0v195h191v-195h-191z" />
    <glyph glyph-name="slash" unicode="/" horiz-adv-x="563" 
d="M18 -249l380 1587h148l-380 -1587h-148z" />
    <glyph glyph-name="zero" unicode="0" horiz-adv-x="1052" 
d="M800 474c0 57.333 -6.50098 108.833 -19.501 154.5s-31.333 84.334 -55 116.001s-52.334 56 -86.001 73s-71.5 25.5 -113.5 25.5s-79.833 -8.5 -113.5 -25.5s-62.5 -41.333 -86.5 -73s-42.333 -70.334 -55 -116.001s-19 -97.167 -19 -154.5
c0 -56.667 6.5 -107.834 19.5 -153.501s31.333 -84.167 55 -115.5s52.5 -55.5 86.5 -72.5s72 -25.5 114 -25.5s79.833 8.5 113.5 25.5s62.334 41.167 86.001 72.5s41.834 69.833 54.501 115.5s19 96.834 19 153.501zM961.999 474c0 -70.667 -9.83203 -136.5 -29.499 -197.5
s-48.167 -113.833 -85.5 -158.5s-82.833 -79.667 -136.5 -105s-114.834 -38 -183.501 -38c-70.667 0 -133.167 12.667 -187.5 38s-100 60.333 -137 105s-65 97.5 -84 158.5s-28.5 126.833 -28.5 197.5c0 71.333 9.83301 137.5 29.5 198.5s48.167 114 85.5 159
s83 80.167 137 105.5s115.333 38 184 38c70 0 132.167 -12.667 186.5 -38s100 -60.5 137 -105.5s65 -98 84 -159s28.5 -127.167 28.5 -198.5z" />
    <glyph glyph-name="one" unicode="1" horiz-adv-x="918" 
d="M451 143v642l-361 -113v144l382 134h134v-807h262v-143h-736v143h319z" />
    <glyph glyph-name="two" unicode="2" horiz-adv-x="1046" 
d="M408 137c76.667 4 145.663 6.00293 206.996 6.00293h312v-143h-772v103l212 158.5c64.667 49 120.5 96 167.5 141s83.833 88.833 110.5 131.5s40 85.667 40 129c0 58 -18.667 102.333 -56 133s-91 46 -161 46c-52 -0.666992 -102.5 -8.33398 -151.5 -23.001
s-99.5 -34 -151.5 -58v132c38 22 84.833 41.167 140.5 57.5s116.834 24.5 183.501 24.5c52.667 0 100.834 -6.66699 144.501 -20s81.334 -32.833 113.001 -58.5s56.167 -57.334 73.5 -95.001s26 -81.167 26 -130.5c0 -52.667 -11.333 -101.834 -34 -147.501
s-53.667 -89.5 -93 -131.5s-85.666 -83.5 -138.999 -124.5l-172 -126.5v-4z" />
    <glyph glyph-name="three" unicode="3" horiz-adv-x="928" 
d="M558 308c35.333 -3.33301 69.167 -12.002 101.5 -26.002s61 -34 86 -60s45 -58 60 -96s22.5 -82.667 22.5 -134c0 -61.333 -10.333 -117 -31 -167s-51 -92.667 -91 -128s-89.5 -62.5 -148.5 -81.5s-127.167 -28.5 -204.5 -28.5c-54 0 -105.5 5 -154.5 15
s-92.5 24.667 -130.5 44v132c48 -20.667 95.333 -35.5 142 -44.5s90.667 -13.5 132 -13.5c61.333 0 112.666 7.5 153.999 22.5s74.5 34.833 99.5 59.5s43 53.167 54 85.5s16.5 66.166 16.5 101.499c0 86.667 -27.667 149.167 -83 187.5s-135.333 57.5 -240 57.5h-106v133h62
c57.333 0 106.5 6.5 147.5 19.5s74.833 31 101.5 54s46.167 50 58.5 81s18.5 64.5 18.5 100.5c0 38 -6.83301 70.833 -20.5 98.5s-32.334 50.5 -56.001 68.5s-51.5 31.333 -83.5 40s-66.333 13 -103 13c-45.333 0 -91 -5.33301 -137 -16s-91.333 -25 -136 -43v132
c54.667 22.667 106.834 38.334 156.501 47.001s93.5 13 131.5 13c64.667 0 122.334 -8.66699 173.001 -26s93.5 -41.666 128.5 -72.999s61.833 -68.333 80.5 -111s28 -89.667 28 -141c0 -34 -4 -67 -12 -99s-21.167 -61.667 -39.5 -89s-42 -51.666 -71 -72.999
s-64.5 -38.333 -106.5 -51v-4z" />
    <glyph glyph-name="four" unicode="4" horiz-adv-x="1058" 
d="M269 133v-4l148 4h219v304h155v-304h197v-133h-197v-387h-155v387h-544v114l394 836h167z" />
    <glyph glyph-name="five" unicode="5" horiz-adv-x="983" 
d="M878 13c0 -61.333 -11.168 -118.001 -33.501 -170.001s-54.666 -97 -96.999 -135s-93.833 -67.667 -154.5 -89s-129.667 -32 -207 -32c-50.667 0 -99 4.83301 -145 14.5s-87.333 24.5 -124 44.5v132c49.333 -22 96 -36.833 140 -44.5s84.667 -11.5 122 -11.5
c56.667 0 106 7.5 148 22.5s77 35.5 105 61.5s49 56.167 63 90.5s21 70.5 21 108.5c0 46 -7.16699 85.833 -21.5 119.5s-36.833 61.667 -67.5 84s-70 39 -118 50s-106 16.5 -174 16.5c-48 0 -106 -3.33301 -174 -10l95 685h621v-143h-484l-56 -397c23.333 1.33301 42 2 56 2
c78 0 147.167 -9 207.5 -27s111 -44 152 -78s72.167 -75.667 93.5 -125s32 -105.666 32 -168.999z" />
    <glyph glyph-name="six" unicode="6" horiz-adv-x="1074" 
d="M564 806c59.333 0 114.167 -8.49902 164.5 -25.499s93.666 -42.167 129.999 -75.5s64.666 -74.5 84.999 -123.5s30.5 -105.5 30.5 -169.5s-9.5 -122.833 -28.5 -176.5s-46.5 -99.667 -82.5 -138s-80 -68.333 -132 -90s-111 -32.5 -177 -32.5c-70 0 -132.5 14 -187.5 42
s-101.5 68 -139.5 120s-67 115 -87 189s-30 157 -30 249c0 70.667 5.5 139.167 16.5 205.5s27.333 128.666 49 186.999s48.334 111.666 80.001 159.999s68.5 90 110.5 125s89 62.167 141 81.5s108.667 29 170 29c50.667 -0.666992 94.334 -5.66699 131.001 -15
s67.334 -20 92.001 -32v-130c-26.667 10.667 -58.667 20.334 -96 29.001s-76 13 -116 13c-48 0 -94.5 -9.83301 -139.5 -29.5s-85.833 -50 -122.5 -91s-67.834 -93 -93.501 -156s-43.5 -137.833 -53.5 -224.5h4c42 24 87.667 43.167 137 57.5s97.333 21.5 144 21.5z
M560.001 107.001c35.333 0 68.335 6.33301 99.002 19s57.334 31.334 80.001 56.001s40.5 55.167 53.5 91.5s19.5 77.833 19.5 124.5c0 50 -6.83301 92.167 -20.5 126.5s-32.334 62.166 -56.001 83.499s-51.334 36.666 -83.001 45.999s-65.5 14 -101.5 14
c-47.333 0 -95.666 -8.33301 -144.999 -25s-94 -37 -134 -61c-0.666992 -80 6.16602 -149.833 20.499 -209.5s34.166 -109.167 59.499 -148.5s55.833 -68.666 91.5 -87.999s74.5 -29 116.5 -29z" />
    <glyph glyph-name="seven" unicode="7" horiz-adv-x="876" 
d="M39 807v143h784v-104l-551 -1233h-162l534 1194h-605z" />
    <glyph glyph-name="eight" unicode="8" horiz-adv-x="1054" 
d="M527 -25c-64.667 0 -123.505 9.5 -176.505 28.5s-98.5 45.167 -136.5 78.5s-67.333 72.833 -88 118.5s-31 95.167 -31 148.5c0 49.333 7 93 21 131s32.833 71 56.5 99s51.334 51.167 83.001 69.5s65.167 31.833 100.5 40.5v4
c-33.333 11.333 -64.166 26.666 -92.499 45.999s-53 42.5 -74 69.5s-37.333 57.667 -49 92s-17.5 72.166 -17.5 113.499c0 56.667 11.333 106.667 34 150s52.834 79.833 90.501 109.5s80.667 52 129 67s98.5 22.5 150.5 22.5s102.167 -7.5 150.5 -22.5
s91.333 -37.333 129 -67s67.834 -66.167 90.501 -109.5s34 -93.333 34 -150c0 -41.333 -6.5 -79.166 -19.5 -113.499s-30.5 -65 -52.5 -92s-47.667 -50.167 -77 -69.5s-60.666 -34.666 -93.999 -45.999v-4c35.333 -8.66699 69.333 -22.167 102 -40.5s61.5 -41.5 86.5 -69.5
s45 -61 60 -99s22.5 -81.667 22.5 -131c0 -53.333 -10.333 -102.833 -31 -148.5s-50 -85.167 -88 -118.5s-83.5 -59.5 -136.5 -78.5s-111.833 -28.5 -176.5 -28.5zM526.995 1231c-34.667 0 -66.833 -4.83301 -96.5 -14.5s-55.334 -24 -77.001 -43s-38.5 -42.167 -50.5 -69.5
s-18 -59 -18 -95c0 -68 21.167 -123.333 63.5 -166s101.833 -71.667 178.5 -87c76.667 15.333 136.167 44.333 178.5 87s63.5 98 63.5 166c0 36 -6 67.667 -18 95s-28.833 50.5 -50.5 69.5s-47.167 33.333 -76.5 43s-61.666 14.5 -96.999 14.5zM526.996 619
c-37.333 -4 -72.3311 -12.167 -104.998 -24.5s-61.334 -29.333 -86.001 -51s-44 -48.167 -58 -79.5s-21 -68 -21 -110c0 -38 6.83301 -72.333 20.5 -103s32.5 -56.667 56.5 -78s52.5 -37.666 85.5 -48.999s68.833 -17 107.5 -17c39.333 0 75.5 5.66699 108.5 17
s61.5 27.666 85.5 48.999s42.667 47.333 56 78s20 65 20 103c0 42 -7 78.667 -21 110s-33.333 57.833 -58 79.5s-53.334 38.667 -86.001 51s-67.667 20.5 -105 24.5z" />
    <glyph glyph-name="nine" unicode="9" horiz-adv-x="1074" 
d="M384 -413c-50.667 0 -97.8291 5.17285 -141.496 15.5059s-82.167 24.5 -115.5 42.5v133c33.333 -17.333 71.166 -31 113.499 -41s85.833 -15 130.5 -15c61.333 0 116.833 9.33301 166.5 28s92.834 48.167 129.501 88.5s66.167 92.166 88.5 155.499
s36.833 139.666 43.5 228.999h-4c-18.667 -11.333 -39.834 -21.833 -63.501 -31.5s-48.667 -18 -75 -25s-53.333 -12.5 -81 -16.5s-54.834 -6 -81.501 -6c-54.667 0 -105.834 8.5 -153.501 25.5s-89.334 42 -125.001 75s-63.834 74.167 -84.501 123.5s-31 106.333 -31 171
c0 61.333 9.16699 118.666 27.5 171.999s45 99.5 80 138.5s78.333 69.667 130 92s110.5 33.5 176.5 33.5c72.667 0 137 -13.833 193 -41.5s103 -68.334 141 -122.001s66.833 -119.834 86.5 -198.501s29.5 -169 29.5 -271c0 -68.667 -4.66699 -134.834 -14 -198.501
s-23.666 -123.5 -42.999 -179.5s-44.5 -107.167 -75.5 -153.5s-67.833 -86 -110.5 -119s-92 -58.667 -148 -77s-119 -27.5 -189 -27.5zM516.005 282.006c50.667 0 100.999 7.83301 150.999 23.5s95 35.5 135 59.5c-0.666992 84 -8.16699 156.167 -22.5 216.5
s-34.166 109.833 -59.499 148.5s-55.833 67.167 -91.5 85.5s-75.167 27.5 -118.5 27.5c-36 0 -69.167 -6.33301 -99.5 -19s-56.5 -31.334 -78.5 -56.001s-39.167 -55 -51.5 -91s-18.5 -77 -18.5 -123c0 -49.333 6 -91.166 18 -125.499s29 -62.333 51 -84
s48.667 -37.5 80 -47.5s66.333 -15 105 -15z" />
    <glyph glyph-name="colon" unicode=":" horiz-adv-x="541" 
d="M175 0v195h191v-195h-191zM366 807v-195h-191v195h191z" />
    <glyph glyph-name="semicolon" unicode=";" horiz-adv-x="546" 
d="M187 218h173l-189 -608h-151zM366 807v-195h-191v195h191z" />
    <glyph glyph-name="less" unicode="&#x3c;" 
d="M935 207v-152l-820 413v126l820 413v-152l-652 -322v-4z" />
    <glyph glyph-name="equal" unicode="=" 
d="M115 639v132h820v-132h-820zM115 273v132h820v-132h-820z" />
    <glyph glyph-name="greater" unicode="&#x3e;" 
d="M777 529v4l-662 324v150l820 -408v-136l-820 -408v150z" />
    <glyph glyph-name="question" unicode="?" horiz-adv-x="873" 
d="M223 0v195h191v-195h-191zM772 1049c0 -40 -6.16797 -75.8359 -18.501 -107.503s-28.666 -60 -48.999 -85s-43 -47.667 -68 -68l-75.5 -60.5c-22 -17.333 -43.5 -35.333 -64.5 -54s-39.5 -39 -55.5 -61s-28.833 -46.833 -38.5 -74.5s-14.5 -58.167 -14.5 -91.5v-16h-137
c-1.33301 19.333 -2 34 -2 44c0 45.333 6.66699 86.333 20 123s31.5 69 54.5 97s48 52.667 75 74l79.5 62c18 14 35 28.333 51 43s30.167 30.334 42.5 47.001s22 34.834 29 54.501s10.5 41.834 10.5 66.501c0 29.333 -6.16699 55.666 -18.5 78.999s-29.666 43 -51.999 59
s-49 28.333 -80 37s-65.5 13 -103.5 13c-50 0 -99.167 -6.33301 -147.5 -19s-91.5 -27.667 -129.5 -45v132c36 19.333 79.5 35 130.5 47s102.167 18 153.5 18c63.333 0 120.166 -7.5 170.499 -22.5s93 -36.333 128 -64s62 -60.667 81 -99s28.5 -81.166 28.5 -128.499z" />
    <glyph glyph-name="at" unicode="@" horiz-adv-x="2070" 
d="M1260 417l-43.498 12.001c-15 4 -30.833 7.66699 -47.5 11s-35 6.16602 -55 8.49902s-42 3.5 -66 3.5c-66 0 -117.667 -14 -155 -42s-56 -71 -56 -129c0 -26 4.33301 -48.5 13 -67.5s20.5 -35 35.5 -48s32.667 -22.667 53 -29s42.166 -9.5 65.499 -9.5
c25.333 0 50.166 3.33301 74.499 10s47.333 15.5 69 26.5s42 23.833 61 38.5s36.167 29.667 51.5 45v170zM1268 125.001c-14 -16 -30.3398 -31.834 -49.0068 -47.501s-40 -29.667 -64 -42s-50.667 -22.166 -80 -29.499s-61.333 -11 -96 -11c-44 0 -84.5 6.66699 -121.5 20
s-68.833 32.5 -95.5 57.5s-47.5 55 -62.5 90s-22.5 74.5 -22.5 118.5c0 47.333 8.5 89.666 25.5 126.999s40.833 69 71.5 95s67.5 46 110.5 60s90.5 21 142.5 21c50.667 0 93.834 -4.33301 129.501 -13s68.834 -18.667 99.501 -30h4v56c0 35.333 -4 67.333 -12 96
s-21.333 53.167 -40 73.5s-43.167 36 -73.5 47s-68.166 16.5 -113.499 16.5c-48 0 -93.167 -4.5 -135.5 -13.5s-84.5 -21.5 -126.5 -37.5v130c16.667 8 35.667 15.5 57 22.5s44 13 68 18s49.333 8.83301 76 11.5s53.334 4 80.001 4c64 0 119.5 -8.33301 166.5 -25
s86 -40 117 -70s54 -66.333 69 -109s22.5 -90 22.5 -142v-391c0 -34.667 5.33301 -60.167 16 -76.5s31 -24.5 61 -24.5c36.667 0 70.334 11.667 101.001 35s57 55 79 95s39.167 86.667 51.5 140s18.5 110 18.5 170c0 108 -18 203.167 -54 285.5s-85.333 151.333 -148 207
s-135.667 97.667 -219 126s-172.666 42.5 -267.999 42.5c-84.667 0 -161.167 -9.66699 -229.5 -29s-129.166 -46.166 -182.499 -80.499s-99.166 -75.5 -137.499 -123.5s-69.833 -100.5 -94.5 -157.5s-43 -117.5 -55 -181.5s-18 -129.667 -18 -197
c0 -108 15.5 -207.167 46.5 -297.5s77.5 -168.333 139.5 -234s139.333 -116.834 232 -153.501s200.667 -55 324 -55c58 0 113.333 2.83301 166 8.5s102 13.167 148 22.5s88.167 19.833 126.5 31.5s72.166 23.834 101.499 36.501v-135c-30 -12 -65.167 -23.833 -105.5 -35.5
s-84.5 -22 -132.5 -31s-98.833 -16.167 -152.5 -21.5s-108.5 -8 -164.5 -8c-80.667 0 -158.5 8.16699 -233.5 24.5s-145.333 40.666 -211 72.999s-125.5 72.5 -179.5 120.5s-100.333 104 -139 168s-68.667 135.833 -90 215.5s-32 166.834 -32 261.501
c0 138 20.667 263.333 62 376s100 208.667 176 288s167.833 140.666 275.5 183.999s227.834 65 360.501 65c122 0 234.167 -18.833 336.5 -56.5s190.5 -91 264.5 -160s131.667 -151.667 173 -248s62 -203.166 62 -320.499c0 -90 -10.833 -171 -32.5 -243
s-51.5 -133.167 -89.5 -183.5s-83 -89 -135 -116s-108.333 -40.5 -169 -40.5c-28.667 0 -53.834 3.33301 -75.501 10s-40.167 15.667 -55.5 27s-28 25 -38 41s-17.667 33.333 -23 52h-4z" />
    <glyph glyph-name="A" unicode="A" horiz-adv-x="1301" 
d="M35 0l545 1338h141l545 -1338h-177l-160 403h-559l-160 -403h-175zM649 1130c-59.333 -166.667 -116.333 -318 -171 -454l-50 -126h443l-50 126c-54.667 138.667 -110.667 290 -168 454h-4z" />
    <glyph glyph-name="B" unicode="B" horiz-adv-x="1215" 
d="M830 692c41.333 -6 78.499 -17.0039 111.499 -33.0039s61.333 -36.5 85 -61.5s41.834 -54.667 54.501 -89s19 -73.5 19 -117.5c0 -31.333 -4.66699 -64.166 -14 -98.499s-24.833 -67.666 -46.5 -99.999s-50 -62.166 -85 -89.499s-78.5 -49.666 -130.5 -66.999
c-40 -13.333 -84.333 -22.666 -133 -27.999s-107 -8 -175 -8h-346v1338h334c30.667 0 58.5 -0.5 83.5 -1.5s48 -2.5 69 -4.5s40.5 -4.5 58.5 -7.5s35 -6.5 51 -10.5c42 -11.333 80.167 -26.833 114.5 -46.5s63.5 -43.167 87.5 -70.5s42.5 -58.333 55.5 -93
s19.5 -72.334 19.5 -113.001c0 -32.667 -3.83301 -64 -11.5 -94s-20 -57.667 -37 -83s-39 -48 -66 -68s-59.833 -36.667 -98.5 -50v-4zM580.999 758.996c32 0 59.665 1.50195 82.998 4.50195s44.333 7.5 63 13.5c50 16.667 86.5 42.667 109.5 78s34.5 77 34.5 125
c0 49.333 -12 89.666 -36 120.999s-61.667 54.666 -113 69.999c-25.333 7.33301 -54.666 12.5 -87.999 15.5s-72.666 4.5 -117.999 4.5h-183v-432h248zM332.997 611.998l-0.000976562 -464.997h197c46.667 0 90 2.16699 130 6.5s74 11.166 102 20.499
c30.667 10 56.667 22.833 78 38.5s38.5 33 51.5 52s22.333 39.167 28 60.5s8.5 43 8.5 65c0 25.333 -3 49.166 -9 71.499s-15.833 42.333 -29.5 60s-31.667 33.167 -54 46.5s-50.166 23.666 -83.499 30.999c-20 4.66699 -42.833 8 -68.5 10s-57.5 3 -95.5 3h-255z" />
    <glyph glyph-name="C" unicode="C" horiz-adv-x="1207" 
d="M820 1218c-74 0 -143.172 -11.835 -207.505 -35.502s-120.166 -59 -167.499 -106s-84.666 -105.333 -111.999 -175s-41 -150.834 -41 -243.501c0 -92 12.667 -171.833 38 -239.5s61.333 -123.667 108 -168s102.834 -77.166 168.501 -98.499s138.834 -32 219.501 -32
c22 0 45.333 1.16699 70 3.5s49.5 5.66602 74.5 9.99902s49.333 9.33301 73 15s44.834 11.834 63.501 18.501v-144c-39.333 -15.333 -85 -27.166 -137 -35.499s-105.333 -12.5 -160 -12.5c-111.333 0 -210 15.5 -296 46.5s-158.167 75.5 -216.5 133.5
s-102.5 128.833 -132.5 212.5s-45 178.5 -45 284.5c0 104 15.833 199.667 47.5 287s77.334 162.333 137.001 225s132 111.5 217 146.5s180.5 52.5 286.5 52.5c28 0 55.667 -1.16699 83 -3.5s53.5 -5.66602 78.5 -9.99902s48.167 -9.5 69.5 -15.5s39.666 -12.333 54.999 -19
v-144c-40 13.333 -83.667 24.5 -131 33.5s-95 13.5 -143 13.5z" />
    <glyph glyph-name="D" unicode="D" horiz-adv-x="1374" 
d="M1254 675c0 -78 -9.66602 -151.333 -28.999 -220s-48.5 -130.5 -87.5 -185.5s-87.667 -102.5 -146 -142.5s-126.5 -71 -204.5 -93c-44.667 -12.667 -93 -21.5 -145 -26.5s-108.333 -7.5 -169 -7.5h-303v1338h306c60.667 0 117 -2.5 169 -7.5s100.333 -13.833 145 -26.5
c78 -22 146.167 -52.667 204.5 -92s106.666 -85.833 144.999 -139.5s67 -114 86 -181s28.5 -139.167 28.5 -216.5zM1082 675c0 128.667 -28 232.999 -84 312.999s-136.333 136.667 -241 170c-40 12.667 -84.667 21.334 -134 26.001s-105 7 -167 7h-123v-1044h123
c62 0 117.667 2.33301 167 7s94 13.334 134 26.001c104.667 33.333 185 91.666 241 174.999s84 190 84 320z" />
    <glyph glyph-name="E" unicode="E" horiz-adv-x="1129" 
d="M333 147h686v-147h-849v1338h812v-147h-649v-432h577v-147h-577v-465z" />
    <glyph glyph-name="F" unicode="F" horiz-adv-x="1033" 
d="M333 0h-163v1338h798v-147h-635v-432h563v-147h-563v-612z" />
    <glyph glyph-name="G" unicode="G" horiz-adv-x="1368" 
d="M1045 541l-304.997 0.00390625v147h468v-647c-14 -7.33301 -34.5 -14.833 -61.5 -22.5s-57.833 -14.834 -92.5 -21.501s-71.834 -12 -111.501 -16s-78.834 -6 -117.501 -6c-114.667 0 -215.834 15.667 -303.501 47s-161.167 75.666 -220.5 132.999s-104.333 127 -135 209
s-46 173.333 -46 274c0 109.333 17.833 208.666 53.5 297.999s86 165.666 151 228.999s142.667 112.166 233 146.499s189.833 51.5 298.5 51.5c29.333 0 58.666 -1.16699 87.999 -3.5s57.333 -5.66602 84 -9.99902s51.334 -9.5 74.001 -15.5s41.667 -12.333 57 -19v-144
c-40 13.333 -86 24.5 -138 33.5s-104 13.5 -156 13.5c-76 0 -148.5 -11.5 -217.5 -34.5s-129.833 -57.833 -182.5 -104.5s-94.667 -105.167 -126 -175.5s-47 -152.833 -47 -247.5c0 -92.667 12.833 -172.667 38.5 -240s62 -123 109 -167s104 -76.5 171 -97.5
s141.5 -31.5 223.5 -31.5c38 0 75.5 2 112.5 6s69.833 9.66699 98.5 17v398z" />
    <glyph glyph-name="H" unicode="H" horiz-adv-x="1367" 
d="M333 759h701v579h163v-1338h-163v612h-701v-612h-163v1338h163v-579z" />
    <glyph glyph-name="I" unicode="I" horiz-adv-x="503" 
d="M170 0v1338h163v-1338h-163z" />
    <glyph glyph-name="J" unicode="J" horiz-adv-x="767" 
d="M439 1338l163 -0.000976562v-1031c0 -55.333 -8.33301 -103.666 -25 -144.999s-40.5 -75.833 -71.5 -103.5s-68.167 -48.5 -111.5 -62.5s-92 -21 -146 -21c-46 0.666992 -84.833 4.5 -116.5 11.5s-55.5 14.167 -71.5 21.5v144c24.667 -10 51.5 -17.833 80.5 -23.5
s60.167 -8.5 93.5 -8.5c30 0 57.667 3.33301 83 10s47 18 65 34s32 37.333 42 64s15 59.667 15 99v1011z" />
    <glyph glyph-name="K" unicode="K" horiz-adv-x="1239" 
d="M170 0v1338h163v-661h2l615 661h201l-624 -666l672 -672h-212l-652 655h-2v-655h-163z" />
    <glyph glyph-name="L" unicode="L" horiz-adv-x="1066" 
d="M333 1338v-1191h653v-147h-816v1338h163z" />
    <glyph glyph-name="M" unicode="M" horiz-adv-x="1683" 
d="M879 0l-74.999 0.00292969l-337 799c-46.667 110 -93.334 229.667 -140.001 359h-8c9.33301 -186 14 -356.333 14 -511v-647h-163v1338h235l315 -757c36 -86.667 75.667 -191 119 -313h5c48 135.333 87.667 239.666 119 312.999l315 757h235v-1338h-163v647
c0 151.333 4.66699 321.666 14 510.999h-8c-49.333 -136.667 -96 -256.334 -140 -359.001z" />
    <glyph glyph-name="N" unicode="N" horiz-adv-x="1426" 
d="M857 592l243 -364h6c-8.66699 130 -13 262.667 -13 398v712h163v-1338h-162l-525 746c-90.667 130 -171.667 251.333 -243 364h-6c8.66699 -122 13 -264.333 13 -427v-683h-163v1338h162z" />
    <glyph glyph-name="O" unicode="O" horiz-adv-x="1496" 
d="M1204 668c0 90 -11.668 169.333 -35.001 238s-55.5 126 -96.5 172s-89.333 80.833 -145 104.5s-115.5 35.5 -179.5 35.5s-123.833 -11.833 -179.5 -35.5s-104 -58.5 -145 -104.5s-73.167 -103.333 -96.5 -172s-35 -148 -35 -238s11.833 -169.167 35.5 -237.5
s56 -125.5 97 -171.5s89.333 -80.667 145 -104s115.834 -35 180.501 -35c64 0 123.5 11.667 178.5 35s103 58 144 104s73.167 103.167 96.5 171.5s35 147.5 35 237.5zM1376 668c0 -101.333 -14.666 -194.333 -43.999 -279s-71.333 -157.667 -126 -219
s-120.5 -109.166 -197.5 -143.499s-163.167 -51.5 -258.5 -51.5c-98.667 0 -187 17.167 -265 51.5s-144 82.166 -198 143.499s-95.333 134.333 -124 219s-43 177.667 -43 279c0 102 14.833 195.5 44.5 280.5s71.667 158.167 126 219.5s120.166 109.166 197.499 143.499
s164 51.5 260 51.5c98 0 185.833 -17.167 263.5 -51.5s143.5 -82.166 197.5 -143.499s95.333 -134.5 124 -219.5s43 -178.5 43 -280.5z" />
    <glyph glyph-name="P" unicode="P" horiz-adv-x="1168" 
d="M333 0l-163 0.00195312v1338h371c55.333 0 106.5 -3.33301 153.5 -10s90.167 -17 129.5 -31c80 -28.667 140.667 -71.5 182 -128.5s62 -127.167 62 -210.5c0 -68 -13.5 -127.833 -40.5 -179.5s-66.167 -94.834 -117.5 -129.501s-113.833 -60.834 -187.5 -78.501
s-157.167 -26.5 -250.5 -26.5c-44.667 0 -91 2 -139 6v-550zM333 699.002c22 -2.66699 44.999 -4.66602 68.999 -5.99902s46.667 -2 68 -2c76.667 0 142 6 196 18s98 29.5 132 52.5s58.667 51 74 84s23 70.5 23 112.5c0 52 -12.5 94.667 -37.5 128
s-60.5 58.666 -106.5 75.999c-28.667 10.667 -61.667 18.167 -99 22.5s-80.666 6.5 -129.999 6.5h-189v-492z" />
    <glyph glyph-name="Q" unicode="Q" horiz-adv-x="1514" 
d="M1204 668c0 90 -11.668 169.333 -35.001 238s-55.5 126 -96.5 172s-89.333 80.833 -145 104.5s-115.5 35.5 -179.5 35.5s-123.833 -11.833 -179.5 -35.5s-104 -58.5 -145 -104.5s-73.167 -103.333 -96.5 -172s-35 -148 -35 -238s11.833 -169.167 35.5 -237.5
s56 -125.5 97 -171.5s89.333 -80.667 145 -104s115.834 -35 180.501 -35c64 0 123.5 11.667 178.5 35s103 58 144 104s73.167 103.167 96.5 171.5s35 147.5 35 237.5zM1376 682c0 -64 -6.66699 -124.669 -20 -182.002s-32.333 -110.166 -57 -158.499
s-54.167 -91.5 -88.5 -129.5s-72.166 -70 -113.499 -96v-4c55.333 8.66699 107.666 15.334 156.999 20.001s99.333 6.33398 150 5.00098v-147l-102 6.5c-36.667 2.33301 -79 3.5 -127 3.5c-36 0 -72.333 -1 -109 -3s-73 -4.33301 -109 -7s-71.333 -5 -106 -7
s-67.667 -3 -99 -3c-99.333 0 -188.166 16.667 -266.499 50s-144.5 80.166 -198.5 140.499s-95.333 132.833 -124 217.5s-43 178 -43 280s14.833 195.5 44.5 280.5s71.667 158.167 126 219.5s120.166 109.166 197.499 143.499s164 51.5 260 51.5
c98 0 185.833 -17.167 263.5 -51.5s143.5 -81.833 197.5 -142.5s95.333 -132.667 124 -216s43 -173.666 43 -270.999z" />
    <glyph glyph-name="R" unicode="R" horiz-adv-x="1212" 
d="M333 554v-554.001h-163v1338h347c58.667 0 108.5 -2.16699 149.5 -6.5s78.5 -11.166 112.5 -20.499c93.333 -25.333 164.666 -68.5 213.999 -129.5s74 -137.167 74 -228.5c0 -54 -8.66699 -102.333 -26 -145s-41.666 -79.667 -72.999 -111s-68.833 -57 -112.5 -77
s-92.167 -34.667 -145.5 -44v-4l437 -572h-205l-412 554h-197zM333 1191v-489.999h161c50 0 92.667 1.66699 128 5s67 9.33301 95 18c56.667 17.333 100.334 45 131.001 83s46 87.667 46 149c-0.666992 57.333 -15.334 103.5 -44.001 138.5s-68.334 60.167 -119.001 75.5
c-24 7.33301 -52.667 12.666 -86 15.999s-75.666 5 -126.999 5h-185z" />
    <glyph glyph-name="S" unicode="S" horiz-adv-x="1130" 
d="M294 984c0 -39.333 8 -71.8311 24 -97.498s37.5 -46.834 64.5 -63.501s58.333 -30.334 94 -41.001s72.834 -20.667 111.501 -30c52 -12.667 103.167 -26.667 153.5 -42s95.166 -36.5 134.499 -63.5s71.166 -62.167 95.499 -105.5s36.5 -99 36.5 -167
c0 -69.333 -12.833 -129.166 -38.5 -179.499s-61.334 -91.666 -107.001 -123.999s-100.167 -56.333 -163.5 -72s-132.666 -23.5 -207.999 -23.5c-34.667 0 -70.167 2.16699 -106.5 6.5s-71 10.166 -104 17.499s-62.833 15.666 -89.5 24.999s-47.667 18.666 -63 27.999v149
c24 -12 51 -23 81 -33s61 -18.5 93 -25.5s64.333 -12.5 97 -16.5s63.334 -6 92.001 -6c46.667 0 91.167 4 133.5 12s79.5 21.333 111.5 40s57.333 44.167 76 76.5s28 72.833 28 121.5c0 40 -8.16699 73 -24.5 99s-38.166 47.5 -65.499 64.5s-58.833 30.833 -94.5 41.5
s-73.167 20.667 -112.5 30c-52 12 -102.833 25.5 -152.5 40.5s-94 35.833 -133 62.5s-70.333 61 -94 103s-35.5 95.667 -35.5 161c0 68 12 126.5 36 175.5s56.667 89.5 98 121.5s89.666 55.667 144.999 71s114.333 23 177 23c71.333 0 137.833 -6.83301 199.5 -20.5
s118.167 -31.5 169.5 -53.5v-151c-55.333 23.333 -112.5 42.333 -171.5 57s-122.167 22.334 -189.5 23.001c-50.667 0 -94.667 -5.5 -132 -16.5s-68.333 -26.667 -93 -47s-43 -45 -55 -74s-18 -61.167 -18 -96.5z" />
    <glyph glyph-name="T" unicode="T" horiz-adv-x="1137" 
d="M650 0h-163v1191h-447v147h1057v-147h-447v-1191z" />
    <glyph glyph-name="U" unicode="U" horiz-adv-x="1374" 
d="M687 120c48.667 0 91.833 5.66699 129.5 17s70.5 27.333 98.5 48s51.333 45.5 70 74.5s33 61.167 43 96.5c6.66699 22 11.334 46.5 14.001 73.5s4 53.167 4 78.5v830h163v-826c0 -31.333 -1.66699 -64 -5 -98s-8.66602 -65.667 -15.999 -95
c-12.667 -49.333 -31.667 -95 -57 -137s-58.333 -78.333 -99 -109s-89.5 -54.667 -146.5 -72s-123.833 -26 -200.5 -26c-73.333 0 -137.666 8 -192.999 24s-102.833 38.167 -142.5 66.5s-72.167 62 -97.5 101s-45 81.5 -59 127.5c-10 33.333 -17.167 69 -21.5 107
s-6.5 75 -6.5 111v826h163v-830c0 -30 2.16699 -60.833 6.5 -92.5s11.166 -60.5 20.499 -86.5c23.333 -64.667 62.166 -115.667 116.499 -153s126.166 -56 215.499 -56z" />
    <glyph glyph-name="V" unicode="V" horiz-adv-x="1243" 
d="M624 208c48 146 99.667 293.333 155 442l255 688h169l-510 -1338h-143l-510 1338h169l255 -688c56 -148.667 108 -296 156 -442h4z" />
    <glyph glyph-name="W" unicode="W" horiz-adv-x="1806" 
d="M901 1117c-10.667 -61.333 -35.668 -168.666 -75.001 -321.999l-208 -795h-166l-412 1338h171l226 -785c36 -126 66.667 -239.333 92 -340h4c13.333 62 27.833 122.333 43.5 181l41.5 157l204 787h162l204 -787c50 -189.333 78.333 -302 85 -338h4
c22.667 93.333 53.334 206.666 92.001 339.999l226 785h171l-412 -1338h-166l-208 795c-38 148 -63 255.333 -75 322h-4z" />
    <glyph glyph-name="X" unicode="X" horiz-adv-x="1196" 
d="M604 796l370 542h181l-454 -659l475 -679h-183l-392 567h-4l-392 -567h-185l479 683l-450 655h179l372 -542h4z" />
    <glyph glyph-name="Y" unicode="Y" horiz-adv-x="1217" 
d="M690 538v-538h-163v538l-487 800h178l388 -650h5l388 650h178z" />
    <glyph glyph-name="Z" unicode="Z" horiz-adv-x="1199" 
d="M1090 1338v-102l-776 -1089h785v-147h-999v102l778 1089h-760v147h972z" />
    <glyph glyph-name="bracketleft" unicode="[" horiz-adv-x="646" 
d="M160 1338h426v-123h-281v-1392h281v-123h-426v1638z" />
    <glyph glyph-name="backslash" unicode="\" horiz-adv-x="563" 
d="M373 -249l-380 1587h148l380 -1587h-148z" />
    <glyph glyph-name="bracketright" unicode="]" horiz-adv-x="646" 
d="M486 -300h-426v123h281v1392h-281v123h426v-1638z" />
    <glyph glyph-name="asciicircum" unicode="^" 
d="M199 543h-150l408 820h136l408 -820h-150l-324 662h-4z" />
    <glyph glyph-name="underscore" unicode="_" horiz-adv-x="1000" 
d="M0 -142h1000v-133h-1000v133z" />
    <glyph glyph-name="grave" unicode="`" horiz-adv-x="700" 
d="M376 1473l123 -349h-130l-161 349h168zM0 950z" />
    <glyph glyph-name="a" unicode="a" horiz-adv-x="1003" 
d="M706 105l-4.00195 0.000976562c-12.667 -16 -28.667 -31.833 -48 -47.5s-41.666 -29.667 -66.999 -42s-53 -22.166 -83 -29.499s-62 -11 -96 -11c-46 0 -88.167 6.83301 -126.5 20.5s-71.333 33.667 -99 60s-49.167 58.5 -64.5 96.5s-23 81 -23 129
c0 47.333 8.5 89.666 25.5 126.999s40.833 69 71.5 95s67.5 46 110.5 60s90.5 21 142.5 21c49.333 -0.666992 95 -5 137 -13s79.333 -18 112 -30h4v66c0 26 -1.66699 49 -5 69s-9 37.667 -17 53c-17.333 32 -45 58.5 -83 79.5s-89.333 31.5 -154 31.5
c-48 0 -93.167 -4.5 -135.5 -13.5s-84.5 -21.5 -126.5 -37.5v130c16 8 34.833 15.5 56.5 22.5s44.5 13 68.5 18s49.333 8.83301 76 11.5s53.334 4 80.001 4c96 0 174.5 -17 235.5 -51s104.833 -79 131.5 -135c10 -21.333 17.167 -44.833 21.5 -70.5s6.5 -53.834 6.5 -84.501
v-634h-130zM697.998 417.001c-28.667 8 -62.665 15.6689 -101.998 23.002s-82.666 11.333 -129.999 12c-66 0 -117.667 -14 -155 -42s-56 -71 -56 -129c0 -29.333 4.66699 -55 14 -77s22.166 -40.167 38.499 -54.5s35.666 -25 57.999 -32s46.166 -10.5 71.499 -10.5
c33.333 0 64.333 4.83301 93 14.5s54.167 21.167 76.5 34.5s41.333 26.666 57 39.999s27.167 23.666 34.5 30.999v190z" />
    <glyph glyph-name="b" unicode="b" horiz-adv-x="1097" 
d="M840 479c0 75.333 -8.83496 136.499 -26.502 183.499s-40.334 83.667 -68.001 110s-57.167 44.5 -88.5 54.5s-62.666 15 -93.999 15c-48 0 -93.167 -10 -135.5 -30s-79.833 -46 -112.5 -78v-497c9.33301 -12.667 21.5 -26.5 36.5 -41.5s32.833 -29 53.5 -42
s43.834 -24 69.501 -33s53.834 -13.5 84.501 -13.5c46 0 86.5 9 121.5 27s64.333 43.5 88 76.5s41.5 72.333 53.5 118s18 95.834 18 150.501zM1002 490.999c0 -88.667 -12 -165.333 -36 -230s-55.667 -118.167 -95 -160.5s-84.333 -73.833 -135 -94.5s-103 -31 -157 -31
c-40.667 0 -76.5 5.16699 -107.5 15.5s-57.333 22.666 -79 36.999s-39 28.833 -52 43.5s-22.167 26.334 -27.5 35.001h-3l-33 -106h-117v1448h155v-587h3c34 36 73.667 64 119 84s97 30 155 30c26.667 0 55.5 -3 86.5 -9s61.667 -16.333 92 -31s59.5 -34 87.5 -58
s52.667 -53.833 74 -89.5s38.333 -78 51 -127s19 -105.5 19 -169.5z" />
    <glyph glyph-name="c" unicode="c" horiz-adv-x="898" 
d="M558 975c46 0 90.002 -4.83008 132.002 -14.4971s78 -23.167 108 -40.5v-129c-42 16 -80.667 28 -116 36s-71.333 12 -108 12c-38.667 0 -77 -6.33301 -115 -19s-72 -33.5 -102 -62.5s-54.167 -67.333 -72.5 -115s-27.5 -106.834 -27.5 -177.501
c0 -51.333 6.83301 -98.666 20.5 -141.999s34 -80.833 61 -112.5s60.833 -56.334 101.5 -74.001s87.667 -26.5 141 -26.5c38.667 0 77.667 4.16699 117 12.5s77.666 20.166 114.999 35.499v-129c-11.333 -6.66699 -26.166 -13.334 -44.499 -20.001s-38.5 -12.5 -60.5 -17.5
s-45.333 -9 -70 -12s-49.334 -4.5 -74.001 -4.5c-64 0 -124.5 9.66699 -181.5 29s-106.833 49 -149.5 89s-76.334 90.667 -101.001 152s-37 134 -37 218c0 62.667 6.5 119 19.5 169s30.833 94 53.5 132s49.167 70.333 79.5 97s62.666 48.5 96.999 65.5
s69.833 29.333 106.5 37s72.334 11.5 107.001 11.5z" />
    <glyph glyph-name="d" unicode="d" horiz-adv-x="1097" 
d="M257 465c0 -54.667 6.16602 -104.169 18.499 -148.502s30.166 -82 53.499 -113s52 -54.833 86 -71.5s73 -25 117 -25c32.667 0 62.334 4.33301 89.001 13s50.5 19.667 71.5 33s39 27.5 54 42.5s26.833 28.833 35.5 41.5v497c-32 32.667 -69 58.834 -111 78.501
s-87.333 29.5 -136 29.5c-29.333 0 -60.166 -5.5 -92.499 -16.5s-62.333 -30.833 -90 -59.5s-50.5 -67.167 -68.5 -115.5s-27 -110.166 -27 -185.499zM94.999 462.998c0 66 6.49707 124.5 19.4971 175.5s30.167 95.5 51.5 133.5s46.333 69.833 75 95.5
s58.334 46.5 89.001 62.5s61.834 27.5 93.501 34.5s61.5 10.5 89.5 10.5c58 0 108.333 -9.66699 151 -29s81 -47.666 115 -84.999h3v587h155v-1448h-117l-32 106h-4c-12 -15.333 -26 -30.833 -42 -46.5s-34.833 -29.834 -56.5 -42.501s-46.667 -22.834 -75 -30.501
s-61.166 -11.5 -98.499 -11.5c-52 0 -103 8.83301 -153 26.5s-94.5 46 -133.5 85s-70.5 89.333 -94.5 151s-36 136.834 -36 225.501z" />
    <glyph glyph-name="e" unicode="e" horiz-adv-x="1019" 
d="M522 842c-35.333 0 -68.166 -6.99902 -98.499 -20.999s-56.833 -33 -79.5 -57s-41 -52.167 -55 -84.5s-22.667 -66.833 -26 -103.5h480c0 37.333 -4.83301 72.166 -14.5 104.499s-23.834 60.5 -42.501 84.5s-41.667 42.833 -69 56.5s-59 20.5 -95 20.5zM607 110.001
c51.333 0 98.1689 4.16602 140.502 12.499s84.5 20.166 126.5 35.499v-129c-34 -16.667 -76 -29.834 -126 -39.501s-103.667 -14.5 -161 -14.5c-68 0 -131.833 8.66699 -191.5 26s-111.834 45.333 -156.501 84s-79.834 89.167 -105.501 151.5s-38.5 137.5 -38.5 225.5
c0 86.667 12 161.834 36 225.501s56 116.834 96 159.501s86 74.667 138 96s106.333 32 163 32c53.333 0 103.166 -8.83301 149.499 -26.5s86.5 -45.5 120.5 -83.5s60.833 -87 80.5 -147s29.5 -132 29.5 -216v-20.5c0 -5.66699 -0.333008 -18.5 -1 -38.5h-652
c0 -60.667 9.16699 -112.167 27.5 -154.5s43.333 -76.666 75 -102.999s68.834 -45.5 111.501 -57.5s88.667 -18 138 -18z" />
    <glyph glyph-name="f" unicode="f" horiz-adv-x="651" 
d="M701 1326c-20 4 -41.998 7.00098 -65.998 9.00098s-44.667 3 -62 3c-34.667 0 -65.834 -4.33301 -93.501 -13s-50.834 -22.5 -69.501 -41.5s-33 -44 -43 -75s-15 -68.5 -15 -112.5v-146h283v-133h-283v-817h-155v817h-167v133h167v145c0 68.667 9.16699 126.5 27.5 173.5
s43.5 85.667 75.5 116s69.667 52.666 113 66.999s90 21.5 140 21.5c32 0 61.5 -1.66699 88.5 -5s46.833 -7 59.5 -11v-131z" />
    <glyph glyph-name="g" unicode="g" horiz-adv-x="1087" 
d="M257 469c0 -74.667 8.99805 -135.666 26.998 -182.999s40.833 -84.166 68.5 -110.499s57.834 -44.333 90.501 -54s63.667 -14.5 93 -14.5c48 0 93 9.66699 135 29s79 45.666 111 78.999v497c-8.66699 12 -20.667 25.667 -36 41s-33.166 29.5 -53.499 42.5
s-43.5 24 -69.5 33s-54.333 13.5 -85 13.5c-46 0 -86.5 -9.16699 -121.5 -27.5s-64.333 -43.833 -88 -76.5s-41.5 -71.834 -53.5 -117.501s-18 -96.167 -18 -151.5zM517.998 975.001c41.333 -0.666992 77.334 -6.00391 108.001 -16.0039s57 -22.5 79 -37.5
s39.5 -29.833 52.5 -44.5s21.833 -26.334 26.5 -35.001h4l32 108h117v-1006c0 -73.333 -12 -137.166 -36 -191.499s-57.667 -99.5 -101 -135.5s-95.5 -62.833 -156.5 -80.5s-128.5 -26.5 -202.5 -26.5c-62.667 0 -118.667 5.5 -168 16.5s-88 24.167 -116 39.5v131
c22.667 -9.33301 44.667 -17.166 66 -23.499s43.333 -11.666 66 -15.999s45.834 -7.5 69.501 -9.5s49.834 -3 78.501 -3c111.333 0 196.666 26 255.999 78s89 131.333 89 238v127h-3c-34 -37.333 -73.5 -65.5 -118.5 -84.5s-96.5 -28.5 -154.5 -28.5
c-26.667 0 -55.334 3 -86.001 9s-61.334 16.167 -92.001 30.5s-60 33.333 -88 57s-52.667 53.334 -74 89.001s-38.5 77.834 -51.5 126.501s-19.5 105 -19.5 169c0 88.667 12 165.5 36 230.5s55.667 118.833 95 161.5s84.333 74.5 135 95.5s103 31.5 157 31.5z" />
    <glyph glyph-name="h" unicode="h" horiz-adv-x="1090" 
d="M315 820h3.00098c17.333 22 36.666 42.5 57.999 61.5s45 35.333 71 49s54 24.5 84 32.5s62.333 12 97 12c36 0 72 -4.83301 108 -14.5s69.333 -26.834 100 -51.501s55.667 -59 75 -103s29 -100.667 29 -170v-636h-155v611c0 76.667 -14.5 134.334 -43.5 173.001
s-76.5 58 -142.5 58c-54.667 0 -106.667 -14.833 -156 -44.5s-92 -70.5 -128 -122.5v-675h-155v1448h155v-628z" />
    <glyph glyph-name="i" unicode="i" horiz-adv-x="475" 
d="M160 0v950h155v-950h-155zM156 1171v173h163v-173h-163z" />
    <glyph glyph-name="j" unicode="j" horiz-adv-x="494" 
d="M334 -212c0 -87.333 -24.999 -155.5 -74.999 -204.5s-129.333 -73.5 -238 -73.5c-28.667 0 -56.167 2.16699 -82.5 6.5s-45.833 8.83301 -58.5 13.5v132c20 -5.33301 40 -9.5 60 -12.5s40.667 -4.5 62 -4.5c63.333 0 108.666 13 135.999 39s41 66.667 41 122v1144h155
v-1162zM175.001 1171v173h163v-173h-163z" />
    <glyph glyph-name="k" unicode="k" horiz-adv-x="997" 
d="M765 950h202l-464 -437l463 -513h-193l-456 506h-2v-506h-155v1448h155v-922h2z" />
    <glyph glyph-name="l" unicode="l" horiz-adv-x="475" 
d="M160 0v1448h155v-1448h-155z" />
    <glyph glyph-name="m" unicode="m" horiz-adv-x="1697" 
d="M926 0l-154.999 -0.00195312v611c0 41.333 -4.5 76.5 -13.5 105.5s-22 52.833 -39 71.5s-37.333 32.334 -61 41.001s-50.167 13 -79.5 13c-55.333 0 -105.666 -14.833 -150.999 -44.5s-86 -70.5 -122 -122.5v-675h-155v950h120l30 -132h3
c17.333 22 36.166 42.5 56.499 61.5s43 35.667 68 50s52.5 25.5 82.5 33.5s62.667 12 98 12c70.667 0 129.334 -17 176.001 -51s82.667 -80.333 108 -139h4c42 59.333 90 105.833 144 139.5s117 50.5 189 50.5c33.333 0 68.666 -4.66699 105.999 -14
s71.666 -26.5 102.999 -51.5s57.333 -59.5 78 -103.5s31 -100.667 31 -170v-636h-154v611c0 41.333 -4.5 76.5 -13.5 105.5s-22 52.833 -39 71.5s-37.333 32.334 -61 41.001s-50.167 13 -79.5 13c-55.333 0 -105.833 -14.833 -151.5 -44.5s-86.5 -70.5 -122.5 -122.5v-675z
" />
    <glyph glyph-name="n" unicode="n" horiz-adv-x="1080" 
d="M300 818h3.00098c17.333 22 36.5 42.5 57.5 61.5s44.5 35.667 70.5 50s54.5 25.5 85.5 33.5s64.833 12 101.5 12c43.333 0 84 -6 122 -18s71 -31.333 99 -58s50.167 -61.5 66.5 -104.5s24.5 -95.833 24.5 -158.5v-636h-155v611c0 82 -15.833 141 -47.5 177
s-77.834 54 -138.501 54c-53.333 0 -105 -14.833 -155 -44.5s-93 -70.5 -129 -122.5v-675h-155v950h120z" />
    <glyph glyph-name="o" unicode="o" horiz-adv-x="1092" 
d="M835 474c0 58.667 -7.16699 110.834 -21.5 156.501s-34.333 84.334 -60 116.001s-56.167 55.667 -91.5 72s-74 24.5 -116 24.5s-80.667 -8.16699 -116 -24.5s-65.833 -40.333 -91.5 -72s-45.667 -70.334 -60 -116.001s-21.5 -97.834 -21.5 -156.501
c0 -58 7.16699 -109.833 21.5 -155.5s34.5 -84.167 60.5 -115.5s56.667 -55.166 92 -71.499s74 -24.5 116 -24.5s80.5 8.16699 115.5 24.5s65.333 40.166 91 71.499s45.667 69.833 60 115.5s21.5 97.5 21.5 155.5zM997 474c0 -74.667 -10.668 -142.667 -32.001 -204
s-51.5 -113.833 -90.5 -157.5s-86.167 -77.5 -141.5 -101.5s-117.333 -36 -186 -36c-70.667 0 -133.834 12 -189.501 36s-103 57.833 -142 101.5s-68.833 96.167 -89.5 157.5s-31 129.333 -31 204c0 75.333 10.667 143.666 32 204.999s51.5 114 90.5 158s86.333 78 142 102
s117.834 36 186.501 36c70 0 133 -12 189 -36s103.333 -58 142 -102s68.334 -96.667 89.001 -158s31 -129.666 31 -204.999z" />
    <glyph glyph-name="p" unicode="p" horiz-adv-x="1087" 
d="M830 484c0 55.333 -5.83789 104.998 -17.5049 148.998s-29.167 81.5 -52.5 112.5s-52 54.833 -86 71.5s-73.333 25 -118 25c-32 0 -61.167 -4.33301 -87.5 -13s-50.166 -19.667 -71.499 -33s-39.666 -27.666 -54.999 -42.999s-27.666 -29 -36.999 -41v-497
c32.667 -33.333 69.834 -59.666 111.501 -78.999s86.5 -29 134.5 -29c29.333 0 60.333 5.5 93 16.5s62.834 30.667 90.501 59s50.5 66.833 68.5 115.5s27 110.667 27 186zM991.995 485.998c0 -66 -6.49902 -124.499 -19.499 -175.499s-30.167 -95.5 -51.5 -133.5
s-46.333 -69.833 -75 -95.5s-58.334 -46.334 -89.001 -62.001s-61.834 -27 -93.501 -34s-61.5 -10.5 -89.5 -10.5c-58 0 -108.333 9.5 -151 28.5s-81 47.167 -115 84.5h-3v-553h-155v1415h117l33 -108h3c8.66699 13.333 19.834 26.333 33.501 39s32 26.167 55 40.5
s50.667 26.833 83 37.5s67.5 16 105.5 16c53.333 0 104.833 -9 154.5 -27s93.5 -46.667 131.5 -86s68.5 -89.833 91.5 -151.5s34.5 -136.5 34.5 -224.5z" />
    <glyph glyph-name="q" unicode="q" horiz-adv-x="1072" 
d="M252 469c0 -74.667 8.99805 -135.666 26.998 -182.999s40.833 -84.166 68.5 -110.499s57.834 -44.333 90.501 -54s63.667 -14.5 93 -14.5c48 0 93 9.66699 135 29s79 45.666 111 78.999v497c-8.66699 12 -20.667 25.667 -36 41s-33.166 29.5 -53.499 42.5
s-43.5 24 -69.5 33s-54.333 13.5 -85 13.5c-46 0 -86.5 -9.16699 -121.5 -27.5s-64.333 -43.833 -88 -76.5s-41.5 -71.834 -53.5 -117.501s-18 -96.167 -18 -151.5zM89.998 456.001c0 88.667 12.0039 165.498 36.0039 230.498s55.667 118.833 95 161.5s84.333 74.5 135 95.5
s103 31.5 157 31.5c41.333 -0.666992 77.333 -6 108 -16s56.667 -22.167 78 -36.5s38.166 -28.333 50.499 -42s22.166 -26.5 29.499 -38.5h4l32 108h117v-1415h-155v553h-3c-34 -37.333 -73.5 -65.5 -118.5 -84.5s-96.5 -28.5 -154.5 -28.5c-26.667 0 -55.334 3 -86.001 9
s-61.334 16.167 -92.001 30.5s-60 33.333 -88 57s-52.667 53.334 -74 89.001s-38.5 77.834 -51.5 126.501s-19.5 105 -19.5 169z" />
    <glyph glyph-name="r" unicode="r" horiz-adv-x="686" 
d="M671 824l-11.999 0.000976562c-36.667 0 -72.667 -3.33301 -108 -10s-68.5 -16.834 -99.5 -30.501s-59 -30.5 -84 -50.5s-45.833 -43.667 -62.5 -71v-662h-155v950h120l30 -151h3c15.333 24.667 34.166 47.667 56.499 69s47.5 40 75.5 56s58.667 28.5 92 37.5
s68.333 13.5 105 13.5c6.66699 0 13.5 -0.166992 20.5 -0.5s13.167 -0.833008 18.5 -1.5v-149z" />
    <glyph glyph-name="s" unicode="s" horiz-adv-x="828" 
d="M250 697c0 -26 5.66602 -47.333 16.999 -64s26.5 -30.167 45.5 -40.5s41 -18.833 66 -25.5s50.833 -12.667 77.5 -18c36.667 -8 71.334 -16.833 104.001 -26.5s62.834 -24.167 90.501 -43.5s50 -45.5 67 -78.5s25.5 -75.833 25.5 -128.5c0 -48 -9.33301 -90.5 -28 -127.5
s-45 -68 -79 -93s-74.667 -44 -122 -57s-99.333 -19.5 -156 -19.5c-34.667 0 -66.167 1.83301 -94.5 5.5s-53.333 8.33398 -75 14.001s-40.167 11.5 -55.5 17.5s-28 11.667 -38 17v130c40 -16 79.667 -28.667 119 -38s82.666 -14 129.999 -14c37.333 0 71 3.33301 101 10
s55.833 16.5 77.5 29.5s38.334 29.333 50.001 49s17.5 42.5 17.5 68.5c0 26.667 -5.33301 48.667 -16 66s-25 31.666 -43 42.999s-38.833 20.666 -62.5 27.999s-48.5 14 -74.5 20c-34 7.33301 -68.5 16 -103.5 26s-66.833 24 -95.5 42s-51.834 42.5 -69.501 73.5
s-26.5 70.833 -26.5 119.5c0 50 9 93.333 27 130s42.333 67 73 91s66.334 42 107.001 54s83.667 18 129 18c52.667 0 101.5 -5 146.5 -15s85.833 -22.667 122.5 -38v-132c-40 15.333 -80.5 27.833 -121.5 37.5s-83.167 14.834 -126.5 15.501c-36.667 0 -68 -3.66699 -94 -11
s-47.333 -17.5 -64 -30.5s-28.834 -28.333 -36.501 -46s-11.5 -37.167 -11.5 -58.5z" />
    <glyph glyph-name="t" unicode="t" horiz-adv-x="711" 
d="M651 -2c-13.333 -5.33301 -33.667 -10.3291 -61 -14.9961s-60 -7.33398 -98 -8.00098c-50 0 -93.333 6.16699 -130 18.5s-67.167 30 -91.5 53s-42.5 50.833 -54.5 83.5s-18 69 -18 109v578h-183v133h183v260h155v-260h284v-133h-284v-554c0 -22 3.16699 -42.333 9.5 -61
s16.333 -34.834 30 -48.501s31.167 -24.334 52.5 -32.001s47 -11.5 77 -11.5c20.667 0 42.5 1.66699 65.5 5s44.167 7.66602 63.5 12.999v-130z" />
    <glyph glyph-name="u" unicode="u" horiz-adv-x="1060" 
d="M527 -25c-49.333 0 -93.667 5.33398 -133 16.001s-73.833 25.667 -103.5 45s-54.834 42.5 -75.501 69.5s-37 56.5 -49 88.5c-9.33301 24 -16 50.333 -20 79s-6 60 -6 94v583h155v-582c0 -52.667 7 -96.667 21 -132c16 -40 41.833 -71.5 77.5 -94.5
s81.167 -34.5 136.5 -34.5c58.667 0 105.834 12.667 141.501 38s61.167 59.333 76.5 102c11.333 32.667 17 73 17 121v582h155v-584c0 -32 -1.83301 -61.833 -5.5 -89.5s-9.5 -53.167 -17.5 -76.5c-12 -32.667 -28.5 -62.834 -49.5 -90.501s-46.833 -51.5 -77.5 -71.5
s-66.167 -35.5 -106.5 -46.5s-85.833 -16.5 -136.5 -16.5z" />
    <glyph glyph-name="v" unicode="v" horiz-adv-x="946" 
d="M474 157c22.667 69.333 53.333 157.667 92 265l188 528h162l-362 -950h-162l-362 950h160l188 -528c37.333 -104 68 -192.333 92 -265h4z" />
    <glyph glyph-name="w" unicode="w" horiz-adv-x="1458" 
d="M726 793c-20.667 -87.333 -40.001 -162.666 -58.001 -225.999l-156 -567h-159l-313 950h157l176 -592c23.333 -78 41 -140.333 53 -187h4c10.667 48 28.334 117.333 53.001 208l159 571h174l159 -571c21.333 -77.333 39 -146.666 53 -207.999h4
c16 61.333 33.667 123.666 53 186.999l176 592h157l-313 -950h-161l-156 567c-18.667 67.333 -38 142.666 -58 225.999h-4z" />
    <glyph glyph-name="x" unicode="x" horiz-adv-x="932" 
d="M470 584l258 366h171l-347 -470l360 -480h-168l-278 380h-4l-274 -380h-168l360 484l-347 466h171l262 -366h4z" />
    <glyph glyph-name="y" unicode="y" horiz-adv-x="982" 
d="M30 950h159l295 -745h6l299 745h163l-593 -1415h-154l203 484z" />
    <glyph glyph-name="z" unicode="z" horiz-adv-x="910" 
d="M608 813v4h-522v133h719v-98l-528 -715v-4h563v-133h-770v84z" />
    <glyph glyph-name="braceleft" unicode="{" horiz-adv-x="615" 
d="M120 580c20 0 40.333 1.16602 61 3.49902s39.167 8 55.5 17s29.833 22.5 40.5 40.5s16 42.667 16 74c0 36 -6 69.167 -18 99.5s-26 59.5 -42 87.5c-15.333 27.333 -29 55.333 -41 84s-18 60.334 -18 95.001c0 24.667 4.66699 52 14 82s26.833 58 52.5 84
s61.5 47.667 107.5 65s105.333 26 178 26h34v-123h-12c-73.333 0 -128 -12 -164 -36s-54 -57.667 -54 -101c0 -28.667 4.83301 -55.167 14.5 -79.5s21.167 -48.833 34.5 -73.5c14 -25.333 26.167 -52.833 36.5 -82.5s15.5 -64.167 15.5 -103.5
c0 -36 -5.33301 -67.333 -16 -94s-23.334 -48.667 -38.001 -66s-29.834 -30.833 -45.501 -40.5s-28.167 -15.5 -37.5 -17.5v-4c9.33301 -2 21.833 -7.83301 37.5 -17.5s30.834 -23.167 45.501 -40.5s27.334 -39.333 38.001 -66s16 -58 16 -94
c0 -37.333 -4.5 -69.5 -13.5 -96.5s-19.5 -52.167 -31.5 -75.5c-14 -26.667 -26.833 -53.334 -38.5 -80.001s-17.5 -55.667 -17.5 -87c0 -43.333 18.167 -77 54.5 -101s90.833 -36 163.5 -36h12v-123h-34c-72.667 0 -132 8.66699 -178 26s-81.833 39 -107.5 65
s-43.167 53.833 -52.5 83.5s-14 56.5 -14 80.5c0 21.333 2 40.833 6 58.5s9.33301 34.334 16 50.001s14 31 22 46l25 45.5c14 24.667 25.833 50.667 35.5 78s14.5 57.333 14.5 90c0 31.333 -5.33301 56 -16 74s-24.167 31.5 -40.5 40.5s-34.833 14.667 -55.5 17
s-41 3.5 -61 3.5v122z" />
    <glyph glyph-name="bar" unicode="|" horiz-adv-x="465" 
d="M305 -465h-145v1913h145v-1913z" />
    <glyph glyph-name="braceright" unicode="}" horiz-adv-x="615" 
d="M495 458c-20 0 -40.333 -1.16602 -61 -3.49902s-39.167 -8 -55.5 -17s-29.833 -22.5 -40.5 -40.5s-16 -42.667 -16 -74c0 -32.667 4.83301 -62.667 14.5 -90s21.5 -53.333 35.5 -78l25 -45.5c8 -15 15.333 -30.333 22 -46s12 -32.334 16 -50.001s6 -37.167 6 -58.5
c0 -24 -4.66699 -50.833 -14 -80.5s-26.833 -57.5 -52.5 -83.5s-61.5 -47.667 -107.5 -65s-105.333 -26 -178 -26h-34v123h12c72.667 0 127.167 12 163.5 36s54.5 57.667 54.5 101c0 31.333 -5.83301 60.333 -17.5 87s-24.5 53.334 -38.5 80.001
c-12 23.333 -22.5 48.5 -31.5 75.5s-13.5 59.167 -13.5 96.5c0 36 5.33301 67.333 16 94s23.334 48.667 38.001 66s29.834 30.833 45.501 40.5s28.167 15.5 37.5 17.5v4c-9.33301 2 -21.833 7.83301 -37.5 17.5s-30.834 23.167 -45.501 40.5s-27.334 39.333 -38.001 66
s-16 58 -16 94c0 39.333 5.16699 73.833 15.5 103.5s22.5 57.167 36.5 82.5c13.333 24.667 24.833 49.167 34.5 73.5s14.5 50.833 14.5 79.5c0 43.333 -18 77 -54 101s-90.667 36 -164 36h-12v123h34c72.667 0 132 -8.66699 178 -26s81.833 -39 107.5 -65
s43.167 -54 52.5 -84s14 -57.333 14 -82c0 -34.667 -6 -66.334 -18 -95.001s-25.667 -56.667 -41 -84c-16 -28 -30 -57.167 -42 -87.5s-18 -63.5 -18 -99.5c0 -31.333 5.33301 -56 16 -74s24.167 -31.5 40.5 -40.5s34.833 -14.667 55.5 -17s41 -3.5 61 -3.5v-122z" />
    <glyph glyph-name="asciitilde" unicode="~" 
d="M939 491c-10 -22 -23.0029 -42.165 -39.0029 -60.498s-34.167 -34.333 -54.5 -48s-42.833 -24.334 -67.5 -32.001s-51 -11.5 -79 -11.5c-28.667 0 -57.667 4.16699 -87 12.5s-57.666 18.166 -84.999 29.499l-95.5 38c-30.333 12 -59.833 18 -88.5 18
c-33.333 0 -61 -8.16699 -83 -24.5s-41.667 -38.5 -59 -66.5l-102 73c10 22 23 42.167 39 60.5s34.167 34.333 54.5 48s42.833 24.334 67.5 32.001s51 11.5 79 11.5c32.667 0 65.667 -5.33301 99 -16s65.333 -22.334 96 -35.001c28.667 -12 56.667 -22.833 84 -32.5
s53 -14.5 77 -14.5c32.667 0 60.334 8.16699 83.001 24.5s42.334 38.5 59.001 66.5z" />
    <glyph glyph-name="exclamdown" unicode="&#xa1;" horiz-adv-x="541" 
d="M366 950v-195h-191v195h191zM336 519l24 -907h-179l24 907h131z" />
    <glyph glyph-name="cent" unicode="&#xa2;" 
d="M562 128c-130.667 14.667 -231.333 60.5 -302 137.5s-106 187.5 -106 331.5c0 70.667 9.5 134.5 28.5 191.5s46.167 106.5 81.5 148.5s78.166 76 128.499 102s106.833 43.333 169.5 52v163h132v-157c38.667 -1.33301 75.834 -5.5 111.501 -12.5
s64.167 -15.167 85.5 -24.5v-135c-29.333 9.33301 -60.833 17.5 -94.5 24.5s-67.834 11.167 -102.501 12.5v-701c33.333 0.666992 69 4 107 10s71.333 14.333 100 25v-136c-27.333 -10 -59.166 -18.333 -95.499 -25s-73.5 -10.667 -111.5 -12v-148h-132v153zM311.001 601
c0 -52.667 5.66699 -98.1641 17 -136.497s27.833 -70.833 49.5 -97.5s48 -47.834 79 -63.501s66.167 -26.834 105.5 -33.501v681c-36.667 -8.66699 -70.5 -22 -101.5 -40s-57.5 -41.333 -79.5 -70s-39.167 -62.834 -51.5 -102.501s-18.5 -85.5 -18.5 -137.5z" />
    <glyph glyph-name="sterling" unicode="&#xa3;" 
d="M198 612l127.997 -0.000976562l12 91c7.33301 60.667 19.833 113.167 37.5 157.5s41 82 70 113s64.333 54.833 106 71.5s89.834 25 144.501 25c22 0 43.833 -1.16699 65.5 -3.5s42.334 -5.66602 62.001 -9.99902s38 -9.5 55 -15.5s31.833 -12.333 44.5 -19v-134
c-30.667 13.333 -65 24.5 -103 33.5s-76 13.5 -114 13.5c-36 0 -66.333 -5 -91 -15s-45.167 -25.667 -61.5 -47s-29.166 -48.833 -38.499 -82.5s-17 -74.167 -23 -121.5l-7 -57h318v-137h-335l-41 -332h529v-143h-837v143h149l41 332h-111v137z" />
    <glyph glyph-name="currency" unicode="&#xa4;" 
d="M319 959c29.333 20.667 61.3311 36.8359 95.998 48.5029s71.334 17.5 110.001 17.5s75.334 -5.66699 110.001 -17s66.667 -27.333 96 -48l138 138l85 -85l-138 -138c20.667 -29.333 36.667 -61.333 48 -96s17 -71.334 17 -110.001s-5.83301 -75.334 -17.5 -110.001
s-27.834 -66.667 -48.501 -96l140 -139l-85 -85l-140 139c-29.333 -20.667 -61.333 -36.5 -96 -47.5s-71 -16.5 -109 -16.5c-38.667 0 -75.167 5.66699 -109.5 17s-66.166 27.333 -95.499 48l-140 -140l-85 85l140 140c-20.667 29.333 -36.667 61.166 -48 95.499
s-17 70.833 -17 109.5c0 38 5.5 74.333 16.5 109s26.833 66.667 47.5 96l-138 139l85 85zM306.998 669.002c0 -31.333 5.5 -60.666 16.5 -87.999s26.167 -51 45.5 -71s42.333 -35.833 69 -47.5s55.667 -17.5 87 -17.5s60.5 5.83301 87.5 17.5s50.167 27.5 69.5 47.5
s34.5 43.667 45.5 71s16.5 56.666 16.5 87.999s-5.5 60.666 -16.5 87.999s-26.167 51.166 -45.5 71.499s-42.5 36.333 -69.5 48s-56.167 17.5 -87.5 17.5s-60.333 -5.83301 -87 -17.5s-49.667 -27.667 -69 -48s-34.5 -44.166 -45.5 -71.499s-16.5 -56.666 -16.5 -87.999z
" />
    <glyph glyph-name="yen" unicode="&#xa5;" 
d="M527 546l272 499h168l-303 -533h201v-133h-262v-142h262v-133h-262v-130h-157v130h-262v133h262v142h-262v133h200l-302 533h168l272 -499h5z" />
    <glyph glyph-name="brokenbar" unicode="&#xa6;" horiz-adv-x="465" 
d="M305 720h-145v728h145v-728zM305 -465h-145v696h145v-696z" />
    <glyph glyph-name="section" unicode="&#xa7;" horiz-adv-x="873" 
d="M249 1101c-9.33301 -33.333 -16.1641 -65.334 -20.4971 -96.001s-6.5 -61 -6.5 -91c0 -46.667 4.66699 -91.834 14 -135.501s21.666 -86 36.999 -127s33.166 -81 53.499 -120s41.5 -77.5 63.5 -115.5l82.5 -140.5c27.667 -46.333 52.167 -92.666 73.5 -138.999
s37.833 -91.666 49.5 -135.999s17.5 -87.833 17.5 -130.5c0 -5.33301 -0.333008 -12.333 -1 -21h12c9.33301 30.667 16.166 62 20.499 94s6.5 63 6.5 93c0 46 -4.5 90.5 -13.5 133.5s-21 84.667 -36 125s-32.5 79.833 -52.5 118.5s-40.667 76.667 -62 114l-83.5 142.5
c-27.667 47 -52.5 94 -74.5 141s-39 92.667 -51 137s-18 87.5 -18 129.5c0 8 0.333008 16 1 24h-12zM361.002 1086c0 -30 7.33008 -62.1689 21.9971 -96.502s33.5 -71 56.5 -110s48.833 -80.167 77.5 -123.5s57 -89 85 -137c22 -38 43.167 -77.667 63.5 -119
s38.333 -84.166 54 -128.499s28 -90.666 37 -138.999s13.5 -98.5 13.5 -150.5c0 -97.333 -12.167 -178 -36.5 -242s-56 -114.667 -95 -152s-83 -63.5 -132 -78.5s-98.167 -22.5 -147.5 -22.5c-53.333 0 -100.833 5 -142.5 15s-80.5 22.667 -116.5 38v132
c39.333 -15.333 79 -28 119 -38s81 -15 123 -15c55.333 0 97.5 11.667 126.5 35s43.5 60 43.5 110c0 31.333 -7.66699 64.666 -23 99.999s-35 72.833 -59 112.5l-80.5 127c-29.667 45 -58.834 92.5 -87.501 142.5c-21.333 37.333 -41.666 76 -60.999 116
s-36.166 81.833 -50.499 125.5s-25.833 88.834 -34.5 135.501s-13 95 -13 145c0 97.333 12.333 178 37 242s56.334 114.667 95.001 152s81.834 63.5 129.501 78.5s94.167 22.5 139.5 22.5c52.667 0 101.5 -5 146.5 -15s85.833 -22.667 122.5 -38v-132
c-40 15.333 -80.5 28 -121.5 38s-83.167 15 -126.5 15c-56.667 0 -98.167 -13 -124.5 -39s-39.5 -61.333 -39.5 -106z" />
    <glyph glyph-name="dieresis" unicode="&#xa8;" horiz-adv-x="700" 
d="M80 1171v167h159v-167h-159zM461 1171v167h159v-167h-159zM0 950z" />
    <glyph glyph-name="copyright" unicode="&#xa9;" horiz-adv-x="1686" 
d="M150 669c0 100 17.5 192.333 52.5 277s83.5 157.834 145.5 219.501s135.333 110 220 145s176.334 52.5 275.001 52.5s190.334 -17.5 275.001 -52.5s158 -83.333 220 -145s110.5 -134.834 145.5 -219.501s52.5 -177 52.5 -277s-17.5 -192.333 -52.5 -277
s-83.5 -157.834 -145.5 -219.501s-135.333 -110 -220 -145s-176.334 -52.5 -275.001 -52.5s-190.334 17.5 -275.001 52.5s-158 83.333 -220 145s-110.5 134.834 -145.5 219.501s-52.5 177 -52.5 277zM883 938c-36.667 0 -70.8359 -5.66602 -102.503 -16.999
s-59.167 -28.333 -82.5 -51s-41.5 -51.334 -54.5 -86.001s-19.5 -75 -19.5 -121s6 -85.667 18 -119s29.333 -60.5 52 -81.5s50.334 -36.5 83.001 -46.5s69.334 -15 110.001 -15c24 0 51 2.5 81 7.5s56 11.5 78 19.5v-126c-22 -8 -48.5 -14.333 -79.5 -19s-62.5 -7 -94.5 -7
c-58.667 0 -112 8.5 -160 25.5s-89.167 41.667 -123.5 74s-60.833 72.333 -79.5 120s-28 102.5 -28 164.5c0 60.667 9.83301 115.834 29.5 165.501s46.834 92.167 81.501 127.5s76 62.666 124 81.999s100 29 156 29c32 0 63.333 -2.5 94 -7.5s55 -11.833 73 -20.5v-125
c-22.667 8 -47.5 14.5 -74.5 19.5s-54.167 7.5 -81.5 7.5zM281.998 669.001c0 -78 13.667 -151.667 41 -221s65.666 -129.666 114.999 -180.999s108.333 -92 177 -122s144.667 -45 228 -45s159.333 15 228 45s127.667 70.667 177 122s87.666 111.666 114.999 180.999
s41 143 41 221s-13.667 151.667 -41 221s-65.666 129.666 -114.999 180.999s-108.333 92 -177 122s-144.667 45 -228 45s-159.333 -15 -228 -45s-127.667 -70.667 -177 -122s-87.666 -111.666 -114.999 -180.999s-41 -143 -41 -221z" />
    <glyph glyph-name="ordfeminine" unicode="&#xaa;" horiz-adv-x="777" 
d="M531 596l-3.99902 -0.00292969c-10 -12.667 -22.167 -25 -36.5 -37s-30.5 -22.833 -48.5 -32.5s-38.167 -17.5 -60.5 -23.5s-45.833 -9 -70.5 -9c-34 0 -65.333 5.16699 -94 15.5s-53.5 25.333 -74.5 45s-37.5 43.334 -49.5 71.001s-18 58.834 -18 93.501
c0 35.333 6.5 67.5 19.5 96.5s31.167 53.833 54.5 74.5s51.166 36.667 83.499 48s67.5 17 105.5 17c34.667 0 67.667 -2.83301 99 -8.5s59.333 -12.5 84 -20.5h4v50c0.666992 44.667 -13.666 80.334 -42.999 107.001s-76 40 -140 40c-34.667 0 -69.5 -3.5 -104.5 -10.5
s-68.5 -16.5 -100.5 -28.5v118c26 12 58.833 22 98.5 30s80.5 12 122.5 12c97.333 0 173.166 -22.5 227.499 -67.5s81.5 -108.833 81.5 -191.5v-472h-125zM525.001 809.997c-23.333 6.66699 -49.834 12.334 -79.501 17.001s-59.5 7 -89.5 7
c-19.333 0 -37.5 -2.16699 -54.5 -6.5s-31.667 -11.333 -44 -21s-22.166 -21.834 -29.499 -36.501s-11 -32 -11 -52c0 -32 10.667 -57.167 32 -75.5s49 -27.5 83 -27.5c38 0 73.167 7.83301 105.5 23.5s61.5 35.167 87.5 58.5v113z" />
    <glyph glyph-name="guillemotleft" unicode="&#xab;" horiz-adv-x="997" 
d="M110 474l293 376h151l-259 -376l259 -376h-151zM507 474l265 376h145l-225 -376l225 -376h-145z" />
    <glyph glyph-name="logicalnot" unicode="&#xac;" 
d="M115 455v132h820v-495h-140v363h-680z" />
    <glyph glyph-name="registered" unicode="&#xae;" horiz-adv-x="1270" 
d="M150 879c0 70 12.5 134.5 37.5 193.5s59.167 110 102.5 153s94.666 76.667 153.999 101s123 36.5 191 36.5s131.667 -12.167 191 -36.5s110.666 -58 153.999 -101s77.5 -94 102.5 -153s37.5 -123.5 37.5 -193.5s-12.5 -134.5 -37.5 -193.5s-59.167 -110 -102.5 -153
s-94.666 -76.667 -153.999 -101s-123 -36.5 -191 -36.5s-131.667 12.167 -191 36.5s-110.666 58 -153.999 101s-77.5 94 -102.5 153s-37.5 123.5 -37.5 193.5zM255 879c0 -54 9 -104.833 27 -152.5s43.667 -89 77 -124s73.333 -62.667 120 -83s98.667 -30.5 156 -30.5
s109.333 10.167 156 30.5s86.667 48 120 83s59 76.333 77 124s27 98.5 27 152.5s-9 104.833 -27 152.5s-43.667 89 -77 124s-73.333 62.667 -120 83s-98.667 30.5 -156 30.5s-109.333 -10.167 -156 -30.5s-86.667 -48 -120 -83s-59 -76.333 -77 -124s-27 -98.5 -27 -152.5z
M706 835l136 -201.001h-114l-121 190h-51v-190h-99v496h171c26 0 51.167 -2.5 75.5 -7.5s45.833 -13.5 64.5 -25.5s33.667 -27.5 45 -46.5s17 -42.5 17 -70.5c0 -40 -11.167 -71.667 -33.5 -95s-52.5 -38.666 -90.5 -45.999v-4zM556 1045v-136h55
c38.667 0 67.5 5.5 86.5 16.5s28.5 29.167 28.5 54.5c0 19.333 -6.5 35 -19.5 47s-36.167 18 -69.5 18h-81z" />
    <glyph glyph-name="macron" unicode="&#xaf;" horiz-adv-x="700" 
d="M80 1300h540v-129h-540v129zM0 950z" />
    <glyph glyph-name="macron" unicode="&#x2c9;" horiz-adv-x="700" 
d="M80 1300h540v-129h-540v129zM0 950z" />
    <glyph glyph-name="degree" unicode="&#xb0;" horiz-adv-x="836" 
d="M80 1027c0 48 8.66699 92.5 26 133.5s41.166 76.5 71.499 106.5s66 53.5 107 70.5s85.5 25.5 133.5 25.5s92.5 -8.5 133.5 -25.5s76.667 -40.5 107 -70.5s54.166 -65.5 71.499 -106.5s26 -85.5 26 -133.5s-8.66699 -92.5 -26 -133.5s-41.166 -76.5 -71.499 -106.5
s-66 -53.5 -107 -70.5s-85.5 -25.5 -133.5 -25.5s-92.5 8.5 -133.5 25.5s-76.667 40.5 -107 70.5s-54.166 65.5 -71.499 106.5s-26 85.5 -26 133.5zM228 1027c0 -28 4.66699 -53.833 14 -77.5s22.5 -44.334 39.5 -62.001s37 -31.5 60 -41.5s48.5 -15 76.5 -15
s53.667 5 77 15s43.5 23.833 60.5 41.5s30.167 38.334 39.5 62.001s14 49.5 14 77.5s-4.66699 54 -14 78s-22.5 44.833 -39.5 62.5s-37.167 31.5 -60.5 41.5s-49 15 -77 15s-53.5 -5 -76.5 -15s-43 -23.833 -60 -41.5s-30.167 -38.5 -39.5 -62.5s-14 -50 -14 -78z" />
    <glyph glyph-name="plusminus" unicode="&#xb1;" 
d="M115 665h340v285h140v-285h340v-132h-340v-285h-140v285h-340v132zM115 0v132h820v-132h-820z" />
    <glyph glyph-name="uni00B2" unicode="&#xb2;" horiz-adv-x="641" 
d="M50 602l157.499 178.998c45 51.333 82.333 97.166 112 137.499s51.834 76.833 66.501 109.5s22 64.334 22 95.001c0 20.667 -3.66699 38.5 -11 53.5s-17.5 27.333 -30.5 37s-28.167 16.834 -45.5 21.501s-36.333 7 -57 7c-34 0 -67.5 -4.66699 -100.5 -14
s-66.5 -21.666 -100.5 -36.999v121c24 12.667 55 24.167 93 34.5s79.333 15.833 124 16.5c46 0 85.833 -5.66699 119.5 -17s61.667 -27.166 84 -47.499s39 -44.333 50 -72s16.5 -57.834 16.5 -90.501c0 -36.667 -5.83301 -72.167 -17.5 -106.5s-30.5 -70.833 -56.5 -109.5
s-59.333 -81.5 -100 -128.5l-148 -163.5v-4c52 4 96.333 6 133 6h220v-117h-531v89z" />
    <glyph glyph-name="uni00B3" unicode="&#xb3;" horiz-adv-x="606" 
d="M229 494c-32 0 -65.666 3.16797 -100.999 9.50098s-64.666 15.5 -87.999 27.5v119c27.333 -12.667 57.333 -21.667 90 -27s63.667 -8 93 -8c32.667 0 61 3.5 85 10.5s43.5 16.833 58.5 29.5s25.833 27.667 32.5 45s10 36 10 56c0 42 -17 73.667 -51 95
s-82.667 32 -146 32h-66v117h51c66 0 114.333 11.333 145 34s46 55.334 46 98.001c0 20 -4 37 -12 51s-19 25.333 -33 34s-30.167 15 -48.5 19s-37.833 6 -58.5 6c-32 0 -63.5 -3.33301 -94.5 -10s-60.5 -15.667 -88.5 -27v121c23.333 10 52.5 18.667 87.5 26
s70.833 11 107.5 11c44 0 83.5 -5.33301 118.5 -16s64.667 -25.667 89 -45s42.833 -42.5 55.5 -69.5s19 -56.5 19 -88.5c0 -21.333 -2.66699 -42 -8 -62s-13.5 -38.5 -24.5 -55.5s-25.333 -32.167 -43 -45.5s-38.834 -24 -63.501 -32v-4
c20.667 -2.66699 40.667 -8.33398 60 -17.001s36.333 -21 51 -37s26.5 -35.833 35.5 -59.5s13.5 -51.5 13.5 -83.5c0 -40 -7.83301 -75.667 -23.5 -107s-37.834 -57.833 -66.501 -79.5s-63 -38.334 -103 -50.001s-83 -17.5 -129 -17.5z" />
    <glyph glyph-name="acute" unicode="&#xb4;" horiz-adv-x="700" 
d="M506 1473l-161 -349h-130l123 349h168zM0 950z" />
    <glyph glyph-name="uni00B5" unicode="&#xb5;" horiz-adv-x="1180" 
d="M846 144c-34.667 -62.667 -78.666 -106.501 -131.999 -131.501s-113.333 -37.5 -180 -37.5c-48 0 -91.333 8.66699 -130 26s-68.667 41 -90 71h-4l4 -362l1 -175h-155v1415h155v-589c0 -44 5.16699 -81.833 15.5 -113.5s25.166 -57.5 44.499 -77.5
s42.833 -34.833 70.5 -44.5s58.834 -14.5 93.501 -14.5c44 0 83.667 7 119 21s65.5 35.167 90.5 63.5s44.167 64 57.5 107s20 93.5 20 151.5v496h155v-638c0 -40 2 -73 6 -99s10 -46.5 18 -61.5s18.167 -25.5 30.5 -31.5s26.833 -9 43.5 -9c4 0 10.833 0.5 20.5 1.5
s18.167 2.5 25.5 4.5v-123c-11.333 -2.66699 -24.333 -4.83398 -39 -6.50098s-27.667 -2.5 -39 -2.5c-30.667 0 -57.167 3.83301 -79.5 11.5s-41.333 18.334 -57 32.001s-28.334 30.334 -38.001 50.001s-17.167 41.5 -22.5 65.5h-4z" />
    <glyph glyph-name="paragraph" unicode="&#xb6;" horiz-adv-x="1184" 
d="M498 -387l-0.00195312 708.001c-60.667 12 -115.667 32.667 -165 62s-91.666 65.666 -126.999 108.999s-62.666 93 -81.999 149s-29 117 -29 183c0 76 12.833 145.5 38.5 208.5s61.667 117.167 108 162.5s101.5 80.5 165.5 105.5s136.333 37.5 217 37.5h390v-1725h-155
v1588h-206v-1588h-155z" />
    <glyph glyph-name="periodcentered" unicode="&#xb7;" horiz-adv-x="541" 
d="M175 394v195h191v-195h-191z" />
    <glyph glyph-name="periodcentered" unicode="&#x2219;" horiz-adv-x="541" 
d="M175 394v195h191v-195h-191z" />
    <glyph glyph-name="cedilla" unicode="&#xb8;" horiz-adv-x="700" 
d="M294 0h122.002l-35 -126c26.667 -4 51.167 -10.167 73.5 -18.5s41.5 -19.166 57.5 -32.499s28.333 -29.5 37 -48.5s13 -40.833 13 -65.5c0 -34.667 -7.66699 -64.5 -23 -89.5s-35.833 -45.667 -61.5 -62s-55.167 -28.333 -88.5 -36s-68 -11.5 -104 -11.5
c-28.667 0 -54.5 1.83301 -77.5 5.5s-41.5 8.16699 -55.5 13.5v113c13.333 -4 30.166 -7.66699 50.499 -11s43.166 -5.33301 68.499 -6c19.333 0 38 1.16699 56 3.5s34.5 6.66602 49.5 12.999s27 14.833 36 25.5s13.5 23.667 13.5 39c0 14 -4.66699 25.833 -14 35.5
s-22.5 17.5 -39.5 23.5s-37.667 10.5 -62 13.5s-51.5 5.16699 -81.5 6.5z" />
    <glyph glyph-name="uni00B9" unicode="&#xb9;" horiz-adv-x="631" 
d="M278 630v583l-223 -75v127l236 86h129v-721h171v-117h-518v117h205z" />
    <glyph glyph-name="ordmasculine" unicode="&#xba;" horiz-adv-x="838" 
d="M621 869c0 42.667 -4.83301 79.834 -14.5 111.501s-23.5 58 -41.5 79s-39.333 36.833 -64 47.5s-52 16 -82 16c-61.333 0 -110.333 -21.333 -147 -64s-55 -106 -55 -190c0 -42.667 4.83301 -79.834 14.5 -111.501s23.5 -58 41.5 -79s39.5 -36.833 64.5 -47.5
s52.5 -16 82.5 -16c60 0 108.5 21.167 145.5 63.5s55.5 105.833 55.5 190.5zM763 869c0 -55.333 -8.5 -106 -25.5 -152s-40.833 -85.5 -71.5 -118.5s-66.834 -58.667 -108.501 -77s-87.5 -27.5 -137.5 -27.5c-51.333 0 -98.166 9.16699 -140.499 27.5
s-78.666 44 -108.999 77s-53.833 72.5 -70.5 118.5s-25 96.667 -25 152s8.5 106 25.5 152s40.833 85.5 71.5 118.5s67 58.667 109 77s88 27.5 138 27.5c51.333 0 98.166 -9.16699 140.499 -27.5s78.5 -44 108.5 -77s53.333 -72.5 70 -118.5s25 -96.667 25 -152z" />
    <glyph glyph-name="guillemotright" unicode="&#xbb;" horiz-adv-x="997" 
d="M594 98h-151l259 376l-259 376h151l293 -376zM225 98h-145l225 376l-225 376h145l265 -376z" />
    <glyph glyph-name="onequarter" unicode="&#xbc;" horiz-adv-x="1670" 
d="M278 630v583l-223 -75v127l236 86h129v-721h171v-117h-518v117h205zM1185 310v-4l91 6h106v192h142v-192h96v-117h-96v-187h-142v187h-346v98l230 540h143zM1370 1363l101 -78l-977 -1310l-101 78z" />
    <glyph glyph-name="onehalf" unicode="&#xbd;" horiz-adv-x="1776" 
d="M278 630v583l-223 -75v127l236 86h129v-721h171v-117h-518v117h205zM1370 1363l101 -78l-977 -1310l-101 78zM1195 97l157.499 178.998c45 51.333 82.333 97.166 112 137.499s51.834 76.833 66.501 109.5s22 64.334 22 95.001c0 20.667 -3.66699 38.5 -11 53.5
s-17.5 27.333 -30.5 37s-28.167 16.834 -45.5 21.501s-36.333 7 -57 7c-34 0 -67.5 -4.66699 -100.5 -14s-66.5 -21.666 -100.5 -36.999v121c24 12.667 55 24.167 93 34.5s79.333 15.833 124 16.5c46 0 85.833 -5.66699 119.5 -17s61.667 -27.166 84 -47.499
s39 -44.333 50 -72s16.5 -57.834 16.5 -90.501c0 -36.667 -5.83301 -72.167 -17.5 -106.5s-30.5 -70.833 -56.5 -109.5s-59.333 -81.5 -100 -128.5l-148 -163.5v-4c52 4 96.333 6 133 6h220v-117h-531v89z" />
    <glyph glyph-name="threequarters" unicode="&#xbe;" horiz-adv-x="1592" 
d="M1107 310v-4l91 6h106v192h142v-192h96v-117h-96v-187h-142v187h-346v98l230 540h143zM1275 1363l101 -78l-977 -1310l-101 78zM229 494c-32 0 -65.666 3.16797 -100.999 9.50098s-64.666 15.5 -87.999 27.5v119c27.333 -12.667 57.333 -21.667 90 -27s63.667 -8 93 -8
c32.667 0 61 3.5 85 10.5s43.5 16.833 58.5 29.5s25.833 27.667 32.5 45s10 36 10 56c0 42 -17 73.667 -51 95s-82.667 32 -146 32h-66v117h51c66 0 114.333 11.333 145 34s46 55.334 46 98.001c0 20 -4 37 -12 51s-19 25.333 -33 34s-30.167 15 -48.5 19s-37.833 6 -58.5 6
c-32 0 -63.5 -3.33301 -94.5 -10s-60.5 -15.667 -88.5 -27v121c23.333 10 52.5 18.667 87.5 26s70.833 11 107.5 11c44 0 83.5 -5.33301 118.5 -16s64.667 -25.667 89 -45s42.833 -42.5 55.5 -69.5s19 -56.5 19 -88.5c0 -21.333 -2.66699 -42 -8 -62
s-13.5 -38.5 -24.5 -55.5s-25.333 -32.167 -43 -45.5s-38.834 -24 -63.501 -32v-4c20.667 -2.66699 40.667 -8.33398 60 -17.001s36.333 -21 51 -37s26.5 -35.833 35.5 -59.5s13.5 -51.5 13.5 -83.5c0 -40 -7.83301 -75.667 -23.5 -107s-37.834 -57.833 -66.501 -79.5
s-63 -38.334 -103 -50.001s-83 -17.5 -129 -17.5z" />
    <glyph glyph-name="questiondown" unicode="&#xbf;" horiz-adv-x="873" 
d="M650 950v-195h-191v195h191zM101 -99c0 37.333 5.5 71.166 16.5 101.499s25.5 57.5 43.5 81.5s38.5 45.833 61.5 65.5l70.5 57.5l70.5 57c23 19.333 43.667 40.666 62 63.999s32.833 49.333 43.5 78s16 61 16 97v16h137c1.33301 -17.333 2 -32 2 -44
c0 -49.333 -7.16699 -92.333 -21.5 -129s-33.166 -68.667 -56.499 -96s-48.833 -51.833 -76.5 -73.5l-82.5 -63.5c-16.667 -13.333 -32.667 -27.166 -48 -41.499s-28.666 -29.666 -39.999 -45.999s-20.333 -34 -27 -53s-10 -40.5 -10 -64.5
c0 -29.333 6.16699 -55.666 18.5 -78.999s29.666 -43 51.999 -59s49 -28.333 80 -37s65.5 -13 103.5 -13c51.333 0 100.833 6.33301 148.5 19s90.5 27.667 128.5 45v-132c-36 -19.333 -79.5 -35 -130.5 -47s-102.167 -18 -153.5 -18c-62.667 0 -119.334 7.5 -170.001 22.5
s-93.5 36.333 -128.5 64s-62 60.667 -81 99s-28.5 81.166 -28.5 128.499z" />
    <glyph glyph-name="Agrave" unicode="&#xc0;" horiz-adv-x="1301" 
d="M35 0l545 1338h141l545 -1338h-177l-160 403h-559l-160 -403h-175zM649 1130c-59.333 -166.667 -116.333 -318 -171 -454l-50 -126h443l-50 126c-54.667 138.667 -110.667 290 -168 454h-4zM569 1656l146 -247h-139l-181 247h174zM244 1338z" />
    <glyph glyph-name="Aacute" unicode="&#xc1;" horiz-adv-x="1301" 
d="M35 0l545 1338h141l545 -1338h-177l-160 403h-559l-160 -403h-175zM649 1130c-59.333 -166.667 -116.333 -318 -171 -454l-50 -126h443l-50 126c-54.667 138.667 -110.667 290 -168 454h-4zM911 1656l-181 -247h-139l146 247h174zM441 1338z" />
    <glyph glyph-name="Acircumflex" unicode="&#xc2;" horiz-adv-x="1301" 
d="M35 0l545 1338h141l545 -1338h-177l-160 403h-559l-160 -403h-175zM649 1130c-59.333 -166.667 -116.333 -318 -171 -454l-50 -126h443l-50 126c-54.667 138.667 -110.667 290 -168 454h-4zM731 1656l216 -247h-158l-137 151h-4l-136 -151h-158l216 247h161zM301 1338z
" />
    <glyph glyph-name="Atilde" unicode="&#xc3;" horiz-adv-x="1301" 
d="M35 0l545 1338h141l545 -1338h-177l-160 403h-559l-160 -403h-175zM649 1130c-59.333 -166.667 -116.333 -318 -171 -454l-50 -126h443l-50 126c-54.667 138.667 -110.667 290 -168 454h-4zM505 1641c27.333 0 54.001 -4.83301 80.001 -14.5s50 -20.334 72 -32.001
l62.5 -32c19.667 -9.66699 38.167 -14.5 55.5 -14.5c22.667 0 38.5 7.66699 47.5 23s13.5 36 13.5 62h125v-22c0 -22 -2.33301 -44.167 -7 -66.5s-13.834 -43 -27.501 -62s-31.667 -34 -54 -45s-49.5 -16.5 -81.5 -16.5c-27.333 0 -54 4.83301 -80 14.5
s-50 20.334 -72 32.001l-62.5 32c-19.667 9.66699 -38.167 14.5 -55.5 14.5c-22.667 0 -38.5 -7.66699 -47.5 -23s-13.5 -36 -13.5 -62h-125v14c-0.666992 23.333 1.5 47.333 6.5 72s14.333 46.5 28 65.5s31.667 33.833 54 44.5s49.5 16 81.5 16zM298.001 1338z" />
    <glyph glyph-name="Adieresis" unicode="&#xc4;" horiz-adv-x="1301" 
d="M35 0l545 1338h141l545 -1338h-177l-160 403h-559l-160 -403h-175zM649 1130c-59.333 -166.667 -116.333 -318 -171 -454l-50 -126h443l-50 126c-54.667 138.667 -110.667 290 -168 454h-4zM379 1448v169h161v-169h-161zM762 1448v169h161v-169h-161zM301 1338z" />
    <glyph glyph-name="Aring" unicode="&#xc5;" horiz-adv-x="1301" 
d="M35 0l545 1338h141l545 -1338h-177l-160 403h-559l-160 -403h-175zM649 1130c-59.333 -166.667 -116.333 -318 -171 -454l-50 -126h443l-50 126c-54.667 138.667 -110.667 290 -168 454h-4zM649 1376c-32 0 -62 4.16699 -90 12.5s-52.167 20.5 -72.5 36.5
s-36.5 35.667 -48.5 59s-18 49.666 -18 78.999s6 55.666 18 78.999s28.167 43 48.5 59s44.5 28.167 72.5 36.5s58 12.5 90 12.5s62 -4.16699 90 -12.5s52.167 -20.5 72.5 -36.5s36.5 -35.667 48.5 -59s18 -49.666 18 -78.999s-6 -55.666 -18 -78.999s-28.167 -43 -48.5 -59
s-44.5 -28.167 -72.5 -36.5s-58 -12.5 -90 -12.5zM649 1652c-30 0 -55.167 -7.5 -75.5 -22.5s-30.5 -37.167 -30.5 -66.5s10.167 -51.5 30.5 -66.5s45.5 -22.5 75.5 -22.5s55.167 7.5 75.5 22.5s30.5 37.167 30.5 66.5s-10.167 51.5 -30.5 66.5s-45.5 22.5 -75.5 22.5z
M299 1338z" />
    <glyph glyph-name="AE" unicode="&#xc6;" horiz-adv-x="1814" 
d="M1120 147h614v-147h-752l-52 401h-514l-211 -401h-175l708 1338h886v-147h-638l56 -432h520v-147h-501zM493 550h418l-80 641h-4z" />
    <glyph glyph-name="Ccedilla" unicode="&#xc7;" horiz-adv-x="1207" 
d="M638 -11c-84 14.667 -158.336 40.333 -223.003 77s-118.834 83.167 -162.501 139.5s-76.667 122 -99 197s-33.5 158.167 -33.5 249.5c0 104 15.833 199.667 47.5 287s77.334 162.333 137.001 225s132 111.5 217 146.5s180.5 52.5 286.5 52.5
c28 0 55.667 -1.16699 83 -3.5s53.5 -5.66602 78.5 -9.99902s48.167 -9.5 69.5 -15.5s39.666 -12.333 54.999 -19v-144c-40 13.333 -83.667 24.5 -131 33.5s-95 13.5 -143 13.5c-74 0 -143.167 -11.833 -207.5 -35.5s-120.166 -59 -167.499 -106
s-84.666 -105.333 -111.999 -175s-41 -150.834 -41 -243.501c0 -92 12.667 -171.833 38 -239.5s61.333 -123.667 108 -168s102.834 -77.166 168.501 -98.499s138.834 -32 219.501 -32c22 0 45.333 1.16699 70 3.5s49.5 5.66602 74.5 9.99902s49.333 9.33301 73 15
s44.834 11.834 63.501 18.501v-144c-39.333 -15.333 -85 -27.166 -137 -35.499s-105.333 -12.5 -160 -12.5c-9.33301 0 -18.333 0.166992 -27 0.5s-17.667 0.833008 -27 1.5l-28 -103c26.667 -4 51.167 -10.167 73.5 -18.5s41.5 -19.166 57.5 -32.499s28.333 -29.5 37 -48.5
s13 -40.833 13 -65.5c0 -34.667 -7.66699 -64.5 -23 -89.5s-35.833 -45.667 -61.5 -62s-55.167 -28.333 -88.5 -36s-68 -11.5 -104 -11.5c-28.667 0 -54.5 1.83301 -77.5 5.5s-41.5 8.16699 -55.5 13.5v113c8 -2.66699 17.167 -5 27.5 -7s21 -3.83301 32 -5.5
s21.667 -2.83398 32 -3.50098s19.5 -1 27.5 -1c19.333 0 38.166 1.16699 56.499 3.5s34.833 6.66602 49.5 12.999s26.5 14.666 35.5 24.999s13.5 23.5 13.5 39.5c0 14 -4.66699 25.833 -14 35.5s-22.5 17.5 -39.5 23.5s-37.667 10.5 -62 13.5s-51.5 5.16699 -81.5 6.5z" />
    <glyph glyph-name="Egrave" unicode="&#xc8;" horiz-adv-x="1129" 
d="M333 147h686v-147h-849v1338h812v-147h-649v-432h577v-147h-577v-465zM527 1656l146 -247h-139l-181 247h174zM202 1338z" />
    <glyph glyph-name="Eacute" unicode="&#xc9;" horiz-adv-x="1129" 
d="M333 147h686v-147h-849v1338h812v-147h-649v-432h577v-147h-577v-465zM823 1656l-181 -247h-139l146 247h174zM353 1338z" />
    <glyph glyph-name="Ecircumflex" unicode="&#xca;" horiz-adv-x="1129" 
d="M333 147h686v-147h-849v1338h812v-147h-649v-432h577v-147h-577v-465zM657 1656l216 -247h-158l-137 151h-4l-136 -151h-158l216 247h161zM227 1338z" />
    <glyph glyph-name="Edieresis" unicode="&#xcb;" horiz-adv-x="1129" 
d="M333 147h686v-147h-849v1338h812v-147h-649v-432h577v-147h-577v-465zM302 1448v169h161v-169h-161zM685 1448v169h161v-169h-161zM224 1338z" />
    <glyph glyph-name="Igrave" unicode="&#xcc;" horiz-adv-x="503" 
d="M170 0v1338h163v-1338h-163zM199 1656l146 -247h-139l-181 247h174zM-126 1338z" />
    <glyph glyph-name="Iacute" unicode="&#xcd;" horiz-adv-x="503" 
d="M170 0v1338h163v-1338h-163zM491 1656l-181 -247h-139l146 247h174zM21 1338z" />
    <glyph glyph-name="Icircumflex" unicode="&#xce;" horiz-adv-x="503" 
d="M170 0v1338h163v-1338h-163zM338 1656l216 -247h-158l-137 151h-4l-136 -151h-158l216 247h161zM-92 1338z" />
    <glyph glyph-name="Idieresis" unicode="&#xcf;" horiz-adv-x="503" 
d="M170 0v1338h163v-1338h-163zM-15 1448v169h161v-169h-161zM368 1448v169h161v-169h-161zM-93 1338z" />
    <glyph glyph-name="Eth" unicode="&#xd0;" horiz-adv-x="1404" 
d="M60 759h140.001v579h306c60.667 0 117 -2.5 169 -7.5s100.333 -13.833 145 -26.5c78 -22 146.167 -52.667 204.5 -92s106.666 -85.833 144.999 -139.5s67 -114 86 -181s28.5 -139.167 28.5 -216.5c0 -78 -9.66699 -151.333 -29 -220s-48.5 -130.5 -87.5 -185.5
s-87.667 -102.5 -146 -142.5s-126.5 -71 -204.5 -93c-44.667 -12.667 -93 -21.5 -145 -26.5s-108.333 -7.5 -169 -7.5h-303v612h-140v147zM1112 675c0 128.667 -28 232.999 -84 312.999s-136.333 136.667 -241 170c-40 12.667 -84.667 21.334 -134 26.001s-105 7 -167 7
h-123v-432h344v-147h-344v-465h123c62 0 117.667 2.33301 167 7s94 13.334 134 26.001c104.667 33.333 185 91.666 241 174.999s84 190 84 320z" />
    <glyph glyph-name="Ntilde" unicode="&#xd1;" horiz-adv-x="1426" 
d="M857 592l243 -364h6c-8.66699 130 -13 262.667 -13 398v712h163v-1338h-162l-525 746c-90.667 130 -171.667 251.333 -243 364h-6c8.66699 -122 13 -264.333 13 -427v-683h-163v1338h162zM580 1641c27.333 0 54.001 -4.83301 80.001 -14.5s50 -20.334 72 -32.001
l62.5 -32c19.667 -9.66699 38.167 -14.5 55.5 -14.5c22.667 0 38.5 7.66699 47.5 23s13.5 36 13.5 62h125v-22c0 -22 -2.33301 -44.167 -7 -66.5s-13.834 -43 -27.501 -62s-31.667 -34 -54 -45s-49.5 -16.5 -81.5 -16.5c-27.333 0 -54 4.83301 -80 14.5
s-50 20.334 -72 32.001l-62.5 32c-19.667 9.66699 -38.167 14.5 -55.5 14.5c-22.667 0 -38.5 -7.66699 -47.5 -23s-13.5 -36 -13.5 -62h-125v14c-0.666992 23.333 1.5 47.333 6.5 72s14.333 46.5 28 65.5s31.667 33.833 54 44.5s49.5 16 81.5 16zM373.001 1338z" />
    <glyph glyph-name="Ograve" unicode="&#xd2;" horiz-adv-x="1496" 
d="M1204 668c0 90 -11.668 169.333 -35.001 238s-55.5 126 -96.5 172s-89.333 80.833 -145 104.5s-115.5 35.5 -179.5 35.5s-123.833 -11.833 -179.5 -35.5s-104 -58.5 -145 -104.5s-73.167 -103.333 -96.5 -172s-35 -148 -35 -238s11.833 -169.167 35.5 -237.5
s56 -125.5 97 -171.5s89.333 -80.667 145 -104s115.834 -35 180.501 -35c64 0 123.5 11.667 178.5 35s103 58 144 104s73.167 103.167 96.5 171.5s35 147.5 35 237.5zM1376 668c0 -101.333 -14.666 -194.333 -43.999 -279s-71.333 -157.667 -126 -219
s-120.5 -109.166 -197.5 -143.499s-163.167 -51.5 -258.5 -51.5c-98.667 0 -187 17.167 -265 51.5s-144 82.166 -198 143.499s-95.333 134.333 -124 219s-43 177.667 -43 279c0 102 14.833 195.5 44.5 280.5s71.667 158.167 126 219.5s120.166 109.166 197.499 143.499
s164 51.5 260 51.5c98 0 185.833 -17.167 263.5 -51.5s143.5 -82.166 197.5 -143.499s95.333 -134.5 124 -219.5s43 -178.5 43 -280.5zM683 1656l146 -247h-139l-181 247h174zM358 1338z" />
    <glyph glyph-name="Oacute" unicode="&#xd3;" horiz-adv-x="1496" 
d="M1204 668c0 90 -11.668 169.333 -35.001 238s-55.5 126 -96.5 172s-89.333 80.833 -145 104.5s-115.5 35.5 -179.5 35.5s-123.833 -11.833 -179.5 -35.5s-104 -58.5 -145 -104.5s-73.167 -103.333 -96.5 -172s-35 -148 -35 -238s11.833 -169.167 35.5 -237.5
s56 -125.5 97 -171.5s89.333 -80.667 145 -104s115.834 -35 180.501 -35c64 0 123.5 11.667 178.5 35s103 58 144 104s73.167 103.167 96.5 171.5s35 147.5 35 237.5zM1376 668c0 -101.333 -14.666 -194.333 -43.999 -279s-71.333 -157.667 -126 -219
s-120.5 -109.166 -197.5 -143.499s-163.167 -51.5 -258.5 -51.5c-98.667 0 -187 17.167 -265 51.5s-144 82.166 -198 143.499s-95.333 134.333 -124 219s-43 177.667 -43 279c0 102 14.833 195.5 44.5 280.5s71.667 158.167 126 219.5s120.166 109.166 197.499 143.499
s164 51.5 260 51.5c98 0 185.833 -17.167 263.5 -51.5s143.5 -82.166 197.5 -143.499s95.333 -134.5 124 -219.5s43 -178.5 43 -280.5zM990 1656l-181 -247h-139l146 247h174zM520 1338z" />
    <glyph glyph-name="Ocircumflex" unicode="&#xd4;" horiz-adv-x="1496" 
d="M1204 668c0 90 -11.668 169.333 -35.001 238s-55.5 126 -96.5 172s-89.333 80.833 -145 104.5s-115.5 35.5 -179.5 35.5s-123.833 -11.833 -179.5 -35.5s-104 -58.5 -145 -104.5s-73.167 -103.333 -96.5 -172s-35 -148 -35 -238s11.833 -169.167 35.5 -237.5
s56 -125.5 97 -171.5s89.333 -80.667 145 -104s115.834 -35 180.501 -35c64 0 123.5 11.667 178.5 35s103 58 144 104s73.167 103.167 96.5 171.5s35 147.5 35 237.5zM1376 668c0 -101.333 -14.666 -194.333 -43.999 -279s-71.333 -157.667 -126 -219
s-120.5 -109.166 -197.5 -143.499s-163.167 -51.5 -258.5 -51.5c-98.667 0 -187 17.167 -265 51.5s-144 82.166 -198 143.499s-95.333 134.333 -124 219s-43 177.667 -43 279c0 102 14.833 195.5 44.5 280.5s71.667 158.167 126 219.5s120.166 109.166 197.499 143.499
s164 51.5 260 51.5c98 0 185.833 -17.167 263.5 -51.5s143.5 -82.166 197.5 -143.499s95.333 -134.5 124 -219.5s43 -178.5 43 -280.5zM831 1656l216 -247h-158l-137 151h-4l-136 -151h-158l216 247h161zM401 1338z" />
    <glyph glyph-name="Otilde" unicode="&#xd5;" horiz-adv-x="1496" 
d="M1204 668c0 90 -11.668 169.333 -35.001 238s-55.5 126 -96.5 172s-89.333 80.833 -145 104.5s-115.5 35.5 -179.5 35.5s-123.833 -11.833 -179.5 -35.5s-104 -58.5 -145 -104.5s-73.167 -103.333 -96.5 -172s-35 -148 -35 -238s11.833 -169.167 35.5 -237.5
s56 -125.5 97 -171.5s89.333 -80.667 145 -104s115.834 -35 180.501 -35c64 0 123.5 11.667 178.5 35s103 58 144 104s73.167 103.167 96.5 171.5s35 147.5 35 237.5zM1376 668c0 -101.333 -14.666 -194.333 -43.999 -279s-71.333 -157.667 -126 -219
s-120.5 -109.166 -197.5 -143.499s-163.167 -51.5 -258.5 -51.5c-98.667 0 -187 17.167 -265 51.5s-144 82.166 -198 143.499s-95.333 134.333 -124 219s-43 177.667 -43 279c0 102 14.833 195.5 44.5 280.5s71.667 158.167 126 219.5s120.166 109.166 197.499 143.499
s164 51.5 260 51.5c98 0 185.833 -17.167 263.5 -51.5s143.5 -82.166 197.5 -143.499s95.333 -134.5 124 -219.5s43 -178.5 43 -280.5zM606 1641c27.333 0 54.001 -4.83301 80.001 -14.5s50 -20.334 72 -32.001l62.5 -32c19.667 -9.66699 38.167 -14.5 55.5 -14.5
c22.667 0 38.5 7.66699 47.5 23s13.5 36 13.5 62h125v-22c0 -22 -2.33301 -44.167 -7 -66.5s-13.834 -43 -27.501 -62s-31.667 -34 -54 -45s-49.5 -16.5 -81.5 -16.5c-27.333 0 -54 4.83301 -80 14.5s-50 20.334 -72 32.001l-62.5 32
c-19.667 9.66699 -38.167 14.5 -55.5 14.5c-22.667 0 -38.5 -7.66699 -47.5 -23s-13.5 -36 -13.5 -62h-125v14c-0.666992 23.333 1.5 47.333 6.5 72s14.333 46.5 28 65.5s31.667 33.833 54 44.5s49.5 16 81.5 16zM399.001 1338z" />
    <glyph glyph-name="Odieresis" unicode="&#xd6;" horiz-adv-x="1496" 
d="M1204 668c0 90 -11.668 169.333 -35.001 238s-55.5 126 -96.5 172s-89.333 80.833 -145 104.5s-115.5 35.5 -179.5 35.5s-123.833 -11.833 -179.5 -35.5s-104 -58.5 -145 -104.5s-73.167 -103.333 -96.5 -172s-35 -148 -35 -238s11.833 -169.167 35.5 -237.5
s56 -125.5 97 -171.5s89.333 -80.667 145 -104s115.834 -35 180.501 -35c64 0 123.5 11.667 178.5 35s103 58 144 104s73.167 103.167 96.5 171.5s35 147.5 35 237.5zM1376 668c0 -101.333 -14.666 -194.333 -43.999 -279s-71.333 -157.667 -126 -219
s-120.5 -109.166 -197.5 -143.499s-163.167 -51.5 -258.5 -51.5c-98.667 0 -187 17.167 -265 51.5s-144 82.166 -198 143.499s-95.333 134.333 -124 219s-43 177.667 -43 279c0 102 14.833 195.5 44.5 280.5s71.667 158.167 126 219.5s120.166 109.166 197.499 143.499
s164 51.5 260 51.5c98 0 185.833 -17.167 263.5 -51.5s143.5 -82.166 197.5 -143.499s95.333 -134.5 124 -219.5s43 -178.5 43 -280.5zM476 1448v169h161v-169h-161zM859 1448v169h161v-169h-161zM398 1338z" />
    <glyph glyph-name="multiply" unicode="&#xd7;" 
d="M105 848l94 93l326 -327l327 327l93 -93l-327 -327l327 -326l-94 -93l-326 326l-326 -326l-93 93l326 326z" />
    <glyph glyph-name="Oslash" unicode="&#xd8;" horiz-adv-x="1496" 
d="M120 71l130 145.999c-42.667 59.333 -75 127 -97 203s-33 158.667 -33 248c0 102 14.833 195.5 44.5 280.5s71.667 158.167 126 219.5s120.166 109.166 197.499 143.499s164 51.5 260 51.5c80.667 0 154.334 -11.667 221.001 -35s126 -56.666 178 -99.999l120 135
l109 -95l-130 -147c42 -59.333 74.167 -127.166 96.5 -203.499s33.5 -159.5 33.5 -249.5c0 -101.333 -14.667 -194.333 -44 -279s-71.333 -157.667 -126 -219s-120.5 -109.166 -197.5 -143.499s-163.167 -51.5 -258.5 -51.5c-82 0 -156.5 11.667 -223.5 35
s-126.5 56.666 -178.5 99.999l-120 -135zM1204 667.999c0 66 -6.33301 125.832 -19 179.499s-30.667 101.834 -54 144.501l-677 -763c40 -36 85 -63.167 135 -81.5s103.667 -27.5 161 -27.5c64 0 123.5 11.667 178.5 35s103 58 144 104s73.167 103.167 96.5 171.5
s35 147.5 35 237.5zM292 667.998c0 -66 6.16895 -125.667 18.502 -179s30.166 -101.333 53.499 -144l677 764c-39.333 36 -83.833 63.167 -133.5 81.5s-102.834 27.5 -159.501 27.5c-64 0 -123.833 -11.833 -179.5 -35.5s-104 -58.5 -145 -104.5
s-73.167 -103.333 -96.5 -172s-35 -148 -35 -238z" />
    <glyph glyph-name="Ugrave" unicode="&#xd9;" horiz-adv-x="1374" 
d="M687 120c48.667 0 91.833 5.66699 129.5 17s70.5 27.333 98.5 48s51.333 45.5 70 74.5s33 61.167 43 96.5c6.66699 22 11.334 46.5 14.001 73.5s4 53.167 4 78.5v830h163v-826c0 -31.333 -1.66699 -64 -5 -98s-8.66602 -65.667 -15.999 -95
c-12.667 -49.333 -31.667 -95 -57 -137s-58.333 -78.333 -99 -109s-89.5 -54.667 -146.5 -72s-123.833 -26 -200.5 -26c-73.333 0 -137.666 8 -192.999 24s-102.833 38.167 -142.5 66.5s-72.167 62 -97.5 101s-45 81.5 -59 127.5c-10 33.333 -17.167 69 -21.5 107
s-6.5 75 -6.5 111v826h163v-830c0 -30 2.16699 -60.833 6.5 -92.5s11.166 -60.5 20.499 -86.5c23.333 -64.667 62.166 -115.667 116.499 -153s126.166 -56 215.499 -56zM617.999 1656l146 -247h-139l-181 247h174zM292.999 1338z" />
    <glyph glyph-name="Uacute" unicode="&#xda;" horiz-adv-x="1374" 
d="M687 120c48.667 0 91.833 5.66699 129.5 17s70.5 27.333 98.5 48s51.333 45.5 70 74.5s33 61.167 43 96.5c6.66699 22 11.334 46.5 14.001 73.5s4 53.167 4 78.5v830h163v-826c0 -31.333 -1.66699 -64 -5 -98s-8.66602 -65.667 -15.999 -95
c-12.667 -49.333 -31.667 -95 -57 -137s-58.333 -78.333 -99 -109s-89.5 -54.667 -146.5 -72s-123.833 -26 -200.5 -26c-73.333 0 -137.666 8 -192.999 24s-102.833 38.167 -142.5 66.5s-72.167 62 -97.5 101s-45 81.5 -59 127.5c-10 33.333 -17.167 69 -21.5 107
s-6.5 75 -6.5 111v826h163v-830c0 -30 2.16699 -60.833 6.5 -92.5s11.166 -60.5 20.499 -86.5c23.333 -64.667 62.166 -115.667 116.499 -153s126.166 -56 215.499 -56zM924.999 1656l-181 -247h-139l146 247h174zM454.999 1338z" />
    <glyph glyph-name="Ucircumflex" unicode="&#xdb;" horiz-adv-x="1374" 
d="M687 120c48.667 0 91.833 5.66699 129.5 17s70.5 27.333 98.5 48s51.333 45.5 70 74.5s33 61.167 43 96.5c6.66699 22 11.334 46.5 14.001 73.5s4 53.167 4 78.5v830h163v-826c0 -31.333 -1.66699 -64 -5 -98s-8.66602 -65.667 -15.999 -95
c-12.667 -49.333 -31.667 -95 -57 -137s-58.333 -78.333 -99 -109s-89.5 -54.667 -146.5 -72s-123.833 -26 -200.5 -26c-73.333 0 -137.666 8 -192.999 24s-102.833 38.167 -142.5 66.5s-72.167 62 -97.5 101s-45 81.5 -59 127.5c-10 33.333 -17.167 69 -21.5 107
s-6.5 75 -6.5 111v826h163v-830c0 -30 2.16699 -60.833 6.5 -92.5s11.166 -60.5 20.499 -86.5c23.333 -64.667 62.166 -115.667 116.499 -153s126.166 -56 215.499 -56zM764.999 1656l216 -247h-158l-137 151h-4l-136 -151h-158l216 247h161zM334.999 1338z" />
    <glyph glyph-name="Udieresis" unicode="&#xdc;" horiz-adv-x="1374" 
d="M687 120c48.667 0 91.833 5.66699 129.5 17s70.5 27.333 98.5 48s51.333 45.5 70 74.5s33 61.167 43 96.5c6.66699 22 11.334 46.5 14.001 73.5s4 53.167 4 78.5v830h163v-826c0 -31.333 -1.66699 -64 -5 -98s-8.66602 -65.667 -15.999 -95
c-12.667 -49.333 -31.667 -95 -57 -137s-58.333 -78.333 -99 -109s-89.5 -54.667 -146.5 -72s-123.833 -26 -200.5 -26c-73.333 0 -137.666 8 -192.999 24s-102.833 38.167 -142.5 66.5s-72.167 62 -97.5 101s-45 81.5 -59 127.5c-10 33.333 -17.167 69 -21.5 107
s-6.5 75 -6.5 111v826h163v-830c0 -30 2.16699 -60.833 6.5 -92.5s11.166 -60.5 20.499 -86.5c23.333 -64.667 62.166 -115.667 116.499 -153s126.166 -56 215.499 -56zM414.999 1448v169h161v-169h-161zM797.999 1448v169h161v-169h-161zM336.999 1338z" />
    <glyph glyph-name="Yacute" unicode="&#xdd;" horiz-adv-x="1217" 
d="M690 538v-538h-163v538l-487 800h178l388 -650h5l388 650h178zM852 1656l-181 -247h-139l146 247h174zM382 1338z" />
    <glyph glyph-name="Thorn" unicode="&#xde;" horiz-adv-x="1162" 
d="M333 450c22 -2.66699 44.999 -4.66699 68.999 -6s46.667 -2 68 -2c76.667 0 141.667 5 195 15s96.5 25.167 129.5 45.5s57 46 72 77s22.5 67.5 22.5 109.5c0 52 -12.5 94.333 -37.5 127s-60.5 57.667 -106.5 75c-28.667 10.667 -61.667 18.167 -99 22.5
s-80.666 6.5 -129.999 6.5h-183v-470zM525.999 1067c60 0 113.834 -3.33301 161.501 -10s91.167 -17 130.5 -31c80 -28.667 140.667 -71 182 -127s62 -126 62 -210c0 -68 -13.333 -126.833 -40 -176.5s-65.334 -90.5 -116.001 -122.5s-112.5 -55.833 -185.5 -71.5
s-155.833 -23.5 -248.5 -23.5c-44.667 0 -91 2 -139 6v-301h-163v1338h163v-271h193z" />
    <glyph glyph-name="germandbls" unicode="&#xdf;" horiz-adv-x="1248" 
d="M991 1192c0 -37.333 -6.00293 -70.1631 -18.0029 -98.4961s-27.167 -54 -45.5 -77s-38 -44.167 -59 -63.5s-40.667 -38.5 -59 -57.5s-33.5 -39 -45.5 -60s-18 -44.833 -18 -71.5c0 -22 4.66699 -41 14 -57s22 -30.167 38 -42.5s34.333 -23.666 55 -33.999
s42.334 -20.5 65.001 -30.5c28.667 -12.667 57.5 -26.834 86.5 -42.501s55.333 -34.834 79 -57.501s42.834 -50.5 57.501 -83.5s22 -73.5 22 -121.5s-9.33301 -91.667 -28 -131s-45 -73 -79 -101s-74.667 -49.667 -122 -65s-99.333 -23 -156 -23
c-30 0 -57.333 1.83301 -82 5.5s-47 8.16699 -67 13.5s-37.5 11.166 -52.5 17.499s-27.167 12.166 -36.5 17.499v130c20 -8 38.833 -15.167 56.5 -21.5s35.334 -11.833 53.001 -16.5s35.834 -8.16699 54.501 -10.5s38.667 -3.5 60 -3.5c37.333 0 71 4.33301 101 13
s55.833 21 77.5 37s38.334 35.167 50.001 57.5s17.5 47.166 17.5 74.499c0 28 -5.33301 52.167 -16 72.5s-24.667 38 -42 53s-37.5 28.333 -60.5 40s-46.5 22.834 -70.5 33.501l-82 39.5c-27.333 13.667 -51.833 30.334 -73.5 50.001s-39.167 43.5 -52.5 71.5
s-20 62 -20 102c0 39.333 6 73.666 18 102.999s27 55.833 45 79.5s37.667 45.167 59 64.5s41 38.666 59 57.999s33 39.333 45 60s18 44.334 18 71.001c0 21.333 -4 41.166 -12 59.499s-20.5 34.333 -37.5 48s-39.167 24.334 -66.5 32.001s-60.333 11.5 -99 11.5
c-52.667 0 -98.167 -8.5 -136.5 -25.5s-70.166 -41 -95.499 -72s-44.166 -68.167 -56.499 -111.5s-18.5 -91.333 -18.5 -144v-985h-155v994c0 72 10.167 137.333 30.5 196s50.166 109 89.499 151s87.666 74.5 144.999 97.5s123 34.5 197 34.5
c63.333 0 118.166 -7.83301 164.499 -23.5s84.666 -36.5 114.999 -62.5s52.833 -55.833 67.5 -89.5s22 -68.834 22 -105.501z" />
    <glyph glyph-name="agrave" unicode="&#xe0;" horiz-adv-x="1003" 
d="M706 105l-4.00195 0.000976562c-12.667 -16 -28.667 -31.833 -48 -47.5s-41.666 -29.667 -66.999 -42s-53 -22.166 -83 -29.499s-62 -11 -96 -11c-46 0 -88.167 6.83301 -126.5 20.5s-71.333 33.667 -99 60s-49.167 58.5 -64.5 96.5s-23 81 -23 129
c0 47.333 8.5 89.666 25.5 126.999s40.833 69 71.5 95s67.5 46 110.5 60s90.5 21 142.5 21c49.333 -0.666992 95 -5 137 -13s79.333 -18 112 -30h4v66c0 26 -1.66699 49 -5 69s-9 37.667 -17 53c-17.333 32 -45 58.5 -83 79.5s-89.333 31.5 -154 31.5
c-48 0 -93.167 -4.5 -135.5 -13.5s-84.5 -21.5 -126.5 -37.5v130c16 8 34.833 15.5 56.5 22.5s44.5 13 68.5 18s49.333 8.83301 76 11.5s53.334 4 80.001 4c96 0 174.5 -17 235.5 -51s104.833 -79 131.5 -135c10 -21.333 17.167 -44.833 21.5 -70.5s6.5 -53.834 6.5 -84.501
v-634h-130zM697.998 417.001c-28.667 8 -62.665 15.6689 -101.998 23.002s-82.666 11.333 -129.999 12c-66 0 -117.667 -14 -155 -42s-56 -71 -56 -129c0 -29.333 4.66699 -55 14 -77s22.166 -40.167 38.499 -54.5s35.666 -25 57.999 -32s46.166 -10.5 71.499 -10.5
c33.333 0 64.333 4.83301 93 14.5s54.167 21.167 76.5 34.5s41.333 26.666 57 39.999s27.167 23.666 34.5 30.999v190zM446 1473l123 -349h-130l-161 349h168zM70 950.003z" />
    <glyph glyph-name="aacute" unicode="&#xe1;" horiz-adv-x="1003" 
d="M706 105l-4.00195 0.000976562c-12.667 -16 -28.667 -31.833 -48 -47.5s-41.666 -29.667 -66.999 -42s-53 -22.166 -83 -29.499s-62 -11 -96 -11c-46 0 -88.167 6.83301 -126.5 20.5s-71.333 33.667 -99 60s-49.167 58.5 -64.5 96.5s-23 81 -23 129
c0 47.333 8.5 89.666 25.5 126.999s40.833 69 71.5 95s67.5 46 110.5 60s90.5 21 142.5 21c49.333 -0.666992 95 -5 137 -13s79.333 -18 112 -30h4v66c0 26 -1.66699 49 -5 69s-9 37.667 -17 53c-17.333 32 -45 58.5 -83 79.5s-89.333 31.5 -154 31.5
c-48 0 -93.167 -4.5 -135.5 -13.5s-84.5 -21.5 -126.5 -37.5v130c16 8 34.833 15.5 56.5 22.5s44.5 13 68.5 18s49.333 8.83301 76 11.5s53.334 4 80.001 4c96 0 174.5 -17 235.5 -51s104.833 -79 131.5 -135c10 -21.333 17.167 -44.833 21.5 -70.5s6.5 -53.834 6.5 -84.501
v-634h-130zM697.998 417.001c-28.667 8 -62.665 15.6689 -101.998 23.002s-82.666 11.333 -129.999 12c-66 0 -117.667 -14 -155 -42s-56 -71 -56 -129c0 -29.333 4.66699 -55 14 -77s22.166 -40.167 38.499 -54.5s35.666 -25 57.999 -32s46.166 -10.5 71.499 -10.5
c33.333 0 64.333 4.83301 93 14.5s54.167 21.167 76.5 34.5s41.333 26.666 57 39.999s27.167 23.666 34.5 30.999v190zM705 1473l-161 -349h-130l123 349h168zM199 950.003z" />
    <glyph glyph-name="acircumflex" unicode="&#xe2;" horiz-adv-x="1003" 
d="M706 105l-4.00195 0.000976562c-12.667 -16 -28.667 -31.833 -48 -47.5s-41.666 -29.667 -66.999 -42s-53 -22.166 -83 -29.499s-62 -11 -96 -11c-46 0 -88.167 6.83301 -126.5 20.5s-71.333 33.667 -99 60s-49.167 58.5 -64.5 96.5s-23 81 -23 129
c0 47.333 8.5 89.666 25.5 126.999s40.833 69 71.5 95s67.5 46 110.5 60s90.5 21 142.5 21c49.333 -0.666992 95 -5 137 -13s79.333 -18 112 -30h4v66c0 26 -1.66699 49 -5 69s-9 37.667 -17 53c-17.333 32 -45 58.5 -83 79.5s-89.333 31.5 -154 31.5
c-48 0 -93.167 -4.5 -135.5 -13.5s-84.5 -21.5 -126.5 -37.5v130c16 8 34.833 15.5 56.5 22.5s44.5 13 68.5 18s49.333 8.83301 76 11.5s53.334 4 80.001 4c96 0 174.5 -17 235.5 -51s104.833 -79 131.5 -135c10 -21.333 17.167 -44.833 21.5 -70.5s6.5 -53.834 6.5 -84.501
v-634h-130zM697.998 417.001c-28.667 8 -62.665 15.6689 -101.998 23.002s-82.666 11.333 -129.999 12c-66 0 -117.667 -14 -155 -42s-56 -71 -56 -129c0 -29.333 4.66699 -55 14 -77s22.166 -40.167 38.499 -54.5s35.666 -25 57.999 -32s46.166 -10.5 71.499 -10.5
c33.333 0 64.333 4.83301 93 14.5s54.167 21.167 76.5 34.5s41.333 26.666 57 39.999s27.167 23.666 34.5 30.999v190zM584 1473l210 -349h-140l-147 246h-4l-146 -246h-140l210 349h157zM156 950.003z" />
    <glyph glyph-name="atilde" unicode="&#xe3;" horiz-adv-x="1003" 
d="M706 105l-4.00195 0.000976562c-12.667 -16 -28.667 -31.833 -48 -47.5s-41.666 -29.667 -66.999 -42s-53 -22.166 -83 -29.499s-62 -11 -96 -11c-46 0 -88.167 6.83301 -126.5 20.5s-71.333 33.667 -99 60s-49.167 58.5 -64.5 96.5s-23 81 -23 129
c0 47.333 8.5 89.666 25.5 126.999s40.833 69 71.5 95s67.5 46 110.5 60s90.5 21 142.5 21c49.333 -0.666992 95 -5 137 -13s79.333 -18 112 -30h4v66c0 26 -1.66699 49 -5 69s-9 37.667 -17 53c-17.333 32 -45 58.5 -83 79.5s-89.333 31.5 -154 31.5
c-48 0 -93.167 -4.5 -135.5 -13.5s-84.5 -21.5 -126.5 -37.5v130c16 8 34.833 15.5 56.5 22.5s44.5 13 68.5 18s49.333 8.83301 76 11.5s53.334 4 80.001 4c96 0 174.5 -17 235.5 -51s104.833 -79 131.5 -135c10 -21.333 17.167 -44.833 21.5 -70.5s6.5 -53.834 6.5 -84.501
v-634h-130zM697.998 417.001c-28.667 8 -62.665 15.6689 -101.998 23.002s-82.666 11.333 -129.999 12c-66 0 -117.667 -14 -155 -42s-56 -71 -56 -129c0 -29.333 4.66699 -55 14 -77s22.166 -40.167 38.499 -54.5s35.666 -25 57.999 -32s46.166 -10.5 71.499 -10.5
c33.333 0 64.333 4.83301 93 14.5s54.167 21.167 76.5 34.5s41.333 26.666 57 39.999s27.167 23.666 34.5 30.999v190zM174 1178v23c0 22.667 2.5 45.167 7.5 67.5s14 42.666 27 60.999s30.5 33 52.5 44s49 16.5 81 16.5c27.333 0 54 -4.83301 80 -14.5s50 -20.5 72 -32.5
s43.5 -23 64.5 -33s39.5 -15 55.5 -15c20.667 0 35.834 7.33301 45.501 22s14.5 36.334 14.5 65.001h122v-23c0 -22.667 -2.5 -45.167 -7.5 -67.5s-14 -42.666 -27 -60.999s-30.5 -33 -52.5 -44s-49 -16.5 -81 -16.5c-27.333 0 -54 4.83301 -80 14.5s-50 20.5 -72 32.5
s-43.5 23 -64.5 33s-39.5 15 -55.5 15c-20.667 0 -35.834 -7.33301 -45.501 -22s-14.5 -36.334 -14.5 -65.001h-122zM135 950.003z" />
    <glyph glyph-name="adieresis" unicode="&#xe4;" horiz-adv-x="1003" 
d="M706 105l-4.00195 0.000976562c-12.667 -16 -28.667 -31.833 -48 -47.5s-41.666 -29.667 -66.999 -42s-53 -22.166 -83 -29.499s-62 -11 -96 -11c-46 0 -88.167 6.83301 -126.5 20.5s-71.333 33.667 -99 60s-49.167 58.5 -64.5 96.5s-23 81 -23 129
c0 47.333 8.5 89.666 25.5 126.999s40.833 69 71.5 95s67.5 46 110.5 60s90.5 21 142.5 21c49.333 -0.666992 95 -5 137 -13s79.333 -18 112 -30h4v66c0 26 -1.66699 49 -5 69s-9 37.667 -17 53c-17.333 32 -45 58.5 -83 79.5s-89.333 31.5 -154 31.5
c-48 0 -93.167 -4.5 -135.5 -13.5s-84.5 -21.5 -126.5 -37.5v130c16 8 34.833 15.5 56.5 22.5s44.5 13 68.5 18s49.333 8.83301 76 11.5s53.334 4 80.001 4c96 0 174.5 -17 235.5 -51s104.833 -79 131.5 -135c10 -21.333 17.167 -44.833 21.5 -70.5s6.5 -53.834 6.5 -84.501
v-634h-130zM697.998 417.001c-28.667 8 -62.665 15.6689 -101.998 23.002s-82.666 11.333 -129.999 12c-66 0 -117.667 -14 -155 -42s-56 -71 -56 -129c0 -29.333 4.66699 -55 14 -77s22.166 -40.167 38.499 -54.5s35.666 -25 57.999 -32s46.166 -10.5 71.499 -10.5
c33.333 0 64.333 4.83301 93 14.5s54.167 21.167 76.5 34.5s41.333 26.666 57 39.999s27.167 23.666 34.5 30.999v190zM229 1171v167h159v-167h-159zM610 1171v167h159v-167h-159zM149 950.003z" />
    <glyph glyph-name="aring" unicode="&#xe5;" horiz-adv-x="1003" 
d="M706 105l-4.00195 0.000976562c-12.667 -16 -28.667 -31.833 -48 -47.5s-41.666 -29.667 -66.999 -42s-53 -22.166 -83 -29.499s-62 -11 -96 -11c-46 0 -88.167 6.83301 -126.5 20.5s-71.333 33.667 -99 60s-49.167 58.5 -64.5 96.5s-23 81 -23 129
c0 47.333 8.5 89.666 25.5 126.999s40.833 69 71.5 95s67.5 46 110.5 60s90.5 21 142.5 21c49.333 -0.666992 95 -5 137 -13s79.333 -18 112 -30h4v66c0 26 -1.66699 49 -5 69s-9 37.667 -17 53c-17.333 32 -45 58.5 -83 79.5s-89.333 31.5 -154 31.5
c-48 0 -93.167 -4.5 -135.5 -13.5s-84.5 -21.5 -126.5 -37.5v130c16 8 34.833 15.5 56.5 22.5s44.5 13 68.5 18s49.333 8.83301 76 11.5s53.334 4 80.001 4c96 0 174.5 -17 235.5 -51s104.833 -79 131.5 -135c10 -21.333 17.167 -44.833 21.5 -70.5s6.5 -53.834 6.5 -84.501
v-634h-130zM697.998 417.001c-28.667 8 -62.665 15.6689 -101.998 23.002s-82.666 11.333 -129.999 12c-66 0 -117.667 -14 -155 -42s-56 -71 -56 -129c0 -29.333 4.66699 -55 14 -77s22.166 -40.167 38.499 -54.5s35.666 -25 57.999 -32s46.166 -10.5 71.499 -10.5
c33.333 0 64.333 4.83301 93 14.5s54.167 21.167 76.5 34.5s41.333 26.666 57 39.999s27.167 23.666 34.5 30.999v190zM479 1100c-32 0 -62 4.5 -90 13.5s-52.167 21.833 -72.5 38.5s-36.5 37 -48.5 61s-18 51.333 -18 82s6 58 18 82s28.167 44.333 48.5 61
s44.5 29.5 72.5 38.5s58 13.5 90 13.5s62 -4.5 90 -13.5s52.167 -21.833 72.5 -38.5s36.5 -37 48.5 -61s18 -51.333 18 -82s-6 -58 -18 -82s-28.167 -44.333 -48.5 -61s-44.5 -29.5 -72.5 -38.5s-58 -13.5 -90 -13.5zM479 1392c-30 0 -55.167 -8.33301 -75.5 -25
s-30.5 -40.667 -30.5 -72s10.167 -55.333 30.5 -72s45.5 -25 75.5 -25s55.167 8.33301 75.5 25s30.5 40.667 30.5 72s-10.167 55.333 -30.5 72s-45.5 25 -75.5 25zM129 950.003z" />
    <glyph glyph-name="ae" unicode="&#xe6;" horiz-adv-x="1592" 
d="M458 975c47.333 0 88.498 -4.16895 123.498 -12.502s65.5 -20.166 91.5 -35.499s48.333 -33.333 67 -54s35 -43.667 49 -69h4c36.667 56 81.167 98.5 133.5 127.5s111.833 43.5 178.5 43.5c55.333 0 107 -10 155 -30s89 -51.333 123 -94s59.167 -94.5 75.5 -155.5
s23.833 -127.833 22.5 -200.5c0 -15.333 -0.333008 -32.666 -1 -51.999h-632c0 -60.667 8.16699 -112.167 24.5 -154.5s39 -76.666 68 -102.999s63.833 -45.5 104.5 -57.5s85.667 -18 135 -18c50 0 96.5 4 139.5 12s85.5 20 127.5 36v-129
c-34 -16.667 -76 -30.167 -126 -40.5s-103.667 -14.833 -161 -13.5c-76.667 2 -145.834 14.167 -207.501 36.5s-113.167 58.5 -154.5 108.5h-4c-18.667 -17.333 -39.667 -34.666 -63 -51.999s-49.666 -32.833 -78.999 -46.5s-62 -24.834 -98 -33.501s-75.667 -13 -119 -13
c-52.667 0 -100 6.83301 -142 20.5s-77.667 33.667 -107 60s-51.833 58.5 -67.5 96.5s-23.5 81 -23.5 129c0 47.333 8.5 89.666 25.5 126.999s40.833 69 71.5 95s67.5 46 110.5 60s90.5 21 142.5 21c50.667 0 96.834 -4.16699 138.501 -12.5s78.834 -18.5 111.501 -30.5h4
v58c0 77.333 -20.167 136.833 -60.5 178.5s-106.833 62.5 -199.5 62.5c-48 0 -93.167 -4.5 -135.5 -13.5s-84.5 -21.5 -126.5 -37.5v130c16.667 8 35.167 15.333 55.5 22s42.833 12.5 67.5 17.5s50.5 9 77.5 12s53.833 4.5 80.5 4.5zM449.998 106.998
c34 0 65.668 3.66797 95.001 11.001s56 16.833 80 28.5s45.167 24.667 63.5 39s33.5 28.5 45.5 42.5c-20.667 52 -33 114.667 -37 188c-26.667 7.33301 -61.334 15.166 -104.001 23.499s-85 12.5 -127 12.5c-66 0 -117.667 -14 -155 -42s-56 -71 -56 -129
c0 -29.333 4.83301 -55 14.5 -77s23 -40.167 40 -54.5s37.5 -25 61.5 -32s50.333 -10.5 79 -10.5zM1095 841.999c-35.333 0 -67.167 -6.99902 -95.5 -20.999s-52.833 -33 -73.5 -57s-37.167 -52.167 -49.5 -84.5s-20.166 -66.833 -23.499 -103.5h463
c0 37.333 -4.83301 72.166 -14.5 104.499s-23.834 60.5 -42.501 84.5s-41.667 42.833 -69 56.5s-59 20.5 -95 20.5z" />
    <glyph glyph-name="ccedilla" unicode="&#xe7;" horiz-adv-x="898" 
d="M462 -16c-52 8.66699 -100.498 25.002 -145.498 49.002s-83.833 55.833 -116.5 95.5s-58.334 87.167 -77.001 142.5s-28 119.333 -28 192c0 62.667 6.5 119 19.5 169s30.833 94 53.5 132s49.167 70.333 79.5 97s62.666 48.5 96.999 65.5s69.833 29.333 106.5 37
s72.334 11.5 107.001 11.5c46 0 89.833 -4.83301 131.5 -14.5s77.834 -23.167 108.501 -40.5v-129c-42.667 16 -81.667 28 -117 36s-71 12 -107 12c-40 0 -78.667 -6.33301 -116 -19s-71 -33.5 -101 -62.5s-54.167 -67.667 -72.5 -116s-27.5 -107.166 -27.5 -176.499
c0 -51.333 6.83301 -98.666 20.5 -141.999s34 -80.833 61 -112.5s60.833 -56.334 101.5 -74.001s87.667 -26.5 141 -26.5c38 0 76.833 4.16699 116.5 12.5s78.167 20.166 115.5 35.499v-129c-10.667 -6.66699 -24.334 -13.167 -41.001 -19.5s-35.167 -11.833 -55.5 -16.5
s-42 -8.66699 -65 -12s-46.167 -5.33301 -69.5 -6l-28 -101c26.667 -4 51.167 -10.167 73.5 -18.5s41.5 -19.166 57.5 -32.499s28.333 -29.5 37 -48.5s13 -40.833 13 -65.5c0 -34.667 -7.66699 -64.5 -23 -89.5s-35.833 -45.667 -61.5 -62s-55.167 -28.333 -88.5 -36
s-68 -11.5 -104 -11.5c-28.667 0 -54.5 1.83301 -77.5 5.5s-41.5 8.16699 -55.5 13.5v113c8 -2.66699 17.167 -5 27.5 -7s21 -3.83301 32 -5.5s21.667 -2.83398 32 -3.50098s19.5 -1 27.5 -1c19.333 0 38.166 1.16699 56.499 3.5s34.833 6.66602 49.5 12.999
s26.5 14.666 35.5 24.999s13.5 23.5 13.5 39.5c0 14 -4.66699 25.833 -14 35.5s-22.5 17.5 -39.5 23.5s-37.667 10.5 -62 13.5s-51.5 5.16699 -81.5 6.5z" />
    <glyph glyph-name="egrave" unicode="&#xe8;" horiz-adv-x="1019" 
d="M477 1473l123 -349h-130l-161 349h168zM522 842c-35.333 0 -68.166 -6.99902 -98.499 -20.999s-56.833 -33 -79.5 -57s-41 -52.167 -55 -84.5s-22.667 -66.833 -26 -103.5h480c0 37.333 -4.83301 72.166 -14.5 104.499s-23.834 60.5 -42.501 84.5
s-41.667 42.833 -69 56.5s-59 20.5 -95 20.5zM607 110.001c51.333 0 98.1689 4.16602 140.502 12.499s84.5 20.166 126.5 35.499v-129c-34 -16.667 -76 -29.834 -126 -39.501s-103.667 -14.5 -161 -14.5c-68 0 -131.833 8.66699 -191.5 26s-111.834 45.333 -156.501 84
s-79.834 89.167 -105.501 151.5s-38.5 137.5 -38.5 225.5c0 86.667 12 161.834 36 225.501s56 116.834 96 159.501s86 74.667 138 96s106.333 32 163 32c53.333 0 103.166 -8.83301 149.499 -26.5s86.5 -45.5 120.5 -83.5s60.833 -87 80.5 -147s29.5 -132 29.5 -216v-20.5
c0 -5.66699 -0.333008 -18.5 -1 -38.5h-652c0 -60.667 9.16699 -112.167 27.5 -154.5s43.333 -76.666 75 -102.999s68.834 -45.5 111.501 -57.5s88.667 -18 138 -18z" />
    <glyph glyph-name="eacute" unicode="&#xe9;" horiz-adv-x="1019" 
d="M743 1473l-161 -349h-130l123 349h168zM522 842c-35.333 0 -68.166 -6.99902 -98.499 -20.999s-56.833 -33 -79.5 -57s-41 -52.167 -55 -84.5s-22.667 -66.833 -26 -103.5h480c0 37.333 -4.83301 72.166 -14.5 104.499s-23.834 60.5 -42.501 84.5
s-41.667 42.833 -69 56.5s-59 20.5 -95 20.5zM607 110.001c51.333 0 98.1689 4.16602 140.502 12.499s84.5 20.166 126.5 35.499v-129c-34 -16.667 -76 -29.834 -126 -39.501s-103.667 -14.5 -161 -14.5c-68 0 -131.833 8.66699 -191.5 26s-111.834 45.333 -156.501 84
s-79.834 89.167 -105.501 151.5s-38.5 137.5 -38.5 225.5c0 86.667 12 161.834 36 225.501s56 116.834 96 159.501s86 74.667 138 96s106.333 32 163 32c53.333 0 103.166 -8.83301 149.499 -26.5s86.5 -45.5 120.5 -83.5s60.833 -87 80.5 -147s29.5 -132 29.5 -216v-20.5
c0 -5.66699 -0.333008 -18.5 -1 -38.5h-652c0 -60.667 9.16699 -112.167 27.5 -154.5s43.333 -76.666 75 -102.999s68.834 -45.5 111.501 -57.5s88.667 -18 138 -18z" />
    <glyph glyph-name="ecircumflex" unicode="&#xea;" horiz-adv-x="1019" 
d="M598 1473l210 -349h-140l-147 246h-4l-146 -246h-140l210 349h157zM522 842c-35.333 0 -68.166 -6.99902 -98.499 -20.999s-56.833 -33 -79.5 -57s-41 -52.167 -55 -84.5s-22.667 -66.833 -26 -103.5h480c0 37.333 -4.83301 72.166 -14.5 104.499
s-23.834 60.5 -42.501 84.5s-41.667 42.833 -69 56.5s-59 20.5 -95 20.5zM607 110.001c51.333 0 98.1689 4.16602 140.502 12.499s84.5 20.166 126.5 35.499v-129c-34 -16.667 -76 -29.834 -126 -39.501s-103.667 -14.5 -161 -14.5c-68 0 -131.833 8.66699 -191.5 26
s-111.834 45.333 -156.501 84s-79.834 89.167 -105.501 151.5s-38.5 137.5 -38.5 225.5c0 86.667 12 161.834 36 225.501s56 116.834 96 159.501s86 74.667 138 96s106.333 32 163 32c53.333 0 103.166 -8.83301 149.499 -26.5s86.5 -45.5 120.5 -83.5s60.833 -87 80.5 -147
s29.5 -132 29.5 -216v-20.5c0 -5.66699 -0.333008 -18.5 -1 -38.5h-652c0 -60.667 9.16699 -112.167 27.5 -154.5s43.333 -76.666 75 -102.999s68.834 -45.5 111.501 -57.5s88.667 -18 138 -18z" />
    <glyph glyph-name="edieresis" unicode="&#xeb;" horiz-adv-x="1019" 
d="M253 1171v167h159v-167h-159zM634 1171v167h159v-167h-159zM522 842c-35.333 0 -68.166 -6.99902 -98.499 -20.999s-56.833 -33 -79.5 -57s-41 -52.167 -55 -84.5s-22.667 -66.833 -26 -103.5h480c0 37.333 -4.83301 72.166 -14.5 104.499s-23.834 60.5 -42.501 84.5
s-41.667 42.833 -69 56.5s-59 20.5 -95 20.5zM607 110.001c51.333 0 98.1689 4.16602 140.502 12.499s84.5 20.166 126.5 35.499v-129c-34 -16.667 -76 -29.834 -126 -39.501s-103.667 -14.5 -161 -14.5c-68 0 -131.833 8.66699 -191.5 26s-111.834 45.333 -156.501 84
s-79.834 89.167 -105.501 151.5s-38.5 137.5 -38.5 225.5c0 86.667 12 161.834 36 225.501s56 116.834 96 159.501s86 74.667 138 96s106.333 32 163 32c53.333 0 103.166 -8.83301 149.499 -26.5s86.5 -45.5 120.5 -83.5s60.833 -87 80.5 -147s29.5 -132 29.5 -216v-20.5
c0 -5.66699 -0.333008 -18.5 -1 -38.5h-652c0 -60.667 9.16699 -112.167 27.5 -154.5s43.333 -76.666 75 -102.999s68.834 -45.5 111.501 -57.5s88.667 -18 138 -18z" />
    <glyph glyph-name="igrave" unicode="&#xec;" horiz-adv-x="475" 
d="M160 0v950h155v-950h-155zM195 1473l123 -349h-130l-161 349h168zM-181 950z" />
    <glyph glyph-name="iacute" unicode="&#xed;" horiz-adv-x="475" 
d="M160 0v950h155v-950h-155zM468 1473l-161 -349h-130l123 349h168zM-38 950z" />
    <glyph glyph-name="icircumflex" unicode="&#xee;" horiz-adv-x="475" 
d="M160 0v950h155v-950h-155zM324 1473l210 -349h-140l-147 246h-4l-146 -246h-140l210 349h157zM-104 950z" />
    <glyph glyph-name="idieresis" unicode="&#xef;" horiz-adv-x="475" 
d="M160 0v950h155v-950h-155zM-25 1171v167h159v-167h-159zM356 1171v167h159v-167h-159zM-105 950z" />
    <glyph glyph-name="eth" unicode="&#xf0;" horiz-adv-x="1077" 
d="M891 1220l-194.001 -52.9951c36.667 -46.667 71.334 -96.334 104.001 -149.001s61.334 -107.834 86.001 -165.501s44.167 -117.834 58.5 -180.501s21.5 -127 21.5 -193c0 -72.667 -9.83301 -139.667 -29.5 -201s-48 -114.5 -85 -159.5s-82.333 -80.167 -136 -105.5
s-114.167 -38 -181.5 -38c-69.333 0 -131.333 11.5 -186 34.5s-100.834 55.167 -138.501 96.5s-66.334 91.166 -86.001 149.499s-29.5 122.833 -29.5 193.5c0 71.333 10.333 136.333 31 195s49.334 109 86.001 151s79.834 74.667 129.501 98s103.5 35 161.5 35
c52 0 97.167 -8 135.5 -24s73.166 -39 104.499 -69l3 3c-25.333 50 -54.5 99.333 -87.5 148s-68.5 96 -106.5 142l-264 -72l-35 124l204 56c-37.333 39.333 -74.833 76.666 -112.5 111.999l-110.5 100h194c27.333 -23.333 56 -49.333 86 -78s60.333 -60 91 -94l251 69z
M807.999 468.005c0 60 -8.16797 111.17 -24.501 153.503s-37.666 76.333 -63.999 102s-55.833 44.167 -88.5 55.5s-65.667 17 -99 17c-40.667 0 -77.834 -7.83301 -111.501 -23.5s-62.667 -38.334 -87 -68.001s-43.166 -66 -56.499 -109s-20 -91.833 -20 -146.5
c0 -54 6.83301 -102.333 20.5 -145s32.667 -78.5 57 -107.5s53.666 -51.167 87.999 -66.5s71.833 -23 112.5 -23s77.834 8.5 111.501 25.5s62.5 41.167 86.5 72.5s42.5 69.166 55.5 113.499s19.5 94.166 19.5 149.499z" />
    <glyph glyph-name="ntilde" unicode="&#xf1;" horiz-adv-x="1080" 
d="M300 818h3.00098c17.333 22 36.5 42.5 57.5 61.5s44.5 35.667 70.5 50s54.5 25.5 85.5 33.5s64.833 12 101.5 12c43.333 0 84 -6 122 -18s71 -31.333 99 -58s50.167 -61.5 66.5 -104.5s24.5 -95.833 24.5 -158.5v-636h-155v611c0 82 -15.833 141 -47.5 177
s-77.834 54 -138.501 54c-53.333 0 -105 -14.833 -155 -44.5s-93 -70.5 -129 -122.5v-675h-155v950h120zM221.001 1178v23c0 22.667 2.5 45.167 7.5 67.5s14 42.666 27 60.999s30.5 33 52.5 44s49 16.5 81 16.5c27.333 0 54 -4.83301 80 -14.5s50 -20.5 72 -32.5
s43.5 -23 64.5 -33s39.5 -15 55.5 -15c20.667 0 35.834 7.33301 45.501 22s14.5 36.334 14.5 65.001h122v-23c0 -22.667 -2.5 -45.167 -7.5 -67.5s-14 -42.666 -27 -60.999s-30.5 -33 -52.5 -44s-49 -16.5 -81 -16.5c-27.333 0 -54 4.83301 -80 14.5s-50 20.5 -72 32.5
s-43.5 23 -64.5 33s-39.5 15 -55.5 15c-20.667 0 -35.834 -7.33301 -45.501 -22s-14.5 -36.334 -14.5 -65.001h-122zM182.001 950z" />
    <glyph glyph-name="ograve" unicode="&#xf2;" horiz-adv-x="1092" 
d="M835 474c0 58.667 -7.16699 110.834 -21.5 156.501s-34.333 84.334 -60 116.001s-56.167 55.667 -91.5 72s-74 24.5 -116 24.5s-80.667 -8.16699 -116 -24.5s-65.833 -40.333 -91.5 -72s-45.667 -70.334 -60 -116.001s-21.5 -97.834 -21.5 -156.501
c0 -58 7.16699 -109.833 21.5 -155.5s34.5 -84.167 60.5 -115.5s56.667 -55.166 92 -71.499s74 -24.5 116 -24.5s80.5 8.16699 115.5 24.5s65.333 40.166 91 71.499s45.667 69.833 60 115.5s21.5 97.5 21.5 155.5zM997 474c0 -74.667 -10.668 -142.667 -32.001 -204
s-51.5 -113.833 -90.5 -157.5s-86.167 -77.5 -141.5 -101.5s-117.333 -36 -186 -36c-70.667 0 -133.834 12 -189.501 36s-103 57.833 -142 101.5s-68.833 96.167 -89.5 157.5s-31 129.333 -31 204c0 75.333 10.667 143.666 32 204.999s51.5 114 90.5 158s86.333 78 142 102
s117.834 36 186.501 36c70 0 133 -12 189 -36s103.333 -58 142 -102s68.334 -96.667 89.001 -158s31 -129.666 31 -204.999zM491.999 1473l123 -349h-130l-161 349h168zM115.999 950z" />
    <glyph glyph-name="oacute" unicode="&#xf3;" horiz-adv-x="1092" 
d="M835 474c0 58.667 -7.16699 110.834 -21.5 156.501s-34.333 84.334 -60 116.001s-56.167 55.667 -91.5 72s-74 24.5 -116 24.5s-80.667 -8.16699 -116 -24.5s-65.833 -40.333 -91.5 -72s-45.667 -70.334 -60 -116.001s-21.5 -97.834 -21.5 -156.501
c0 -58 7.16699 -109.833 21.5 -155.5s34.5 -84.167 60.5 -115.5s56.667 -55.166 92 -71.499s74 -24.5 116 -24.5s80.5 8.16699 115.5 24.5s65.333 40.166 91 71.499s45.667 69.833 60 115.5s21.5 97.5 21.5 155.5zM997 474c0 -74.667 -10.668 -142.667 -32.001 -204
s-51.5 -113.833 -90.5 -157.5s-86.167 -77.5 -141.5 -101.5s-117.333 -36 -186 -36c-70.667 0 -133.834 12 -189.501 36s-103 57.833 -142 101.5s-68.833 96.167 -89.5 157.5s-31 129.333 -31 204c0 75.333 10.667 143.666 32 204.999s51.5 114 90.5 158s86.333 78 142 102
s117.834 36 186.501 36c70 0 133 -12 189 -36s103.333 -58 142 -102s68.334 -96.667 89.001 -158s31 -129.666 31 -204.999zM780.999 1473l-161 -349h-130l123 349h168zM274.999 950z" />
    <glyph glyph-name="ocircumflex" unicode="&#xf4;" horiz-adv-x="1092" 
d="M835 474c0 58.667 -7.16699 110.834 -21.5 156.501s-34.333 84.334 -60 116.001s-56.167 55.667 -91.5 72s-74 24.5 -116 24.5s-80.667 -8.16699 -116 -24.5s-65.833 -40.333 -91.5 -72s-45.667 -70.334 -60 -116.001s-21.5 -97.834 -21.5 -156.501
c0 -58 7.16699 -109.833 21.5 -155.5s34.5 -84.167 60.5 -115.5s56.667 -55.166 92 -71.499s74 -24.5 116 -24.5s80.5 8.16699 115.5 24.5s65.333 40.166 91 71.499s45.667 69.833 60 115.5s21.5 97.5 21.5 155.5zM997 474c0 -74.667 -10.668 -142.667 -32.001 -204
s-51.5 -113.833 -90.5 -157.5s-86.167 -77.5 -141.5 -101.5s-117.333 -36 -186 -36c-70.667 0 -133.834 12 -189.501 36s-103 57.833 -142 101.5s-68.833 96.167 -89.5 157.5s-31 129.333 -31 204c0 75.333 10.667 143.666 32 204.999s51.5 114 90.5 158s86.333 78 142 102
s117.834 36 186.501 36c70 0 133 -12 189 -36s103.333 -58 142 -102s68.334 -96.667 89.001 -158s31 -129.666 31 -204.999zM619.999 1473l210 -349h-140l-147 246h-4l-146 -246h-140l210 349h157zM191.999 950z" />
    <glyph glyph-name="otilde" unicode="&#xf5;" horiz-adv-x="1092" 
d="M835 474c0 58.667 -7.16699 110.834 -21.5 156.501s-34.333 84.334 -60 116.001s-56.167 55.667 -91.5 72s-74 24.5 -116 24.5s-80.667 -8.16699 -116 -24.5s-65.833 -40.333 -91.5 -72s-45.667 -70.334 -60 -116.001s-21.5 -97.834 -21.5 -156.501
c0 -58 7.16699 -109.833 21.5 -155.5s34.5 -84.167 60.5 -115.5s56.667 -55.166 92 -71.499s74 -24.5 116 -24.5s80.5 8.16699 115.5 24.5s65.333 40.166 91 71.499s45.667 69.833 60 115.5s21.5 97.5 21.5 155.5zM997 474c0 -74.667 -10.668 -142.667 -32.001 -204
s-51.5 -113.833 -90.5 -157.5s-86.167 -77.5 -141.5 -101.5s-117.333 -36 -186 -36c-70.667 0 -133.834 12 -189.501 36s-103 57.833 -142 101.5s-68.833 96.167 -89.5 157.5s-31 129.333 -31 204c0 75.333 10.667 143.666 32 204.999s51.5 114 90.5 158s86.333 78 142 102
s117.834 36 186.501 36c70 0 133 -12 189 -36s103.333 -58 142 -102s68.334 -96.667 89.001 -158s31 -129.666 31 -204.999zM227.999 1178v23c0 22.667 2.5 45.167 7.5 67.5s14 42.666 27 60.999s30.5 33 52.5 44s49 16.5 81 16.5c27.333 0 54 -4.83301 80 -14.5
s50 -20.5 72 -32.5s43.5 -23 64.5 -33s39.5 -15 55.5 -15c20.667 0 35.834 7.33301 45.501 22s14.5 36.334 14.5 65.001h122v-23c0 -22.667 -2.5 -45.167 -7.5 -67.5s-14 -42.666 -27 -60.999s-30.5 -33 -52.5 -44s-49 -16.5 -81 -16.5c-27.333 0 -54 4.83301 -80 14.5
s-50 20.5 -72 32.5s-43.5 23 -64.5 33s-39.5 15 -55.5 15c-20.667 0 -35.834 -7.33301 -45.501 -22s-14.5 -36.334 -14.5 -65.001h-122zM188.999 950z" />
    <glyph glyph-name="odieresis" unicode="&#xf6;" horiz-adv-x="1092" 
d="M835 474c0 58.667 -7.16699 110.834 -21.5 156.501s-34.333 84.334 -60 116.001s-56.167 55.667 -91.5 72s-74 24.5 -116 24.5s-80.667 -8.16699 -116 -24.5s-65.833 -40.333 -91.5 -72s-45.667 -70.334 -60 -116.001s-21.5 -97.834 -21.5 -156.501
c0 -58 7.16699 -109.833 21.5 -155.5s34.5 -84.167 60.5 -115.5s56.667 -55.166 92 -71.499s74 -24.5 116 -24.5s80.5 8.16699 115.5 24.5s65.333 40.166 91 71.499s45.667 69.833 60 115.5s21.5 97.5 21.5 155.5zM997 474c0 -74.667 -10.668 -142.667 -32.001 -204
s-51.5 -113.833 -90.5 -157.5s-86.167 -77.5 -141.5 -101.5s-117.333 -36 -186 -36c-70.667 0 -133.834 12 -189.501 36s-103 57.833 -142 101.5s-68.833 96.167 -89.5 157.5s-31 129.333 -31 204c0 75.333 10.667 143.666 32 204.999s51.5 114 90.5 158s86.333 78 142 102
s117.834 36 186.501 36c70 0 133 -12 189 -36s103.333 -58 142 -102s68.334 -96.667 89.001 -158s31 -129.666 31 -204.999zM274.999 1171v167h159v-167h-159zM655.999 1171v167h159v-167h-159zM194.999 950z" />
    <glyph glyph-name="divide" unicode="&#xf7;" 
d="M445 257h160v-165h-160v165zM935 587v-132h-820v132h820zM445 950h160v-165h-160v165z" />
    <glyph glyph-name="oslash" unicode="&#xf8;" horiz-adv-x="1092" 
d="M95 60l84.999 97c-28 42 -49.167 89.5 -63.5 142.5s-21.5 111.167 -21.5 174.5c0 75.333 10.667 143.666 32 204.999s51.5 114 90.5 158s86.333 78 142 102s117.834 36 186.501 36c55.333 0 106 -7.5 152 -22.5s87.333 -36.5 124 -64.5l76 87l99 -85l-86 -98
c28 -42 49.333 -89.667 64 -143s22 -111.666 22 -174.999c0 -74.667 -10.667 -142.667 -32 -204s-51.5 -113.833 -90.5 -157.5s-86.167 -77.5 -141.5 -101.5s-117.333 -36 -186 -36c-56 0 -107.167 7.33301 -153.5 22s-87.5 36 -123.5 64l-76 -86zM256.999 474
c0 -72.667 11.333 -136.331 34 -190.998l433 493c-48.667 44.667 -108 67 -178 67c-42 0 -80.667 -8.16699 -116 -24.5s-65.833 -40.333 -91.5 -72s-45.667 -70.334 -60 -116.001s-21.5 -97.834 -21.5 -156.501zM834.999 474.003c0 37.333 -3 72.001 -9 104.001
s-14.667 61.333 -26 88l-432 -493c49.333 -44 109 -66 179 -66c42 0 80.5 8.16699 115.5 24.5s65.333 40.166 91 71.499s45.667 69.833 60 115.5s21.5 97.5 21.5 155.5z" />
    <glyph glyph-name="ugrave" unicode="&#xf9;" horiz-adv-x="1060" 
d="M527 -25c-49.333 0 -93.667 5.33398 -133 16.001s-73.833 25.667 -103.5 45s-54.834 42.5 -75.501 69.5s-37 56.5 -49 88.5c-9.33301 24 -16 50.333 -20 79s-6 60 -6 94v583h155v-582c0 -52.667 7 -96.667 21 -132c16 -40 41.833 -71.5 77.5 -94.5
s81.167 -34.5 136.5 -34.5c58.667 0 105.834 12.667 141.501 38s61.167 59.333 76.5 102c11.333 32.667 17 73 17 121v582h155v-584c0 -32 -1.83301 -61.833 -5.5 -89.5s-9.5 -53.167 -17.5 -76.5c-12 -32.667 -28.5 -62.834 -49.5 -90.501s-46.833 -51.5 -77.5 -71.5
s-66.167 -35.5 -106.5 -46.5s-85.833 -16.5 -136.5 -16.5zM477.999 1473l123 -349h-130l-161 349h168zM101.999 950.001z" />
    <glyph glyph-name="uacute" unicode="&#xfa;" horiz-adv-x="1060" 
d="M527 -25c-49.333 0 -93.667 5.33398 -133 16.001s-73.833 25.667 -103.5 45s-54.834 42.5 -75.501 69.5s-37 56.5 -49 88.5c-9.33301 24 -16 50.333 -20 79s-6 60 -6 94v583h155v-582c0 -52.667 7 -96.667 21 -132c16 -40 41.833 -71.5 77.5 -94.5
s81.167 -34.5 136.5 -34.5c58.667 0 105.834 12.667 141.501 38s61.167 59.333 76.5 102c11.333 32.667 17 73 17 121v582h155v-584c0 -32 -1.83301 -61.833 -5.5 -89.5s-9.5 -53.167 -17.5 -76.5c-12 -32.667 -28.5 -62.834 -49.5 -90.501s-46.833 -51.5 -77.5 -71.5
s-66.167 -35.5 -106.5 -46.5s-85.833 -16.5 -136.5 -16.5zM753.999 1473l-161 -349h-130l123 349h168zM247.999 950.001z" />
    <glyph glyph-name="ucircumflex" unicode="&#xfb;" horiz-adv-x="1060" 
d="M527 -25c-49.333 0 -93.667 5.33398 -133 16.001s-73.833 25.667 -103.5 45s-54.834 42.5 -75.501 69.5s-37 56.5 -49 88.5c-9.33301 24 -16 50.333 -20 79s-6 60 -6 94v583h155v-582c0 -52.667 7 -96.667 21 -132c16 -40 41.833 -71.5 77.5 -94.5
s81.167 -34.5 136.5 -34.5c58.667 0 105.834 12.667 141.501 38s61.167 59.333 76.5 102c11.333 32.667 17 73 17 121v582h155v-584c0 -32 -1.83301 -61.833 -5.5 -89.5s-9.5 -53.167 -17.5 -76.5c-12 -32.667 -28.5 -62.834 -49.5 -90.501s-46.833 -51.5 -77.5 -71.5
s-66.167 -35.5 -106.5 -46.5s-85.833 -16.5 -136.5 -16.5zM609.999 1473l210 -349h-140l-147 246h-4l-146 -246h-140l210 349h157zM181.999 950.001z" />
    <glyph glyph-name="udieresis" unicode="&#xfc;" horiz-adv-x="1060" 
d="M527 -25c-49.333 0 -93.667 5.33398 -133 16.001s-73.833 25.667 -103.5 45s-54.834 42.5 -75.501 69.5s-37 56.5 -49 88.5c-9.33301 24 -16 50.333 -20 79s-6 60 -6 94v583h155v-582c0 -52.667 7 -96.667 21 -132c16 -40 41.833 -71.5 77.5 -94.5
s81.167 -34.5 136.5 -34.5c58.667 0 105.834 12.667 141.501 38s61.167 59.333 76.5 102c11.333 32.667 17 73 17 121v582h155v-584c0 -32 -1.83301 -61.833 -5.5 -89.5s-9.5 -53.167 -17.5 -76.5c-12 -32.667 -28.5 -62.834 -49.5 -90.501s-46.833 -51.5 -77.5 -71.5
s-66.167 -35.5 -106.5 -46.5s-85.833 -16.5 -136.5 -16.5zM259.999 1171v167h159v-167h-159zM640.999 1171v167h159v-167h-159zM179.999 950.001z" />
    <glyph glyph-name="yacute" unicode="&#xfd;" horiz-adv-x="982" 
d="M30 950h159l295 -745h6l299 745h163l-593 -1415h-154l203 484zM703 1473l-161 -349h-130l123 349h168zM197 950z" />
    <glyph glyph-name="thorn" unicode="&#xfe;" horiz-adv-x="1087" 
d="M992 489c0 -66.667 -6.49902 -125.502 -19.499 -176.502s-30.167 -95.667 -51.5 -134s-46.333 -70.5 -75 -96.5s-58.334 -46.833 -89.001 -62.5s-61.834 -27 -93.501 -34s-61.5 -10.5 -89.5 -10.5c-57.333 0 -107.5 9.5 -150.5 28.5s-81.5 47.167 -115.5 84.5h-3v-553
h-155v1913h155v-587h3c34 37.333 73.5 65.666 118.5 84.999s96.5 29 154.5 29c27.333 0 56.333 -3.16699 87 -9.5s61.167 -16.666 91.5 -30.999s59.5 -33.666 87.5 -57.999s52.833 -54.5 74.5 -90.5s38.834 -78.667 51.501 -128s19 -105.666 19 -168.999zM828.001 480.998
c0 72.667 -8.83301 133.169 -26.5 181.502s-40.5 85.666 -68.5 111.999s-58 44.166 -90 53.499s-62.667 14 -92 14c-48 0 -92.833 -9.83301 -134.5 -29.5s-78.834 -45.834 -111.501 -78.501v-519c32.667 -33.333 69.834 -59.666 111.501 -78.999s86.5 -29 134.5 -29
c29.333 0 60 5.5 92 16.5s62 30.5 90 58.5s50.833 66.667 68.5 116s26.5 110.333 26.5 183z" />
    <glyph glyph-name="ydieresis" unicode="&#xff;" horiz-adv-x="982" 
d="M30 950h159l295 -745h6l299 745h163l-593 -1415h-154l203 484zM217 1171v167h159v-167h-159zM598 1171v167h159v-167h-159zM137 950z" />
    <glyph glyph-name="Amacron" unicode="&#x100;" horiz-adv-x="1301" 
d="M35 0l545 1338h141l545 -1338h-177l-160 403h-559l-160 -403h-175zM649 1130c-59.333 -166.667 -116.333 -318 -171 -454l-50 -126h443l-50 126c-54.667 138.667 -110.667 290 -168 454h-4zM379 1581h540v-133h-540v133zM299 1338z" />
    <glyph glyph-name="amacron" unicode="&#x101;" horiz-adv-x="1003" 
d="M706 105l-4.00195 0.000976562c-12.667 -16 -28.667 -31.833 -48 -47.5s-41.666 -29.667 -66.999 -42s-53 -22.166 -83 -29.499s-62 -11 -96 -11c-46 0 -88.167 6.83301 -126.5 20.5s-71.333 33.667 -99 60s-49.167 58.5 -64.5 96.5s-23 81 -23 129
c0 47.333 8.5 89.666 25.5 126.999s40.833 69 71.5 95s67.5 46 110.5 60s90.5 21 142.5 21c49.333 -0.666992 95 -5 137 -13s79.333 -18 112 -30h4v66c0 26 -1.66699 49 -5 69s-9 37.667 -17 53c-17.333 32 -45 58.5 -83 79.5s-89.333 31.5 -154 31.5
c-48 0 -93.167 -4.5 -135.5 -13.5s-84.5 -21.5 -126.5 -37.5v130c16 8 34.833 15.5 56.5 22.5s44.5 13 68.5 18s49.333 8.83301 76 11.5s53.334 4 80.001 4c96 0 174.5 -17 235.5 -51s104.833 -79 131.5 -135c10 -21.333 17.167 -44.833 21.5 -70.5s6.5 -53.834 6.5 -84.501
v-634h-130zM697.998 417.001c-28.667 8 -62.665 15.6689 -101.998 23.002s-82.666 11.333 -129.999 12c-66 0 -117.667 -14 -155 -42s-56 -71 -56 -129c0 -29.333 4.66699 -55 14 -77s22.166 -40.167 38.499 -54.5s35.666 -25 57.999 -32s46.166 -10.5 71.499 -10.5
c33.333 0 64.333 4.83301 93 14.5s54.167 21.167 76.5 34.5s41.333 26.666 57 39.999s27.167 23.666 34.5 30.999v190zM236 1300h540v-129h-540v129zM156 950.003z" />
    <glyph glyph-name="Abreve" unicode="&#x102;" horiz-adv-x="1301" 
d="M35 0l545 1338h141l545 -1338h-177l-160 403h-559l-160 -403h-175zM649 1130c-59.333 -166.667 -116.333 -318 -171 -454l-50 -126h443l-50 126c-54.667 138.667 -110.667 290 -168 454h-4zM648 1530c18.667 0 37.5 2.5 56.5 7.5s36.5 13.167 52.5 24.5
s29.667 25.833 41 43.5s19 39.167 23 64.5h133c-4.66699 -42.667 -15.667 -80.167 -33 -112.5s-39.5 -59.5 -66.5 -81.5s-58.167 -38.667 -93.5 -50s-73 -17 -113 -17s-77.667 5.66699 -113 17s-66.5 28 -93.5 50s-49.167 49.167 -66.5 81.5s-28.333 69.833 -33 112.5h133
c4 -25.333 11.667 -46.833 23 -64.5s25 -32.167 41 -43.5s33.5 -19.5 52.5 -24.5s37.833 -7.5 56.5 -7.5zM301 1338z" />
    <glyph glyph-name="abreve" unicode="&#x103;" horiz-adv-x="1003" 
d="M706 105l-4.00195 0.000976562c-12.667 -16 -28.667 -31.833 -48 -47.5s-41.666 -29.667 -66.999 -42s-53 -22.166 -83 -29.499s-62 -11 -96 -11c-46 0 -88.167 6.83301 -126.5 20.5s-71.333 33.667 -99 60s-49.167 58.5 -64.5 96.5s-23 81 -23 129
c0 47.333 8.5 89.666 25.5 126.999s40.833 69 71.5 95s67.5 46 110.5 60s90.5 21 142.5 21c49.333 -0.666992 95 -5 137 -13s79.333 -18 112 -30h4v66c0 26 -1.66699 49 -5 69s-9 37.667 -17 53c-17.333 32 -45 58.5 -83 79.5s-89.333 31.5 -154 31.5
c-48 0 -93.167 -4.5 -135.5 -13.5s-84.5 -21.5 -126.5 -37.5v130c16 8 34.833 15.5 56.5 22.5s44.5 13 68.5 18s49.333 8.83301 76 11.5s53.334 4 80.001 4c96 0 174.5 -17 235.5 -51s104.833 -79 131.5 -135c10 -21.333 17.167 -44.833 21.5 -70.5s6.5 -53.834 6.5 -84.501
v-634h-130zM697.998 417.001c-28.667 8 -62.665 15.6689 -101.998 23.002s-82.666 11.333 -129.999 12c-66 0 -117.667 -14 -155 -42s-56 -71 -56 -129c0 -29.333 4.66699 -55 14 -77s22.166 -40.167 38.499 -54.5s35.666 -25 57.999 -32s46.166 -10.5 71.499 -10.5
c33.333 0 64.333 4.83301 93 14.5s54.167 21.167 76.5 34.5s41.333 26.666 57 39.999s27.167 23.666 34.5 30.999v190zM496 1257c49.333 0 88.5 14 117.5 42s48.167 72.333 57.5 133h131c-2.66699 -42.667 -11.167 -82 -25.5 -118s-34.333 -67.167 -60 -93.5
s-57 -47 -94 -62s-79.167 -22.5 -126.5 -22.5s-89.5 7.5 -126.5 22.5s-68.333 35.667 -94 62s-45.667 57.5 -60 93.5s-22.833 75.333 -25.5 118h131c9.33301 -60.667 28.5 -105 57.5 -133s68.167 -42 117.5 -42zM146 950.003z" />
    <glyph glyph-name="Aogonek" unicode="&#x104;" horiz-adv-x="1301" 
d="M1266 0c-19.333 -12 -41.666 -27.5029 -66.999 -46.5029s-49.5 -40.167 -72.5 -63.5s-42.333 -48.166 -58 -74.499s-23.5 -54.166 -23.5 -83.499c0 -23.333 7.83301 -43.666 23.5 -60.999s40.5 -26 74.5 -26c17.333 0 36 1.83301 56 5.5s42.333 9.5 67 17.5v-128
c-19.333 -8.66699 -42.5 -15.834 -69.5 -21.501s-54.167 -8.5 -81.5 -8.5c-35.333 0 -66.333 5 -93 15s-48.834 23.333 -66.501 40s-31 36.167 -40 58.5s-13.5 46.833 -13.5 73.5c0 56.667 17 110.834 51 162.501s79.333 98.5 136 140.5l-160 403h-559l-160 -403h-175
l545 1338h141zM649 1130c-59.333 -166.667 -116.333 -318 -171 -454l-50 -126h443l-50 126c-54.667 138.667 -110.667 290 -168 454h-4z" />
    <glyph glyph-name="aogonek" unicode="&#x105;" horiz-adv-x="1003" 
d="M698 417c-28.667 8 -62.3291 15.6689 -100.996 23.002s-82.334 11.333 -131.001 12c-66 0 -117.667 -14 -155 -42s-56 -71 -56 -129c0 -29.333 4.66699 -55 14 -77s22.166 -40.167 38.499 -54.5s35.666 -25 57.999 -32s46.166 -10.5 71.499 -10.5
c33.333 0 64.333 4.83301 93 14.5s54.167 21.167 76.5 34.5s41.333 26.666 57 39.999s27.167 23.666 34.5 30.999v190zM706.005 105.002l-4.00098 0.000976562c-12.667 -16 -28.667 -31.833 -48 -47.5s-41.666 -29.667 -66.999 -42s-53 -22.166 -83 -29.499s-62 -11 -96 -11
c-46 0 -88.167 6.83301 -126.5 20.5s-71.333 33.667 -99 60s-49.167 58.5 -64.5 96.5s-23 81 -23 129c0 47.333 8.5 89.666 25.5 126.999s40.833 69 71.5 95s67.5 46 110.5 60s90.5 21 142.5 21c52 -0.666992 99 -5.16699 141 -13.5s78 -18.166 108 -29.499h4v66
c0 26 -1.66699 49 -5 69s-9 37.667 -17 53c-17.333 32.667 -45 59.167 -83 79.5s-89.333 30.833 -154 31.5c-48 0 -93.167 -4.5 -135.5 -13.5s-84.5 -21.5 -126.5 -37.5v130c16 8 34.667 15.333 56 22s44.5 12.667 69.5 18s50.5 9.33301 76.5 12s52.333 4 79 4
c96 -0.666992 174.667 -17.834 236 -51.501s105 -78.5 131 -134.5c10 -21.333 17.167 -44.833 21.5 -70.5s6.5 -53.834 6.5 -84.501v-634c-20.667 -13.333 -44.334 -30.666 -71.001 -51.999s-51.834 -44.5 -75.501 -69.5s-43.667 -51 -60 -78s-24.5 -53.167 -24.5 -78.5
c0 -24.667 7.66699 -43.667 23 -57s39 -20 71 -20c18.667 0 38.334 1.83301 59.001 5.5s43.334 9.5 68.001 17.5v-128c-19.333 -8.66699 -43 -15.834 -71 -21.501s-56.667 -8.5 -86 -8.5c-64.667 0 -115.334 14.833 -152.001 44.5s-55 73.167 -55 130.5
c0 36 6.83301 69.167 20.5 99.5s31.834 58.5 54.501 84.5s48.667 50.333 78 73l91 67z" />
    <glyph glyph-name="Cacute" unicode="&#x106;" horiz-adv-x="1207" 
d="M820 1218c-74 0 -143.172 -11.835 -207.505 -35.502s-120.166 -59 -167.499 -106s-84.666 -105.333 -111.999 -175s-41 -150.834 -41 -243.501c0 -92 12.667 -171.833 38 -239.5s61.333 -123.667 108 -168s102.834 -77.166 168.501 -98.499s138.834 -32 219.501 -32
c22 0 45.333 1.16699 70 3.5s49.5 5.66602 74.5 9.99902s49.333 9.33301 73 15s44.834 11.834 63.501 18.501v-144c-39.333 -15.333 -85 -27.166 -137 -35.499s-105.333 -12.5 -160 -12.5c-111.333 0 -210 15.5 -296 46.5s-158.167 75.5 -216.5 133.5
s-102.5 128.833 -132.5 212.5s-45 178.5 -45 284.5c0 104 15.833 199.667 47.5 287s77.334 162.333 137.001 225s132 111.5 217 146.5s180.5 52.5 286.5 52.5c28 0 55.667 -1.16699 83 -3.5s53.5 -5.66602 78.5 -9.99902s48.167 -9.5 69.5 -15.5s39.666 -12.333 54.999 -19
v-144c-40 13.333 -83.667 24.5 -131 33.5s-95 13.5 -143 13.5zM1056 1656l-181 -247h-139l146 247h174zM585.995 1338z" />
    <glyph glyph-name="cacute" unicode="&#x107;" horiz-adv-x="898" 
d="M558 975c46 0 90.002 -4.83008 132.002 -14.4971s78 -23.167 108 -40.5v-129c-42 16 -80.667 28 -116 36s-71.333 12 -108 12c-38.667 0 -77 -6.33301 -115 -19s-72 -33.5 -102 -62.5s-54.167 -67.333 -72.5 -115s-27.5 -106.834 -27.5 -177.501
c0 -51.333 6.83301 -98.666 20.5 -141.999s34 -80.833 61 -112.5s60.833 -56.334 101.5 -74.001s87.667 -26.5 141 -26.5c38.667 0 77.667 4.16699 117 12.5s77.666 20.166 114.999 35.499v-129c-11.333 -6.66699 -26.166 -13.334 -44.499 -20.001s-38.5 -12.5 -60.5 -17.5
s-45.333 -9 -70 -12s-49.334 -4.5 -74.001 -4.5c-64 0 -124.5 9.66699 -181.5 29s-106.833 49 -149.5 89s-76.334 90.667 -101.001 152s-37 134 -37 218c0 62.667 6.5 119 19.5 169s30.833 94 53.5 132s49.167 70.333 79.5 97s62.666 48.5 96.999 65.5
s69.833 29.333 106.5 37s72.334 11.5 107.001 11.5zM737.002 1473l-161 -349h-130l123 349h168zM231.002 950.003z" />
    <glyph glyph-name="Ccircumflex" unicode="&#x108;" horiz-adv-x="1207" 
d="M820 1218c-74 0 -143.172 -11.835 -207.505 -35.502s-120.166 -59 -167.499 -106s-84.666 -105.333 -111.999 -175s-41 -150.834 -41 -243.501c0 -92 12.667 -171.833 38 -239.5s61.333 -123.667 108 -168s102.834 -77.166 168.501 -98.499s138.834 -32 219.501 -32
c22 0 45.333 1.16699 70 3.5s49.5 5.66602 74.5 9.99902s49.333 9.33301 73 15s44.834 11.834 63.501 18.501v-144c-39.333 -15.333 -85 -27.166 -137 -35.499s-105.333 -12.5 -160 -12.5c-111.333 0 -210 15.5 -296 46.5s-158.167 75.5 -216.5 133.5
s-102.5 128.833 -132.5 212.5s-45 178.5 -45 284.5c0 104 15.833 199.667 47.5 287s77.334 162.333 137.001 225s132 111.5 217 146.5s180.5 52.5 286.5 52.5c28 0 55.667 -1.16699 83 -3.5s53.5 -5.66602 78.5 -9.99902s48.167 -9.5 69.5 -15.5s39.666 -12.333 54.999 -19
v-144c-40 13.333 -83.667 24.5 -131 33.5s-95 13.5 -143 13.5zM848.995 1656l216 -247h-158l-137 151h-4l-136 -151h-158l216 247h161zM418.995 1338z" />
    <glyph glyph-name="ccircumflex" unicode="&#x109;" horiz-adv-x="898" 
d="M558 975c46 0 90.002 -4.83008 132.002 -14.4971s78 -23.167 108 -40.5v-129c-42 16 -80.667 28 -116 36s-71.333 12 -108 12c-38.667 0 -77 -6.33301 -115 -19s-72 -33.5 -102 -62.5s-54.167 -67.333 -72.5 -115s-27.5 -106.834 -27.5 -177.501
c0 -51.333 6.83301 -98.666 20.5 -141.999s34 -80.833 61 -112.5s60.833 -56.334 101.5 -74.001s87.667 -26.5 141 -26.5c38.667 0 77.667 4.16699 117 12.5s77.666 20.166 114.999 35.499v-129c-11.333 -6.66699 -26.166 -13.334 -44.499 -20.001s-38.5 -12.5 -60.5 -17.5
s-45.333 -9 -70 -12s-49.334 -4.5 -74.001 -4.5c-64 0 -124.5 9.66699 -181.5 29s-106.833 49 -149.5 89s-76.334 90.667 -101.001 152s-37 134 -37 218c0 62.667 6.5 119 19.5 169s30.833 94 53.5 132s49.167 70.333 79.5 97s62.666 48.5 96.999 65.5
s69.833 29.333 106.5 37s72.334 11.5 107.001 11.5zM613.002 1473l210 -349h-140l-147 246h-4l-146 -246h-140l210 349h157zM185.002 950.003z" />
    <glyph glyph-name="Cdotaccent" unicode="&#x10a;" horiz-adv-x="1207" 
d="M820 1218c-74 0 -143.172 -11.835 -207.505 -35.502s-120.166 -59 -167.499 -106s-84.666 -105.333 -111.999 -175s-41 -150.834 -41 -243.501c0 -92 12.667 -171.833 38 -239.5s61.333 -123.667 108 -168s102.834 -77.166 168.501 -98.499s138.834 -32 219.501 -32
c22 0 45.333 1.16699 70 3.5s49.5 5.66602 74.5 9.99902s49.333 9.33301 73 15s44.834 11.834 63.501 18.501v-144c-39.333 -15.333 -85 -27.166 -137 -35.499s-105.333 -12.5 -160 -12.5c-111.333 0 -210 15.5 -296 46.5s-158.167 75.5 -216.5 133.5
s-102.5 128.833 -132.5 212.5s-45 178.5 -45 284.5c0 104 15.833 199.667 47.5 287s77.334 162.333 137.001 225s132 111.5 217 146.5s180.5 52.5 286.5 52.5c28 0 55.667 -1.16699 83 -3.5s53.5 -5.66602 78.5 -9.99902s48.167 -9.5 69.5 -15.5s39.666 -12.333 54.999 -19
v-144c-40 13.333 -83.667 24.5 -131 33.5s-95 13.5 -143 13.5zM658.995 1448v173h163v-173h-163zM390.995 1338z" />
    <glyph glyph-name="cdotaccent" unicode="&#x10b;" horiz-adv-x="898" 
d="M558 975c46 0 90.002 -4.83008 132.002 -14.4971s78 -23.167 108 -40.5v-129c-42 16 -80.667 28 -116 36s-71.333 12 -108 12c-38.667 0 -77 -6.33301 -115 -19s-72 -33.5 -102 -62.5s-54.167 -67.333 -72.5 -115s-27.5 -106.834 -27.5 -177.501
c0 -51.333 6.83301 -98.666 20.5 -141.999s34 -80.833 61 -112.5s60.833 -56.334 101.5 -74.001s87.667 -26.5 141 -26.5c38.667 0 77.667 4.16699 117 12.5s77.666 20.166 114.999 35.499v-129c-11.333 -6.66699 -26.166 -13.334 -44.499 -20.001s-38.5 -12.5 -60.5 -17.5
s-45.333 -9 -70 -12s-49.334 -4.5 -74.001 -4.5c-64 0 -124.5 9.66699 -181.5 29s-106.833 49 -149.5 89s-76.334 90.667 -101.001 152s-37 134 -37 218c0 62.667 6.5 119 19.5 169s30.833 94 53.5 132s49.167 70.333 79.5 97s62.666 48.5 96.999 65.5
s69.833 29.333 106.5 37s72.334 11.5 107.001 11.5zM455.002 1171v173h163v-173h-163zM187.002 950.003z" />
    <glyph glyph-name="Ccaron" unicode="&#x10c;" horiz-adv-x="1207" 
d="M820 1218c-74 0 -143.172 -11.835 -207.505 -35.502s-120.166 -59 -167.499 -106s-84.666 -105.333 -111.999 -175s-41 -150.834 -41 -243.501c0 -92 12.667 -171.833 38 -239.5s61.333 -123.667 108 -168s102.834 -77.166 168.501 -98.499s138.834 -32 219.501 -32
c22 0 45.333 1.16699 70 3.5s49.5 5.66602 74.5 9.99902s49.333 9.33301 73 15s44.834 11.834 63.501 18.501v-144c-39.333 -15.333 -85 -27.166 -137 -35.499s-105.333 -12.5 -160 -12.5c-111.333 0 -210 15.5 -296 46.5s-158.167 75.5 -216.5 133.5
s-102.5 128.833 -132.5 212.5s-45 178.5 -45 284.5c0 104 15.833 199.667 47.5 287s77.334 162.333 137.001 225s132 111.5 217 146.5s180.5 52.5 286.5 52.5c28 0 55.667 -1.16699 83 -3.5s53.5 -5.66602 78.5 -9.99902s48.167 -9.5 69.5 -15.5s39.666 -12.333 54.999 -19
v-144c-40 13.333 -83.667 24.5 -131 33.5s-95 13.5 -143 13.5zM697.995 1410l-216 247h154l138 -153h4l139 153h154l-216 -247h-157zM426.995 1338z" />
    <glyph glyph-name="ccaron" unicode="&#x10d;" horiz-adv-x="898" 
d="M558 975c46 0 90.002 -4.83008 132.002 -14.4971s78 -23.167 108 -40.5v-129c-42 16 -80.667 28 -116 36s-71.333 12 -108 12c-38.667 0 -77 -6.33301 -115 -19s-72 -33.5 -102 -62.5s-54.167 -67.333 -72.5 -115s-27.5 -106.834 -27.5 -177.501
c0 -51.333 6.83301 -98.666 20.5 -141.999s34 -80.833 61 -112.5s60.833 -56.334 101.5 -74.001s87.667 -26.5 141 -26.5c38.667 0 77.667 4.16699 117 12.5s77.666 20.166 114.999 35.499v-129c-11.333 -6.66699 -26.166 -13.334 -44.499 -20.001s-38.5 -12.5 -60.5 -17.5
s-45.333 -9 -70 -12s-49.334 -4.5 -74.001 -4.5c-64 0 -124.5 9.66699 -181.5 29s-106.833 49 -149.5 89s-76.334 90.667 -101.001 152s-37 134 -37 218c0 62.667 6.5 119 19.5 169s30.833 94 53.5 132s49.167 70.333 79.5 97s62.666 48.5 96.999 65.5
s69.833 29.333 106.5 37s72.334 11.5 107.001 11.5zM466.002 1124l-210 349h140l147 -246h4l146 246h140l-210 -349h-157zM194.002 950.003z" />
    <glyph glyph-name="Dcaron" unicode="&#x10e;" horiz-adv-x="1374" 
d="M1254 675c0 -78 -9.66602 -151.333 -28.999 -220s-48.5 -130.5 -87.5 -185.5s-87.667 -102.5 -146 -142.5s-126.5 -71 -204.5 -93c-44.667 -12.667 -93 -21.5 -145 -26.5s-108.333 -7.5 -169 -7.5h-303v1338h306c60.667 0 117 -2.5 169 -7.5s100.333 -13.833 145 -26.5
c78 -22 146.167 -52.667 204.5 -92s106.666 -85.833 144.999 -139.5s67 -114 86 -181s28.5 -139.167 28.5 -216.5zM1082 675c0 128.667 -28 232.999 -84 312.999s-136.333 136.667 -241 170c-40 12.667 -84.667 21.334 -134 26.001s-105 7 -167 7h-123v-1044h123
c62 0 117.667 2.33301 167 7s94 13.334 134 26.001c104.667 33.333 185 91.666 241 174.999s84 190 84 320zM595.001 1410l-216 247h154l138 -153h4l139 153h154l-216 -247h-157zM324.001 1338z" />
    <glyph glyph-name="dcaron" unicode="&#x10f;" horiz-adv-x="1097" 
d="M257 465c0 -54.667 6.16602 -104.169 18.499 -148.502s30.166 -82 53.499 -113s52 -54.833 86 -71.5s73 -25 117 -25c32.667 0 62.334 4.33301 89.001 13s50.5 19.667 71.5 33s39 27.5 54 42.5s26.833 28.833 35.5 41.5v497c-32 32.667 -69 58.834 -111 78.501
s-87.333 29.5 -136 29.5c-29.333 0 -60.166 -5.5 -92.499 -16.5s-62.333 -30.833 -90 -59.5s-50.5 -67.167 -68.5 -115.5s-27 -110.166 -27 -185.499zM94.999 462.998c0 66 6.49707 124.5 19.4971 175.5s30.167 95.5 51.5 133.5s46.333 69.833 75 95.5
s58.334 46.5 89.001 62.5s61.834 27.5 93.501 34.5s61.5 10.5 89.5 10.5c58 0 108.333 -9.66699 151 -29s81 -47.666 115 -84.999h3v587h155v-1448h-117l-32 106h-4c-12 -15.333 -26 -30.833 -42 -46.5s-34.833 -29.834 -56.5 -42.501s-46.667 -22.834 -75 -30.501
s-61.166 -11.5 -98.499 -11.5c-52 0 -103 8.83301 -153 26.5s-94.5 46 -133.5 85s-70.5 89.333 -94.5 151s-36 136.834 -36 225.501zM1116 1245c0 26 -7.83203 44.833 -23.499 56.5s-35.834 17.5 -60.501 17.5v129c10.667 0.666992 21 1 31 1
c60 0 108.167 -14.333 144.5 -43s54.5 -69.667 54.5 -123c0 -34 -6.33301 -67.333 -19 -100s-32.667 -67 -60 -103h-143c21.333 30.667 39.333 59.667 54 87s22 53.333 22 78z" />
    <glyph glyph-name="Dcroat" unicode="&#x110;" horiz-adv-x="1404" 
d="M60 759h140.001v579h306c60.667 0 117 -2.5 169 -7.5s100.333 -13.833 145 -26.5c78 -22 146.167 -52.667 204.5 -92s106.666 -85.833 144.999 -139.5s67 -114 86 -181s28.5 -139.167 28.5 -216.5c0 -78 -9.66699 -151.333 -29 -220s-48.5 -130.5 -87.5 -185.5
s-87.667 -102.5 -146 -142.5s-126.5 -71 -204.5 -93c-44.667 -12.667 -93 -21.5 -145 -26.5s-108.333 -7.5 -169 -7.5h-303v612h-140v147zM1112 675c0 128.667 -28 232.999 -84 312.999s-136.333 136.667 -241 170c-40 12.667 -84.667 21.334 -134 26.001s-105 7 -167 7
h-123v-432h344v-147h-344v-465h123c62 0 117.667 2.33301 167 7s94 13.334 134 26.001c104.667 33.333 185 91.666 241 174.999s84 190 84 320z" />
    <glyph glyph-name="dcroat" unicode="&#x111;" horiz-adv-x="1097" 
d="M95 463c0 66 6.5 124.499 19.5 175.499s30.333 95.5 52 133.5s46.5 69.833 74.5 95.5s57.5 46.5 88.5 62.5s62.333 27.5 94 34.5s61.5 10.5 89.5 10.5c58 0 108.333 -9.66699 151 -29s81 -47.666 115 -84.999h3v291h-289v133h289v163h155v-163h160v-133h-160v-1152h-117
l-32 106h-4c-12 -16 -26 -31.667 -42 -47s-34.833 -29.333 -56.5 -42s-46.667 -22.834 -75 -30.501s-61.5 -11.5 -99.5 -11.5c-51.333 0 -102 8.83301 -152 26.5s-94.5 46 -133.5 85s-70.5 89.333 -94.5 151s-36 136.834 -36 225.501zM257 464.999
c0 -54.667 6.16992 -104.174 18.5029 -148.507s30.166 -82 53.499 -113s52 -54.833 86 -71.5s73 -25 117 -25c31.333 0 60.666 4.33301 87.999 13s51.5 19.834 72.5 33.501s38.833 27.834 53.5 42.501s26.667 28.334 36 41.001v497c-32 32.667 -69 58.834 -111 78.501
s-87 29.5 -135 29.5c-29.333 0 -60.333 -5.66699 -93 -17s-62.834 -31.166 -90.501 -59.499s-50.5 -66.666 -68.5 -114.999s-27 -110.166 -27 -185.499z" />
    <glyph glyph-name="Emacron" unicode="&#x112;" horiz-adv-x="1129" 
d="M333 147h686v-147h-849v1338h812v-147h-649v-432h577v-147h-577v-465zM309 1581h540v-133h-540v133zM229 1338z" />
    <glyph glyph-name="emacron" unicode="&#x113;" horiz-adv-x="1019" 
d="M250 1300h540v-129h-540v129zM522 842c-35.333 0 -68.166 -6.99902 -98.499 -20.999s-56.833 -33 -79.5 -57s-41 -52.167 -55 -84.5s-22.667 -66.833 -26 -103.5h480c0 37.333 -4.83301 72.166 -14.5 104.499s-23.834 60.5 -42.501 84.5s-41.667 42.833 -69 56.5
s-59 20.5 -95 20.5zM607 110.001c51.333 0 98.1689 4.16602 140.502 12.499s84.5 20.166 126.5 35.499v-129c-34 -16.667 -76 -29.834 -126 -39.501s-103.667 -14.5 -161 -14.5c-68 0 -131.833 8.66699 -191.5 26s-111.834 45.333 -156.501 84
s-79.834 89.167 -105.501 151.5s-38.5 137.5 -38.5 225.5c0 86.667 12 161.834 36 225.501s56 116.834 96 159.501s86 74.667 138 96s106.333 32 163 32c53.333 0 103.166 -8.83301 149.499 -26.5s86.5 -45.5 120.5 -83.5s60.833 -87 80.5 -147s29.5 -132 29.5 -216v-20.5
c0 -5.66699 -0.333008 -18.5 -1 -38.5h-652c0 -60.667 9.16699 -112.167 27.5 -154.5s43.333 -76.666 75 -102.999s68.834 -45.5 111.501 -57.5s88.667 -18 138 -18z" />
    <glyph glyph-name="Ebreve" unicode="&#x114;" horiz-adv-x="1129" 
d="M333 147h686v-147h-849v1338h812v-147h-649v-432h577v-147h-577v-465zM575 1530c18.667 0 37.5 2.5 56.5 7.5s36.5 13.167 52.5 24.5s29.667 25.833 41 43.5s19 39.167 23 64.5h133c-4.66699 -42.667 -15.667 -80.167 -33 -112.5s-39.5 -59.5 -66.5 -81.5
s-58.167 -38.667 -93.5 -50s-73 -17 -113 -17s-77.667 5.66699 -113 17s-66.5 28 -93.5 50s-49.167 49.167 -66.5 81.5s-28.333 69.833 -33 112.5h133c4 -25.333 11.667 -46.833 23 -64.5s25 -32.167 41 -43.5s33.5 -19.5 52.5 -24.5s37.833 -7.5 56.5 -7.5zM228 1338z" />
    <glyph glyph-name="ebreve" unicode="&#x115;" horiz-adv-x="1019" 
d="M517 1257c49.333 0 88.5 14 117.5 42s48.167 72.333 57.5 133h131c-2.66699 -42.667 -11.167 -82 -25.5 -118s-34.333 -67.167 -60 -93.5s-57 -47 -94 -62s-79.167 -22.5 -126.5 -22.5s-89.5 7.5 -126.5 22.5s-68.333 35.667 -94 62s-45.667 57.5 -60 93.5
s-22.833 75.333 -25.5 118h131c9.33301 -60.667 28.5 -105 57.5 -133s68.167 -42 117.5 -42zM522 842c-35.333 0 -68.166 -6.99902 -98.499 -20.999s-56.833 -33 -79.5 -57s-41 -52.167 -55 -84.5s-22.667 -66.833 -26 -103.5h480c0 37.333 -4.83301 72.166 -14.5 104.499
s-23.834 60.5 -42.501 84.5s-41.667 42.833 -69 56.5s-59 20.5 -95 20.5zM607 110.001c51.333 0 98.1689 4.16602 140.502 12.499s84.5 20.166 126.5 35.499v-129c-34 -16.667 -76 -29.834 -126 -39.501s-103.667 -14.5 -161 -14.5c-68 0 -131.833 8.66699 -191.5 26
s-111.834 45.333 -156.501 84s-79.834 89.167 -105.501 151.5s-38.5 137.5 -38.5 225.5c0 86.667 12 161.834 36 225.501s56 116.834 96 159.501s86 74.667 138 96s106.333 32 163 32c53.333 0 103.166 -8.83301 149.499 -26.5s86.5 -45.5 120.5 -83.5s60.833 -87 80.5 -147
s29.5 -132 29.5 -216v-20.5c0 -5.66699 -0.333008 -18.5 -1 -38.5h-652c0 -60.667 9.16699 -112.167 27.5 -154.5s43.333 -76.666 75 -102.999s68.834 -45.5 111.501 -57.5s88.667 -18 138 -18z" />
    <glyph glyph-name="Edotaccent" unicode="&#x116;" horiz-adv-x="1129" 
d="M333 147h686v-147h-849v1338h812v-147h-649v-432h577v-147h-577v-465zM500 1448v173h163v-173h-163zM232 1338z" />
    <glyph glyph-name="edotaccent" unicode="&#x117;" horiz-adv-x="1019" 
d="M438 1171v173h163v-173h-163zM522 842c-35.333 0 -68.166 -6.99902 -98.499 -20.999s-56.833 -33 -79.5 -57s-41 -52.167 -55 -84.5s-22.667 -66.833 -26 -103.5h480c0 37.333 -4.83301 72.166 -14.5 104.499s-23.834 60.5 -42.501 84.5s-41.667 42.833 -69 56.5
s-59 20.5 -95 20.5zM607 110.001c51.333 0 98.1689 4.16602 140.502 12.499s84.5 20.166 126.5 35.499v-129c-34 -16.667 -76 -29.834 -126 -39.501s-103.667 -14.5 -161 -14.5c-68 0 -131.833 8.66699 -191.5 26s-111.834 45.333 -156.501 84
s-79.834 89.167 -105.501 151.5s-38.5 137.5 -38.5 225.5c0 86.667 12 161.834 36 225.501s56 116.834 96 159.501s86 74.667 138 96s106.333 32 163 32c53.333 0 103.166 -8.83301 149.499 -26.5s86.5 -45.5 120.5 -83.5s60.833 -87 80.5 -147s29.5 -132 29.5 -216v-20.5
c0 -5.66699 -0.333008 -18.5 -1 -38.5h-652c0 -60.667 9.16699 -112.167 27.5 -154.5s43.333 -76.666 75 -102.999s68.834 -45.5 111.501 -57.5s88.667 -18 138 -18z" />
    <glyph glyph-name="Eogonek" unicode="&#x118;" horiz-adv-x="1129" 
d="M654 -313c0 33.333 5.99902 64.833 17.999 94.5s28 57.334 48 83.001s42.5 49.5 67.5 71.5s50.5 42 76.5 60v4h-694v1338h812v-147h-649v-432h577v-147h-577v-465h686v-147c-24.667 -18 -50 -37.833 -76 -59.5s-49.833 -44.5 -71.5 -68.5s-39.5 -48.333 -53.5 -73
s-21 -48.667 -21 -72c0 -54.667 30.333 -82 91 -82c20 0 40.667 1.83301 62 5.5s44.333 9.5 69 17.5v-128c-19.333 -8.66699 -42.666 -15.834 -69.999 -21.501s-57.333 -8.5 -90 -8.5c-65.333 0 -115.833 16 -151.5 48s-53.5 75 -53.5 129z" />
    <glyph glyph-name="eogonek" unicode="&#x119;" horiz-adv-x="1019" 
d="M667 -19c-13.333 -2 -27.668 -3.49707 -43.001 -4.49707s-27.666 -1.5 -36.999 -1.5c-68 0 -131.833 8.66699 -191.5 26s-111.834 45.333 -156.501 84s-79.834 89.167 -105.501 151.5s-38.5 138.166 -38.5 227.499c0 85.333 12 159.833 36 223.5s56 116.834 96 159.501
s86 74.667 138 96s106.333 32 163 32s109.167 -10 157.5 -30s89.5 -51.333 123.5 -94s59.167 -93.834 75.5 -153.501s24.5 -124.167 24.5 -193.5c0 -17.333 -0.666992 -37.666 -2 -60.999h-652c0 -60.667 9.16699 -112.167 27.5 -154.5s43.333 -76.666 75 -102.999
s68.834 -45.5 111.501 -57.5s88.667 -18 138 -18c51.333 0 98.166 4.16699 140.499 12.5s84.5 20.166 126.5 35.499v-123c-16 -10.667 -33.5 -23.334 -52.5 -38.001s-38 -30.5 -57 -47.5s-37.333 -35 -55 -54s-33.334 -38.167 -47.001 -57.5s-24.5 -38.666 -32.5 -57.999
s-12 -38 -12 -56c0 -25.333 7.66699 -44.833 23 -58.5s39 -20.5 71 -20.5c18.667 0 38.334 1.83301 59.001 5.5s43.334 9.5 68.001 17.5v-128c-19.333 -8.66699 -42.166 -15.834 -68.499 -21.501s-55.833 -8.5 -88.5 -8.5c-64.667 0 -115.334 14.833 -152.001 44.5
s-55 73.167 -55 130.5c0 30 5.33301 58.667 16 86s24.834 53.166 42.501 77.499s38 47.166 61 68.499s47.167 41.333 72.5 60v4zM521.998 842.003c-35.333 0 -68.166 -6.99902 -98.499 -20.999s-56.833 -33 -79.5 -57s-41 -52.167 -55 -84.5s-22.667 -66.833 -26 -103.5h480
c0 37.333 -4.83301 72.166 -14.5 104.499s-23.834 60.5 -42.501 84.5s-41.667 42.833 -69 56.5s-59 20.5 -95 20.5z" />
    <glyph glyph-name="Ecaron" unicode="&#x11a;" horiz-adv-x="1129" 
d="M333 147h686v-147h-849v1338h812v-147h-649v-432h577v-147h-577v-465zM500 1410l-216 247h154l138 -153h4l139 153h154l-216 -247h-157zM229 1338z" />
    <glyph glyph-name="ecaron" unicode="&#x11b;" horiz-adv-x="1019" 
d="M448 1124l-210 349h140l147 -246h4l146 246h140l-210 -349h-157zM522 842c-35.333 0 -68.166 -6.99902 -98.499 -20.999s-56.833 -33 -79.5 -57s-41 -52.167 -55 -84.5s-22.667 -66.833 -26 -103.5h480c0 37.333 -4.83301 72.166 -14.5 104.499
s-23.834 60.5 -42.501 84.5s-41.667 42.833 -69 56.5s-59 20.5 -95 20.5zM607 110.001c51.333 0 98.1689 4.16602 140.502 12.499s84.5 20.166 126.5 35.499v-129c-34 -16.667 -76 -29.834 -126 -39.501s-103.667 -14.5 -161 -14.5c-68 0 -131.833 8.66699 -191.5 26
s-111.834 45.333 -156.501 84s-79.834 89.167 -105.501 151.5s-38.5 137.5 -38.5 225.5c0 86.667 12 161.834 36 225.501s56 116.834 96 159.501s86 74.667 138 96s106.333 32 163 32c53.333 0 103.166 -8.83301 149.499 -26.5s86.5 -45.5 120.5 -83.5s60.833 -87 80.5 -147
s29.5 -132 29.5 -216v-20.5c0 -5.66699 -0.333008 -18.5 -1 -38.5h-652c0 -60.667 9.16699 -112.167 27.5 -154.5s43.333 -76.666 75 -102.999s68.834 -45.5 111.501 -57.5s88.667 -18 138 -18z" />
    <glyph glyph-name="Gcircumflex" unicode="&#x11c;" horiz-adv-x="1368" 
d="M1045 541l-304.997 0.00390625v147h468v-647c-14 -7.33301 -34.5 -14.833 -61.5 -22.5s-57.833 -14.834 -92.5 -21.501s-71.834 -12 -111.501 -16s-78.834 -6 -117.501 -6c-114.667 0 -215.834 15.667 -303.501 47s-161.167 75.666 -220.5 132.999s-104.333 127 -135 209
s-46 173.333 -46 274c0 109.333 17.833 208.666 53.5 297.999s86 165.666 151 228.999s142.667 112.166 233 146.499s189.833 51.5 298.5 51.5c29.333 0 58.666 -1.16699 87.999 -3.5s57.333 -5.66602 84 -9.99902s51.334 -9.5 74.001 -15.5s41.667 -12.333 57 -19v-144
c-40 13.333 -86 24.5 -138 33.5s-104 13.5 -156 13.5c-76 0 -148.5 -11.5 -217.5 -34.5s-129.833 -57.833 -182.5 -104.5s-94.667 -105.167 -126 -175.5s-47 -152.833 -47 -247.5c0 -92.667 12.833 -172.667 38.5 -240s62 -123 109 -167s104 -76.5 171 -97.5
s141.5 -31.5 223.5 -31.5c38 0 75.5 2 112.5 6s69.833 9.66699 98.5 17v398zM878.003 1656l216 -247h-158l-137 151h-4l-136 -151h-158l216 247h161zM448.003 1338z" />
    <glyph glyph-name="gcircumflex" unicode="&#x11d;" horiz-adv-x="1087" 
d="M621 1473l210 -349h-140l-147 246h-4l-146 -246h-140l210 349h157zM257 469c0 -74.667 8.99805 -135.666 26.998 -182.999s40.833 -84.166 68.5 -110.499s57.834 -44.333 90.501 -54s63.667 -14.5 93 -14.5c48 0 93 9.66699 135 29s79 45.666 111 78.999v497
c-8.66699 12 -20.667 25.667 -36 41s-33.166 29.5 -53.499 42.5s-43.5 24 -69.5 33s-54.333 13.5 -85 13.5c-46 0 -86.5 -9.16699 -121.5 -27.5s-64.333 -43.833 -88 -76.5s-41.5 -71.834 -53.5 -117.501s-18 -96.167 -18 -151.5zM517.998 975.001
c41.333 -0.666992 77.334 -6.00391 108.001 -16.0039s57 -22.5 79 -37.5s39.5 -29.833 52.5 -44.5s21.833 -26.334 26.5 -35.001h4l32 108h117v-1006c0 -73.333 -12 -137.166 -36 -191.499s-57.667 -99.5 -101 -135.5s-95.5 -62.833 -156.5 -80.5s-128.5 -26.5 -202.5 -26.5
c-62.667 0 -118.667 5.5 -168 16.5s-88 24.167 -116 39.5v131c22.667 -9.33301 44.667 -17.166 66 -23.499s43.333 -11.666 66 -15.999s45.834 -7.5 69.501 -9.5s49.834 -3 78.501 -3c111.333 0 196.666 26 255.999 78s89 131.333 89 238v127h-3
c-34 -37.333 -73.5 -65.5 -118.5 -84.5s-96.5 -28.5 -154.5 -28.5c-26.667 0 -55.334 3 -86.001 9s-61.334 16.167 -92.001 30.5s-60 33.333 -88 57s-52.667 53.334 -74 89.001s-38.5 77.834 -51.5 126.501s-19.5 105 -19.5 169c0 88.667 12 165.5 36 230.5
s55.667 118.833 95 161.5s84.333 74.5 135 95.5s103 31.5 157 31.5z" />
    <glyph glyph-name="Gbreve" unicode="&#x11e;" horiz-adv-x="1368" 
d="M1045 541l-304.997 0.00390625v147h468v-647c-14 -7.33301 -34.5 -14.833 -61.5 -22.5s-57.833 -14.834 -92.5 -21.501s-71.834 -12 -111.501 -16s-78.834 -6 -117.501 -6c-114.667 0 -215.834 15.667 -303.501 47s-161.167 75.666 -220.5 132.999s-104.333 127 -135 209
s-46 173.333 -46 274c0 109.333 17.833 208.666 53.5 297.999s86 165.666 151 228.999s142.667 112.166 233 146.499s189.833 51.5 298.5 51.5c29.333 0 58.666 -1.16699 87.999 -3.5s57.333 -5.66602 84 -9.99902s51.334 -9.5 74.001 -15.5s41.667 -12.333 57 -19v-144
c-40 13.333 -86 24.5 -138 33.5s-104 13.5 -156 13.5c-76 0 -148.5 -11.5 -217.5 -34.5s-129.833 -57.833 -182.5 -104.5s-94.667 -105.167 -126 -175.5s-47 -152.833 -47 -247.5c0 -92.667 12.833 -172.667 38.5 -240s62 -123 109 -167s104 -76.5 171 -97.5
s141.5 -31.5 223.5 -31.5c38 0 75.5 2 112.5 6s69.833 9.66699 98.5 17v398zM738.003 1530c18.667 0 37.5 2.5 56.5 7.5s36.5 13.167 52.5 24.5s29.667 25.833 41 43.5s19 39.167 23 64.5h133c-4.66699 -42.667 -15.667 -80.167 -33 -112.5s-39.5 -59.5 -66.5 -81.5
s-58.167 -38.667 -93.5 -50s-73 -17 -113 -17s-77.667 5.66699 -113 17s-66.5 28 -93.5 50s-49.167 49.167 -66.5 81.5s-28.333 69.833 -33 112.5h133c4 -25.333 11.667 -46.833 23 -64.5s25 -32.167 41 -43.5s33.5 -19.5 52.5 -24.5s37.833 -7.5 56.5 -7.5zM391.003 1338z
" />
    <glyph glyph-name="gbreve" unicode="&#x11f;" horiz-adv-x="1087" 
d="M541 1257c49.333 0 88.5 14 117.5 42s48.167 72.333 57.5 133h131c-2.66699 -42.667 -11.167 -82 -25.5 -118s-34.333 -67.167 -60 -93.5s-57 -47 -94 -62s-79.167 -22.5 -126.5 -22.5s-89.5 7.5 -126.5 22.5s-68.333 35.667 -94 62s-45.667 57.5 -60 93.5
s-22.833 75.333 -25.5 118h131c9.33301 -60.667 28.5 -105 57.5 -133s68.167 -42 117.5 -42zM257 469c0 -74.667 8.99805 -135.666 26.998 -182.999s40.833 -84.166 68.5 -110.499s57.834 -44.333 90.501 -54s63.667 -14.5 93 -14.5c48 0 93 9.66699 135 29
s79 45.666 111 78.999v497c-8.66699 12 -20.667 25.667 -36 41s-33.166 29.5 -53.499 42.5s-43.5 24 -69.5 33s-54.333 13.5 -85 13.5c-46 0 -86.5 -9.16699 -121.5 -27.5s-64.333 -43.833 -88 -76.5s-41.5 -71.834 -53.5 -117.501s-18 -96.167 -18 -151.5zM517.998 975.001
c41.333 -0.666992 77.334 -6.00391 108.001 -16.0039s57 -22.5 79 -37.5s39.5 -29.833 52.5 -44.5s21.833 -26.334 26.5 -35.001h4l32 108h117v-1006c0 -73.333 -12 -137.166 -36 -191.499s-57.667 -99.5 -101 -135.5s-95.5 -62.833 -156.5 -80.5s-128.5 -26.5 -202.5 -26.5
c-62.667 0 -118.667 5.5 -168 16.5s-88 24.167 -116 39.5v131c22.667 -9.33301 44.667 -17.166 66 -23.499s43.333 -11.666 66 -15.999s45.834 -7.5 69.501 -9.5s49.834 -3 78.501 -3c111.333 0 196.666 26 255.999 78s89 131.333 89 238v127h-3
c-34 -37.333 -73.5 -65.5 -118.5 -84.5s-96.5 -28.5 -154.5 -28.5c-26.667 0 -55.334 3 -86.001 9s-61.334 16.167 -92.001 30.5s-60 33.333 -88 57s-52.667 53.334 -74 89.001s-38.5 77.834 -51.5 126.501s-19.5 105 -19.5 169c0 88.667 12 165.5 36 230.5
s55.667 118.833 95 161.5s84.333 74.5 135 95.5s103 31.5 157 31.5z" />
    <glyph glyph-name="Gdotaccent" unicode="&#x120;" horiz-adv-x="1368" 
d="M1045 541l-304.997 0.00390625v147h468v-647c-14 -7.33301 -34.5 -14.833 -61.5 -22.5s-57.833 -14.834 -92.5 -21.501s-71.834 -12 -111.501 -16s-78.834 -6 -117.501 -6c-114.667 0 -215.834 15.667 -303.501 47s-161.167 75.666 -220.5 132.999s-104.333 127 -135 209
s-46 173.333 -46 274c0 109.333 17.833 208.666 53.5 297.999s86 165.666 151 228.999s142.667 112.166 233 146.499s189.833 51.5 298.5 51.5c29.333 0 58.666 -1.16699 87.999 -3.5s57.333 -5.66602 84 -9.99902s51.334 -9.5 74.001 -15.5s41.667 -12.333 57 -19v-144
c-40 13.333 -86 24.5 -138 33.5s-104 13.5 -156 13.5c-76 0 -148.5 -11.5 -217.5 -34.5s-129.833 -57.833 -182.5 -104.5s-94.667 -105.167 -126 -175.5s-47 -152.833 -47 -247.5c0 -92.667 12.833 -172.667 38.5 -240s62 -123 109 -167s104 -76.5 171 -97.5
s141.5 -31.5 223.5 -31.5c38 0 75.5 2 112.5 6s69.833 9.66699 98.5 17v398zM693.003 1448v173h163v-173h-163zM425.003 1338z" />
    <glyph glyph-name="gdotaccent" unicode="&#x121;" horiz-adv-x="1087" 
d="M466 1171v173h163v-173h-163zM257 469c0 -74.667 8.99805 -135.666 26.998 -182.999s40.833 -84.166 68.5 -110.499s57.834 -44.333 90.501 -54s63.667 -14.5 93 -14.5c48 0 93 9.66699 135 29s79 45.666 111 78.999v497c-8.66699 12 -20.667 25.667 -36 41
s-33.166 29.5 -53.499 42.5s-43.5 24 -69.5 33s-54.333 13.5 -85 13.5c-46 0 -86.5 -9.16699 -121.5 -27.5s-64.333 -43.833 -88 -76.5s-41.5 -71.834 -53.5 -117.501s-18 -96.167 -18 -151.5zM517.998 975.001c41.333 -0.666992 77.334 -6.00391 108.001 -16.0039
s57 -22.5 79 -37.5s39.5 -29.833 52.5 -44.5s21.833 -26.334 26.5 -35.001h4l32 108h117v-1006c0 -73.333 -12 -137.166 -36 -191.499s-57.667 -99.5 -101 -135.5s-95.5 -62.833 -156.5 -80.5s-128.5 -26.5 -202.5 -26.5c-62.667 0 -118.667 5.5 -168 16.5
s-88 24.167 -116 39.5v131c22.667 -9.33301 44.667 -17.166 66 -23.499s43.333 -11.666 66 -15.999s45.834 -7.5 69.501 -9.5s49.834 -3 78.501 -3c111.333 0 196.666 26 255.999 78s89 131.333 89 238v127h-3c-34 -37.333 -73.5 -65.5 -118.5 -84.5
s-96.5 -28.5 -154.5 -28.5c-26.667 0 -55.334 3 -86.001 9s-61.334 16.167 -92.001 30.5s-60 33.333 -88 57s-52.667 53.334 -74 89.001s-38.5 77.834 -51.5 126.501s-19.5 105 -19.5 169c0 88.667 12 165.5 36 230.5s55.667 118.833 95 161.5s84.333 74.5 135 95.5
s103 31.5 157 31.5z" />
    <glyph glyph-name="Gcommaaccent" unicode="&#x122;" horiz-adv-x="1368" 
d="M1045 541l-304.997 0.00390625v147h468v-647c-14 -7.33301 -34.5 -14.833 -61.5 -22.5s-57.833 -14.834 -92.5 -21.501s-71.834 -12 -111.501 -16s-78.834 -6 -117.501 -6c-114.667 0 -215.834 15.667 -303.501 47s-161.167 75.666 -220.5 132.999s-104.333 127 -135 209
s-46 173.333 -46 274c0 109.333 17.833 208.666 53.5 297.999s86 165.666 151 228.999s142.667 112.166 233 146.499s189.833 51.5 298.5 51.5c29.333 0 58.666 -1.16699 87.999 -3.5s57.333 -5.66602 84 -9.99902s51.334 -9.5 74.001 -15.5s41.667 -12.333 57 -19v-144
c-40 13.333 -86 24.5 -138 33.5s-104 13.5 -156 13.5c-76 0 -148.5 -11.5 -217.5 -34.5s-129.833 -57.833 -182.5 -104.5s-94.667 -105.167 -126 -175.5s-47 -152.833 -47 -247.5c0 -92.667 12.833 -172.667 38.5 -240s62 -123 109 -167s104 -76.5 171 -97.5
s141.5 -31.5 223.5 -31.5c38 0 75.5 2 112.5 6s69.833 9.66699 98.5 17v398zM721.003 -324.996c0 26 -7.83203 44.833 -23.499 56.5s-35.834 17.5 -60.501 17.5v129c10 0.666992 19.333 1 28 1c62 0 111.167 -14.167 147.5 -42.5s54.5 -69.5 54.5 -123.5
c0 -33.333 -6.33301 -66.5 -19 -99.5s-32.667 -67.5 -60 -103.5h-143c22.667 31.333 41 61 55 89s21 53.333 21 76z" />
    <glyph glyph-name="gcommaaccent" unicode="&#x123;" horiz-adv-x="1087" 
d="M532 1308c0 -26 7.83105 -44.833 23.498 -56.5s35.834 -17.5 60.501 -17.5v-129c-9.33301 -0.666992 -18.666 -1 -27.999 -1c-61.333 0 -110.333 14 -147 42s-55 69.333 -55 124c0 34 6.33301 67.333 19 100s32.667 67 60 103h143
c-21.333 -30.667 -39.333 -59.667 -54 -87s-22 -53.333 -22 -78zM256.998 469c0 -74.667 8.99805 -135.666 26.998 -182.999s40.833 -84.166 68.5 -110.499s57.834 -44.333 90.501 -54s63.667 -14.5 93 -14.5c48 0 93 9.66699 135 29s79 45.666 111 78.999v497
c-8.66699 12 -20.667 25.667 -36 41s-33.166 29.5 -53.499 42.5s-43.5 24 -69.5 33s-54.333 13.5 -85 13.5c-46 0 -86.5 -9.16699 -121.5 -27.5s-64.333 -43.833 -88 -76.5s-41.5 -71.834 -53.5 -117.501s-18 -96.167 -18 -151.5zM517.996 975.001
c41.333 -0.666992 77.334 -6.00391 108.001 -16.0039s57 -22.5 79 -37.5s39.5 -29.833 52.5 -44.5s21.833 -26.334 26.5 -35.001h4l32 108h117v-1006c0 -73.333 -12 -137.166 -36 -191.499s-57.667 -99.5 -101 -135.5s-95.5 -62.833 -156.5 -80.5s-128.5 -26.5 -202.5 -26.5
c-62.667 0 -118.667 5.5 -168 16.5s-88 24.167 -116 39.5v131c22.667 -9.33301 44.667 -17.166 66 -23.499s43.333 -11.666 66 -15.999s45.834 -7.5 69.501 -9.5s49.834 -3 78.501 -3c111.333 0 196.666 26 255.999 78s89 131.333 89 238v127h-3
c-34 -37.333 -73.5 -65.5 -118.5 -84.5s-96.5 -28.5 -154.5 -28.5c-26.667 0 -55.334 3 -86.001 9s-61.334 16.167 -92.001 30.5s-60 33.333 -88 57s-52.667 53.334 -74 89.001s-38.5 77.834 -51.5 126.501s-19.5 105 -19.5 169c0 88.667 12 165.5 36 230.5
s55.667 118.833 95 161.5s84.333 74.5 135 95.5s103 31.5 157 31.5z" />
    <glyph glyph-name="Hcircumflex" unicode="&#x124;" horiz-adv-x="1367" 
d="M333 759h701v579h163v-1338h-163v612h-701v-612h-163v1338h163v-579zM766 1656l216 -247h-158l-137 151h-4l-136 -151h-158l216 247h161zM336 1338z" />
    <glyph glyph-name="hcircumflex" unicode="&#x125;" horiz-adv-x="1090" 
d="M315 820h3.00098c17.333 22 36.666 42.5 57.999 61.5s45 35.333 71 49s54 24.5 84 32.5s62.333 12 97 12c36 0 72 -4.83301 108 -14.5s69.333 -26.834 100 -51.501s55.667 -59 75 -103s29 -100.667 29 -170v-636h-155v611c0 76.667 -14.5 134.334 -43.5 173.001
s-76.5 58 -142.5 58c-54.667 0 -106.667 -14.833 -156 -44.5s-92 -70.5 -128 -122.5v-675h-155v1448h155v-628zM328.001 1767l216 -247h-158l-137 151h-4l-136 -151h-158l216 247h161z" />
    <glyph glyph-name="Hbar" unicode="&#x126;" horiz-adv-x="1367" 
d="M1337 966h-140v-966h-163v612h-701v-612h-163v966h-140v147h140v225h163v-225h701v225h163v-225h140v-147zM1034 759v207h-701v-207h701z" />
    <glyph glyph-name="hbar" unicode="&#x127;" horiz-adv-x="1090" 
d="M315 1152l0.000976562 -332h3c17.333 22 36.666 42.5 57.999 61.5s45 35.333 71 49s54 24.5 84 32.5s62.333 12 97 12c36 0 72 -4.83301 108 -14.5s69.333 -26.834 100 -51.501s55.667 -59 75 -103s29 -100.667 29 -170v-636h-155v611
c0 76.667 -14.5 134.334 -43.5 173.001s-76.5 58 -142.5 58c-54.667 0 -106.667 -14.833 -156 -44.5s-92 -70.5 -128 -122.5v-675h-155v1152h-160v133h160v163h155v-163h289v-133h-289z" />
    <glyph glyph-name="Itilde" unicode="&#x128;" horiz-adv-x="503" 
d="M170 0v1338h163v-1338h-163zM117 1641c27.333 0 54.001 -4.83301 80.001 -14.5s50 -20.334 72 -32.001l62.5 -32c19.667 -9.66699 38.167 -14.5 55.5 -14.5c22.667 0 38.5 7.66699 47.5 23s13.5 36 13.5 62h125v-22c0 -22 -2.33301 -44.167 -7 -66.5
s-13.834 -43 -27.501 -62s-31.667 -34 -54 -45s-49.5 -16.5 -81.5 -16.5c-27.333 0 -54 4.83301 -80 14.5s-50 20.334 -72 32.001l-62.5 32c-19.667 9.66699 -38.167 14.5 -55.5 14.5c-22.667 0 -38.5 -7.66699 -47.5 -23s-13.5 -36 -13.5 -62h-125v14
c-0.666992 23.333 1.5 47.333 6.5 72s14.333 46.5 28 65.5s31.667 33.833 54 44.5s49.5 16 81.5 16zM-89.999 1338z" />
    <glyph glyph-name="itilde" unicode="&#x129;" horiz-adv-x="475" 
d="M160 0v950h155v-950h-155zM-66 1178v23c0 22.667 2.5 45.167 7.5 67.5s14 42.666 27 60.999s30.5 33 52.5 44s49 16.5 81 16.5c27.333 0 54 -4.83301 80 -14.5s50 -20.5 72 -32.5s43.5 -23 64.5 -33s39.5 -15 55.5 -15c20.667 0 35.834 7.33301 45.501 22
s14.5 36.334 14.5 65.001h122v-23c0 -22.667 -2.5 -45.167 -7.5 -67.5s-14 -42.666 -27 -60.999s-30.5 -33 -52.5 -44s-49 -16.5 -81 -16.5c-27.333 0 -54 4.83301 -80 14.5s-50 20.5 -72 32.5s-43.5 23 -64.5 33s-39.5 15 -55.5 15c-20.667 0 -35.834 -7.33301 -45.501 -22
s-14.5 -36.334 -14.5 -65.001h-122zM-105 950z" />
    <glyph glyph-name="Imacron" unicode="&#x12a;" horiz-adv-x="503" 
d="M170 0v1338h163v-1338h-163zM-13 1581h540v-133h-540v133zM-93 1338z" />
    <glyph glyph-name="imacron" unicode="&#x12b;" horiz-adv-x="475" 
d="M160 0v950h155v-950h-155zM-26 1300h540v-129h-540v129zM-106 950z" />
    <glyph glyph-name="Ibreve" unicode="&#x12c;" horiz-adv-x="503" 
d="M170 0v1338h163v-1338h-163zM257 1530c18.667 0 37.5 2.5 56.5 7.5s36.5 13.167 52.5 24.5s29.667 25.833 41 43.5s19 39.167 23 64.5h133c-4.66699 -42.667 -15.667 -80.167 -33 -112.5s-39.5 -59.5 -66.5 -81.5s-58.167 -38.667 -93.5 -50s-73 -17 -113 -17
s-77.667 5.66699 -113 17s-66.5 28 -93.5 50s-49.167 49.167 -66.5 81.5s-28.333 69.833 -33 112.5h133c4 -25.333 11.667 -46.833 23 -64.5s25 -32.167 41 -43.5s33.5 -19.5 52.5 -24.5s37.833 -7.5 56.5 -7.5zM-90 1338z" />
    <glyph glyph-name="ibreve" unicode="&#x12d;" horiz-adv-x="475" 
d="M160 0v950h155v-950h-155zM241 1257c49.333 0 88.5 14 117.5 42s48.167 72.333 57.5 133h131c-2.66699 -42.667 -11.167 -82 -25.5 -118s-34.333 -67.167 -60 -93.5s-57 -47 -94 -62s-79.167 -22.5 -126.5 -22.5s-89.5 7.5 -126.5 22.5s-68.333 35.667 -94 62
s-45.667 57.5 -60 93.5s-22.833 75.333 -25.5 118h131c9.33301 -60.667 28.5 -105 57.5 -133s68.167 -42 117.5 -42zM-109 950z" />
    <glyph glyph-name="Iogonek" unicode="&#x12e;" horiz-adv-x="503" 
d="M170 1338h162.999v-1338l-61 -56.5c-20.667 -19.667 -39.167 -40.5 -55.5 -62.5s-29.833 -45 -40.5 -69s-16 -49 -16 -75c0 -26.667 7.83301 -48.5 23.5 -65.5s40.5 -25.833 74.5 -26.5c17.333 0 36 1.83301 56 5.5s42.333 9.5 67 17.5v-128
c-19.333 -8.66699 -42.5 -15.834 -69.5 -21.501s-54.167 -8.5 -81.5 -8.5c-35.333 0 -66.333 5 -93 15s-48.834 24 -66.501 42s-31 39 -40 63s-13.5 50 -13.5 78s3.66699 54.667 11 80s17.833 50 31.5 74s29.834 47.333 48.501 70s39.334 45.334 62.001 68.001v1338z" />
    <glyph glyph-name="iogonek" unicode="&#x12f;" horiz-adv-x="475" 
d="M315 0l-64 -60.499c-20.667 -20.333 -39 -41 -55 -62s-28.833 -43.167 -38.5 -66.5s-14.5 -48 -14.5 -74c0 -26.667 7.5 -48.667 22.5 -66s40.167 -26 75.5 -26c17.333 0 36 1.83301 56 5.5s42.333 9.5 67 17.5v-128c-19.333 -8.66699 -42.5 -15.834 -69.5 -21.501
s-54.167 -8.5 -81.5 -8.5c-35.333 0 -66.333 5 -93 15s-48.834 24 -66.501 42s-31 39 -40 63s-13.5 50 -13.5 78s4 54.833 12 80.5s19.167 50.667 33.5 75s31.333 48 51 71s40.834 45.833 63.501 68.5v947h155v-950zM156 1171v171h163v-171h-163z" />
    <glyph glyph-name="Idotaccent" unicode="&#x130;" horiz-adv-x="503" 
d="M170 0v1338h163v-1338h-163zM178 1448v173h163v-173h-163zM-90 1338z" />
    <glyph glyph-name="dotlessi" unicode="&#x131;" horiz-adv-x="475" 
d="M160 0v950h155v-950h-155z" />
    <glyph glyph-name="IJ" unicode="&#x132;" horiz-adv-x="1195" 
d="M170 0v1338h163v-1338h-163zM867 1338l163 -0.000976562v-1031c0 -55.333 -8.33301 -103.666 -25 -144.999s-40.5 -75.833 -71.5 -103.5s-68.167 -48.5 -111.5 -62.5s-92 -21 -146 -21c-46 0.666992 -84.833 4.5 -116.5 11.5s-55.5 14.167 -71.5 21.5v144
c24.667 -10 51.5 -17.833 80.5 -23.5s60.167 -8.5 93.5 -8.5c30 0 57.667 3.33301 83 10s47 18 65 34s32 37.333 42 64s15 59.667 15 99v1011z" />
    <glyph glyph-name="ij" unicode="&#x133;" horiz-adv-x="969" 
d="M160 0v950h155v-950h-155zM156 1171v173h163v-173h-163zM809 -212c0 -87.333 -24.999 -155.5 -74.999 -204.5s-129.333 -73.5 -238 -73.5c-28.667 0 -56.167 2.16699 -82.5 6.5s-45.833 8.83301 -58.5 13.5v132c20 -5.33301 40 -9.5 60 -12.5s40.667 -4.5 62 -4.5
c63.333 0 108.666 13 135.999 39s41 66.667 41 122v1144h155v-1162zM650.001 1171v173h163v-173h-163z" />
    <glyph glyph-name="Jcircumflex" unicode="&#x134;" horiz-adv-x="767" 
d="M439 1338l163 -0.000976562v-1031c0 -55.333 -8.33301 -103.666 -25 -144.999s-40.5 -75.833 -71.5 -103.5s-68.167 -48.5 -111.5 -62.5s-92 -21 -146 -21c-46 0.666992 -84.833 4.5 -116.5 11.5s-55.5 14.167 -71.5 21.5v144c24.667 -10 51.5 -17.833 80.5 -23.5
s60.167 -8.5 93.5 -8.5c30 0 57.667 3.33301 83 10s47 18 65 34s32 37.333 42 64s15 59.667 15 99v1011zM596 1656l216 -247h-158l-137 151h-4l-136 -151h-158l216 247h161zM166 1338z" />
    <glyph glyph-name="jcircumflex" unicode="&#x135;" horiz-adv-x="494" 
d="M334 -212c0 -87.333 -24.999 -155.5 -74.999 -204.5s-129.333 -73.5 -238 -73.5c-28.667 0 -56.167 2.16699 -82.5 6.5s-45.833 8.83301 -58.5 13.5v132c20 -4.66699 39.833 -8.66699 59.5 -12s40.5 -5 62.5 -5c63.333 0 108.666 13 135.999 39s41 66.667 41 122v1144
h155v-1162zM333.001 1473l210 -349h-140l-147 246h-4l-146 -246h-140l210 349h157z" />
    <glyph glyph-name="Kcommaaccent" unicode="&#x136;" horiz-adv-x="1239" 
d="M170 0v1338h163v-661h2l615 661h201l-624 -666l672 -672h-212l-652 655h-2v-655h-163zM582 -325c0 26 -7.83203 44.833 -23.499 56.5s-35.834 17.5 -60.501 17.5v129c10 0.666992 19.333 1 28 1c62 0 111.167 -14.167 147.5 -42.5s54.5 -69.5 54.5 -123.5
c0 -33.333 -6.33301 -66.5 -19 -99.5s-32.667 -67.5 -60 -103.5h-143c22.667 31.333 41 61 55 89s21 53.333 21 76z" />
    <glyph glyph-name="kcommaaccent" unicode="&#x137;" horiz-adv-x="997" 
d="M765 950h202l-464 -437l463 -513h-193l-456 506h-2v-506h-155v1448h155v-922h2zM477 -325c0 26 -7.83203 44.833 -23.499 56.5s-35.834 17.5 -60.501 17.5v129c10 0.666992 19.333 1 28 1c62 0 111.167 -14.167 147.5 -42.5s54.5 -69.5 54.5 -123.5
c0 -33.333 -6.33301 -66.5 -19 -99.5s-32.667 -67.5 -60 -103.5h-143c22.667 31.333 41 61 55 89s21 53.333 21 76z" />
    <glyph glyph-name="kgreenlandic" unicode="&#x138;" horiz-adv-x="987" 
d="M755 950h202l-464 -468l463 -482h-193l-456 476h-2v-476h-155v950h155v-454h2z" />
    <glyph glyph-name="Lacute" unicode="&#x139;" horiz-adv-x="1066" 
d="M333 1338v-1191h653v-147h-816v1338h163zM496 1656l-181 -247h-139l146 247h174zM26 1338z" />
    <glyph glyph-name="lacute" unicode="&#x13a;" horiz-adv-x="475" 
d="M160 0v1448h155v-1448h-155zM484 1766l-181 -247h-139l146 247h174zM14 1448z" />
    <glyph glyph-name="Lcommaaccent" unicode="&#x13b;" horiz-adv-x="1066" 
d="M333 1338v-1191h653v-147h-816v1338h163zM546 -325c0 26 -7.83203 44.833 -23.499 56.5s-35.834 17.5 -60.501 17.5v129c10 0.666992 19.333 1 28 1c62 0 111.167 -14.167 147.5 -42.5s54.5 -69.5 54.5 -123.5c0 -33.333 -6.33301 -66.5 -19 -99.5
s-32.667 -67.5 -60 -103.5h-143c22.667 31.333 41 61 55 89s21 53.333 21 76z" />
    <glyph glyph-name="lcommaaccent" unicode="&#x13c;" horiz-adv-x="475" 
d="M160 0v1448h155v-1448h-155zM227 -325c0 26 -7.83203 44.833 -23.499 56.5s-35.834 17.5 -60.501 17.5v129c10 0.666992 19.333 1 28 1c62 0 111.167 -14.167 147.5 -42.5s54.5 -69.5 54.5 -123.5c0 -33.333 -6.33301 -66.5 -19 -99.5s-32.667 -67.5 -60 -103.5h-143
c22.667 31.333 41 61 55 89s21 53.333 21 76z" />
    <glyph glyph-name="Lcaron" unicode="&#x13d;" horiz-adv-x="1066" 
d="M668 1143c0 26 -7.83203 44.833 -23.499 56.5s-35.834 17.5 -60.501 17.5v129c10.667 0.666992 21 1 31 1c60 0 108.167 -14.333 144.5 -43s54.5 -69.667 54.5 -123c0 -34 -6.33301 -67.333 -19 -100s-32.667 -67 -60 -103h-143c21.333 30.667 39.333 59.667 54 87
s22 53.333 22 78zM333.001 1338v-1191h653v-147h-816v1338h163z" />
    <glyph glyph-name="lcaron" unicode="&#x13e;" horiz-adv-x="475" 
d="M160 0v1448h155v-1448h-155zM499 1245c0 26 -7.83203 44.833 -23.499 56.5s-35.834 17.5 -60.501 17.5v129c10.667 0.666992 21 1 31 1c60 0 108.167 -14.333 144.5 -43s54.5 -69.667 54.5 -123c0 -34 -6.33301 -67.333 -19 -100s-32.667 -67 -60 -103h-143
c21.333 30.667 39.333 59.667 54 87s22 53.333 22 78z" />
    <glyph glyph-name="Ldot" unicode="&#x13f;" horiz-adv-x="1066" 
d="M333 1338v-1191h653v-147h-816v1338h163zM570 624v173h163v-173h-163z" />
    <glyph glyph-name="ldot" unicode="&#x140;" horiz-adv-x="638" 
d="M160 0v1448h155v-1448h-155zM475 548v173h163v-173h-163z" />
    <glyph glyph-name="Lslash" unicode="&#x141;" horiz-adv-x="1066" 
d="M709 758l-376 -151v-460h653v-147h-816v543l-145 -58v151l145 58v644h163v-580l376 151v-151z" />
    <glyph glyph-name="lslash" unicode="&#x142;" horiz-adv-x="475" 
d="M160 0v618l-169 -108v158l169 108v672h155v-580l188 121v-158l-188 -121v-710h-155z" />
    <glyph glyph-name="Nacute" unicode="&#x143;" horiz-adv-x="1426" 
d="M857 592l243 -364h6c-8.66699 130 -13 262.667 -13 398v712h163v-1338h-162l-525 746c-90.667 130 -171.667 251.333 -243 364h-6c8.66699 -122 13 -264.333 13 -427v-683h-163v1338h162zM961 1656l-181 -247h-139l146 247h174zM491 1338z" />
    <glyph glyph-name="nacute" unicode="&#x144;" horiz-adv-x="1080" 
d="M300 818h3.00098c17.333 22 36.5 42.5 57.5 61.5s44.5 35.667 70.5 50s54.5 25.5 85.5 33.5s64.833 12 101.5 12c43.333 0 84 -6 122 -18s71 -31.333 99 -58s50.167 -61.5 66.5 -104.5s24.5 -95.833 24.5 -158.5v-636h-155v611c0 82 -15.833 141 -47.5 177
s-77.834 54 -138.501 54c-53.333 0 -105 -14.833 -155 -44.5s-93 -70.5 -129 -122.5v-675h-155v950h120zM798.001 1473l-161 -349h-130l123 349h168zM292.001 950z" />
    <glyph glyph-name="Ncommaaccent" unicode="&#x145;" horiz-adv-x="1426" 
d="M857 592l243 -364h6c-8.66699 130 -13 262.667 -13 398v712h163v-1338h-162l-525 746c-90.667 130 -171.667 251.333 -243 364h-6c8.66699 -122 13 -264.333 13 -427v-683h-163v1338h162zM692 -325c0 26 -7.83203 44.833 -23.499 56.5s-35.834 17.5 -60.501 17.5v129
c10 0.666992 19.333 1 28 1c62 0 111.167 -14.167 147.5 -42.5s54.5 -69.5 54.5 -123.5c0 -33.333 -6.33301 -66.5 -19 -99.5s-32.667 -67.5 -60 -103.5h-143c22.667 31.333 41 61 55 89s21 53.333 21 76z" />
    <glyph glyph-name="ncommaaccent" unicode="&#x146;" horiz-adv-x="1080" 
d="M300 818h3.00098c17.333 22 36.5 42.5 57.5 61.5s44.5 35.667 70.5 50s54.5 25.5 85.5 33.5s64.833 12 101.5 12c43.333 0 84 -6 122 -18s71 -31.333 99 -58s50.167 -61.5 66.5 -104.5s24.5 -95.833 24.5 -158.5v-636h-155v611c0 82 -15.833 141 -47.5 177
s-77.834 54 -138.501 54c-53.333 0 -105 -14.833 -155 -44.5s-93 -70.5 -129 -122.5v-675h-155v950h120zM498.001 -325c0 26 -7.83203 44.833 -23.499 56.5s-35.834 17.5 -60.501 17.5v129c10 0.666992 19.333 1 28 1c62 0 111.167 -14.167 147.5 -42.5
s54.5 -69.5 54.5 -123.5c0 -33.333 -6.33301 -66.5 -19 -99.5s-32.667 -67.5 -60 -103.5h-143c22.667 31.333 41 61 55 89s21 53.333 21 76z" />
    <glyph glyph-name="Ncaron" unicode="&#x147;" horiz-adv-x="1426" 
d="M857 592l243 -364h6c-8.66699 130 -13 262.667 -13 398v712h163v-1338h-162l-525 746c-90.667 130 -171.667 251.333 -243 364h-6c8.66699 -122 13 -264.333 13 -427v-683h-163v1338h162zM639 1410l-216 247h154l138 -153h4l139 153h154l-216 -247h-157zM368 1338z" />
    <glyph glyph-name="ncaron" unicode="&#x148;" horiz-adv-x="1080" 
d="M300 818h3.00098c17.333 22 36.5 42.5 57.5 61.5s44.5 35.667 70.5 50s54.5 25.5 85.5 33.5s64.833 12 101.5 12c43.333 0 84 -6 122 -18s71 -31.333 99 -58s50.167 -61.5 66.5 -104.5s24.5 -95.833 24.5 -158.5v-636h-155v611c0 82 -15.833 141 -47.5 177
s-77.834 54 -138.501 54c-53.333 0 -105 -14.833 -155 -44.5s-93 -70.5 -129 -122.5v-675h-155v950h120zM480.001 1124l-210 349h140l147 -246h4l146 246h140l-210 -349h-157zM208.001 950z" />
    <glyph glyph-name="napostrophe" unicode="&#x149;" horiz-adv-x="1080" 
d="M300 818h3.00098c17.333 22 36.5 42.5 57.5 61.5s44.5 35.667 70.5 50s54.5 25.5 85.5 33.5s64.833 12 101.5 12c43.333 0 84 -6 122 -18s71 -31.333 99 -58s50.167 -61.5 66.5 -104.5s24.5 -95.833 24.5 -158.5v-636h-155v611c0 82 -15.833 141 -47.5 177
s-77.834 54 -138.501 54c-53.333 0 -105 -14.833 -155 -44.5s-93 -70.5 -129 -122.5v-675h-155v950h120zM42.001 1245c0 26 -7.83203 44.833 -23.499 56.5s-35.834 17.5 -60.501 17.5v129c10.667 0.666992 21 1 31 1c60 0 108.167 -14.333 144.5 -43s54.5 -69.667 54.5 -123
c0 -34 -6.33301 -67.333 -19 -100s-32.667 -67 -60 -103h-143c21.333 30.667 39.333 59.667 54 87s22 53.333 22 78z" />
    <glyph glyph-name="Eng" unicode="&#x14a;" horiz-adv-x="1426" 
d="M1256 -130c0 -44 -6.16895 -83.5 -18.502 -118.5s-31.166 -64.667 -56.499 -89s-57.833 -43 -97.5 -56s-86.5 -19.5 -140.5 -19.5c-16 0 -31.667 0.666992 -47 2s-29.666 3.33301 -42.999 6v138c11.333 -2 22.833 -3.66699 34.5 -5s23.834 -2 36.501 -2
c63.333 0 108.666 12.5 135.999 37.5s41 65.167 41 120.5v108l-532 754c-90.667 130 -171.667 251.333 -243 364h-6c8.66699 -122 13 -264.333 13 -427v-683h-163v1338h162l525 -746l243 -364h6c-8.66699 130 -13 262.667 -13 398v712h163v-1468z" />
    <glyph glyph-name="eng" unicode="&#x14b;" horiz-adv-x="1080" 
d="M617 -413c-16 0 -31.668 0.666992 -47.001 2s-29.666 3.33301 -42.999 6v134c11.333 -2 22.833 -3.66699 34.5 -5s23.834 -2 36.501 -2c63.333 0 108.666 12.5 135.999 37.5s41 65.167 41 120.5v731c0 82 -15.833 141 -47.5 177s-77.834 54 -138.501 54
c-53.333 0 -105 -14.833 -155 -44.5s-93 -70.5 -129 -122.5v-675h-155v950h120l30 -132h3c17.333 22 36.5 42.5 57.5 61.5s44.5 35.667 70.5 50s54.5 25.5 85.5 33.5s64.833 12 101.5 12c43.333 0 84 -6 122 -18s71 -31.333 99 -58s50.167 -61.5 66.5 -104.5
s24.5 -95.833 24.5 -158.5v-766c0 -44 -6.16699 -83.5 -18.5 -118.5s-31.166 -64.667 -56.499 -89s-57.833 -43 -97.5 -56s-86.5 -19.5 -140.5 -19.5z" />
    <glyph glyph-name="Omacron" unicode="&#x14c;" horiz-adv-x="1496" 
d="M1204 668c0 90 -11.668 169.333 -35.001 238s-55.5 126 -96.5 172s-89.333 80.833 -145 104.5s-115.5 35.5 -179.5 35.5s-123.833 -11.833 -179.5 -35.5s-104 -58.5 -145 -104.5s-73.167 -103.333 -96.5 -172s-35 -148 -35 -238s11.833 -169.167 35.5 -237.5
s56 -125.5 97 -171.5s89.333 -80.667 145 -104s115.834 -35 180.501 -35c64 0 123.5 11.667 178.5 35s103 58 144 104s73.167 103.167 96.5 171.5s35 147.5 35 237.5zM1376 668c0 -101.333 -14.666 -194.333 -43.999 -279s-71.333 -157.667 -126 -219
s-120.5 -109.166 -197.5 -143.499s-163.167 -51.5 -258.5 -51.5c-98.667 0 -187 17.167 -265 51.5s-144 82.166 -198 143.499s-95.333 134.333 -124 219s-43 177.667 -43 279c0 102 14.833 195.5 44.5 280.5s71.667 158.167 126 219.5s120.166 109.166 197.499 143.499
s164 51.5 260 51.5c98 0 185.833 -17.167 263.5 -51.5s143.5 -82.166 197.5 -143.499s95.333 -134.5 124 -219.5s43 -178.5 43 -280.5zM478 1581h540v-133h-540v133zM398 1338z" />
    <glyph glyph-name="omacron" unicode="&#x14d;" horiz-adv-x="1092" 
d="M835 474c0 58.667 -7.16699 110.834 -21.5 156.501s-34.333 84.334 -60 116.001s-56.167 55.667 -91.5 72s-74 24.5 -116 24.5s-80.667 -8.16699 -116 -24.5s-65.833 -40.333 -91.5 -72s-45.667 -70.334 -60 -116.001s-21.5 -97.834 -21.5 -156.501
c0 -58 7.16699 -109.833 21.5 -155.5s34.5 -84.167 60.5 -115.5s56.667 -55.166 92 -71.499s74 -24.5 116 -24.5s80.5 8.16699 115.5 24.5s65.333 40.166 91 71.499s45.667 69.833 60 115.5s21.5 97.5 21.5 155.5zM997 474c0 -74.667 -10.668 -142.667 -32.001 -204
s-51.5 -113.833 -90.5 -157.5s-86.167 -77.5 -141.5 -101.5s-117.333 -36 -186 -36c-70.667 0 -133.834 12 -189.501 36s-103 57.833 -142 101.5s-68.833 96.167 -89.5 157.5s-31 129.333 -31 204c0 75.333 10.667 143.666 32 204.999s51.5 114 90.5 158s86.333 78 142 102
s117.834 36 186.501 36c70 0 133 -12 189 -36s103.333 -58 142 -102s68.334 -96.667 89.001 -158s31 -129.666 31 -204.999zM273.999 1300h540v-129h-540v129zM193.999 950z" />
    <glyph glyph-name="Obreve" unicode="&#x14e;" horiz-adv-x="1496" 
d="M1204 668c0 90 -11.668 169.333 -35.001 238s-55.5 126 -96.5 172s-89.333 80.833 -145 104.5s-115.5 35.5 -179.5 35.5s-123.833 -11.833 -179.5 -35.5s-104 -58.5 -145 -104.5s-73.167 -103.333 -96.5 -172s-35 -148 -35 -238s11.833 -169.167 35.5 -237.5
s56 -125.5 97 -171.5s89.333 -80.667 145 -104s115.834 -35 180.501 -35c64 0 123.5 11.667 178.5 35s103 58 144 104s73.167 103.167 96.5 171.5s35 147.5 35 237.5zM1376 668c0 -101.333 -14.666 -194.333 -43.999 -279s-71.333 -157.667 -126 -219
s-120.5 -109.166 -197.5 -143.499s-163.167 -51.5 -258.5 -51.5c-98.667 0 -187 17.167 -265 51.5s-144 82.166 -198 143.499s-95.333 134.333 -124 219s-43 177.667 -43 279c0 102 14.833 195.5 44.5 280.5s71.667 158.167 126 219.5s120.166 109.166 197.499 143.499
s164 51.5 260 51.5c98 0 185.833 -17.167 263.5 -51.5s143.5 -82.166 197.5 -143.499s95.333 -134.5 124 -219.5s43 -178.5 43 -280.5zM750 1530c18.667 0 37.5 2.5 56.5 7.5s36.5 13.167 52.5 24.5s29.667 25.833 41 43.5s19 39.167 23 64.5h133
c-4.66699 -42.667 -15.667 -80.167 -33 -112.5s-39.5 -59.5 -66.5 -81.5s-58.167 -38.667 -93.5 -50s-73 -17 -113 -17s-77.667 5.66699 -113 17s-66.5 28 -93.5 50s-49.167 49.167 -66.5 81.5s-28.333 69.833 -33 112.5h133c4 -25.333 11.667 -46.833 23 -64.5
s25 -32.167 41 -43.5s33.5 -19.5 52.5 -24.5s37.833 -7.5 56.5 -7.5zM403 1338z" />
    <glyph glyph-name="obreve" unicode="&#x14f;" horiz-adv-x="1092" 
d="M835 474c0 58.667 -7.16699 110.834 -21.5 156.501s-34.333 84.334 -60 116.001s-56.167 55.667 -91.5 72s-74 24.5 -116 24.5s-80.667 -8.16699 -116 -24.5s-65.833 -40.333 -91.5 -72s-45.667 -70.334 -60 -116.001s-21.5 -97.834 -21.5 -156.501
c0 -58 7.16699 -109.833 21.5 -155.5s34.5 -84.167 60.5 -115.5s56.667 -55.166 92 -71.499s74 -24.5 116 -24.5s80.5 8.16699 115.5 24.5s65.333 40.166 91 71.499s45.667 69.833 60 115.5s21.5 97.5 21.5 155.5zM997 474c0 -74.667 -10.668 -142.667 -32.001 -204
s-51.5 -113.833 -90.5 -157.5s-86.167 -77.5 -141.5 -101.5s-117.333 -36 -186 -36c-70.667 0 -133.834 12 -189.501 36s-103 57.833 -142 101.5s-68.833 96.167 -89.5 157.5s-31 129.333 -31 204c0 75.333 10.667 143.666 32 204.999s51.5 114 90.5 158s86.333 78 142 102
s117.834 36 186.501 36c70 0 133 -12 189 -36s103.333 -58 142 -102s68.334 -96.667 89.001 -158s31 -129.666 31 -204.999zM539.999 1257c49.333 0 88.5 14 117.5 42s48.167 72.333 57.5 133h131c-2.66699 -42.667 -11.167 -82 -25.5 -118s-34.333 -67.167 -60 -93.5
s-57 -47 -94 -62s-79.167 -22.5 -126.5 -22.5s-89.5 7.5 -126.5 22.5s-68.333 35.667 -94 62s-45.667 57.5 -60 93.5s-22.833 75.333 -25.5 118h131c9.33301 -60.667 28.5 -105 57.5 -133s68.167 -42 117.5 -42zM189.999 950z" />
    <glyph glyph-name="Ohungarumlaut" unicode="&#x150;" horiz-adv-x="1496" 
d="M1204 668c0 90 -11.668 169.333 -35.001 238s-55.5 126 -96.5 172s-89.333 80.833 -145 104.5s-115.5 35.5 -179.5 35.5s-123.833 -11.833 -179.5 -35.5s-104 -58.5 -145 -104.5s-73.167 -103.333 -96.5 -172s-35 -148 -35 -238s11.833 -169.167 35.5 -237.5
s56 -125.5 97 -171.5s89.333 -80.667 145 -104s115.834 -35 180.501 -35c64 0 123.5 11.667 178.5 35s103 58 144 104s73.167 103.167 96.5 171.5s35 147.5 35 237.5zM1376 668c0 -101.333 -14.666 -194.333 -43.999 -279s-71.333 -157.667 -126 -219
s-120.5 -109.166 -197.5 -143.499s-163.167 -51.5 -258.5 -51.5c-98.667 0 -187 17.167 -265 51.5s-144 82.166 -198 143.499s-95.333 134.333 -124 219s-43 177.667 -43 279c0 102 14.833 195.5 44.5 280.5s71.667 158.167 126 219.5s120.166 109.166 197.499 143.499
s164 51.5 260 51.5c98 0 185.833 -17.167 263.5 -51.5s143.5 -82.166 197.5 -143.499s95.333 -134.5 124 -219.5s43 -178.5 43 -280.5zM838 1656l-171 -247h-139l136 247h174zM1145 1656l-191 -247h-139l156 247h174zM477 1338z" />
    <glyph glyph-name="ohungarumlaut" unicode="&#x151;" horiz-adv-x="1092" 
d="M835 474c0 58.667 -7.16699 110.834 -21.5 156.501s-34.333 84.334 -60 116.001s-56.167 55.667 -91.5 72s-74 24.5 -116 24.5s-80.667 -8.16699 -116 -24.5s-65.833 -40.333 -91.5 -72s-45.667 -70.334 -60 -116.001s-21.5 -97.834 -21.5 -156.501
c0 -58 7.16699 -109.833 21.5 -155.5s34.5 -84.167 60.5 -115.5s56.667 -55.166 92 -71.499s74 -24.5 116 -24.5s80.5 8.16699 115.5 24.5s65.333 40.166 91 71.499s45.667 69.833 60 115.5s21.5 97.5 21.5 155.5zM997 474c0 -74.667 -10.668 -142.667 -32.001 -204
s-51.5 -113.833 -90.5 -157.5s-86.167 -77.5 -141.5 -101.5s-117.333 -36 -186 -36c-70.667 0 -133.834 12 -189.501 36s-103 57.833 -142 101.5s-68.833 96.167 -89.5 157.5s-31 129.333 -31 204c0 75.333 10.667 143.666 32 204.999s51.5 114 90.5 158s86.333 78 142 102
s117.834 36 186.501 36c70 0 133 -12 189 -36s103.333 -58 142 -102s68.334 -96.667 89.001 -158s31 -129.666 31 -204.999zM620.999 1473l-157 -349h-129l123 349h163zM931.999 1473l-177 -349h-130l143 349h164zM274.999 950z" />
    <glyph glyph-name="OE" unicode="&#x152;" horiz-adv-x="2163" 
d="M1367 147l686.003 0.00195312v-147h-849v205h-4c-48.667 -71.333 -110.834 -127.5 -186.501 -168.5s-165.5 -61.5 -269.5 -61.5c-96 0 -182.5 17.167 -259.5 51.5s-142.5 82.166 -196.5 143.499s-95.5 134.333 -124.5 219s-43.5 177.667 -43.5 279
c0 102 14.833 195.5 44.5 280.5s71.667 158.167 126 219.5s119.666 109.166 195.999 143.499s161.166 51.5 254.499 51.5c102.667 0 193 -20.333 271 -61s140.667 -95.667 188 -165h4v201h812v-147h-649v-432h577v-147h-577v-465zM1204 668.002
c0 90 -11.668 169.333 -35.001 238s-55.5 126 -96.5 172s-89.333 80.833 -145 104.5s-115.5 35.5 -179.5 35.5s-123.833 -11.833 -179.5 -35.5s-104 -58.5 -145 -104.5s-73.167 -103.333 -96.5 -172s-35 -148 -35 -238s11.833 -169.167 35.5 -237.5s56 -125.5 97 -171.5
s89.333 -80.667 145 -104s115.834 -35 180.501 -35c64 0 123.5 11.667 178.5 35s103 58 144 104s73.167 103.167 96.5 171.5s35 147.5 35 237.5z" />
    <glyph glyph-name="oe" unicode="&#x153;" horiz-adv-x="1759" 
d="M1347 110c51.333 0 98.166 4.16699 140.499 12.5s84.5 20.166 126.5 35.499v-129c-34 -16.667 -76 -29.834 -126 -39.501s-103.667 -14.5 -161 -14.5c-48 0 -93.167 4.16699 -135.5 12.5s-81.333 21.5 -117 39.5s-67.5 41.333 -95.5 70s-51.333 63 -70 103h-4
c-34 -69.333 -81.5 -124.166 -142.5 -164.499s-134.167 -60.5 -219.5 -60.5c-70 0 -132.667 12 -188 36s-102.166 57.833 -140.499 101.5s-67.833 96.167 -88.5 157.5s-31 129.333 -31 204c0 75.333 10.5 143.666 31.5 204.999s51 114 90 158s86 78 141 102
s116.5 36 184.5 36c88.667 0 163.667 -21 225 -63s108.666 -98.333 141.999 -169h4c36 78 85 136.167 147 174.5s131.333 57.5 208 57.5c56 0 108.333 -10 157 -30s90.167 -51.333 124.5 -94s59.5 -93.667 75.5 -153s24 -123.666 24 -192.999
c0 -20 -0.666992 -40.667 -2 -62h-652c0 -60.667 9.16699 -112.167 27.5 -154.5s43.333 -76.666 75 -102.999s68.834 -45.5 111.501 -57.5s88.667 -18 138 -18zM835 474c0 58.667 -7.16699 110.834 -21.5 156.501s-34.333 84.334 -60 116.001s-56.167 55.667 -91.5 72
s-74 24.5 -116 24.5s-80.667 -8.16699 -116 -24.5s-65.833 -40.333 -91.5 -72s-45.667 -70.334 -60 -116.001s-21.5 -97.834 -21.5 -156.501c0 -58 7.16699 -109.833 21.5 -155.5s34.5 -84.167 60.5 -115.5s56.667 -55.166 92 -71.499s74 -24.5 116 -24.5
s80.5 8.16699 115.5 24.5s65.333 40.166 91 71.499s45.667 69.833 60 115.5s21.5 97.5 21.5 155.5zM1262 842c-35.333 0 -68.166 -6.99902 -98.499 -20.999s-56.833 -33 -79.5 -57s-41 -52.167 -55 -84.5s-22.667 -66.833 -26 -103.5h480
c0 37.333 -4.83301 72.166 -14.5 104.499s-23.834 60.5 -42.501 84.5s-41.667 42.833 -69 56.5s-59 20.5 -95 20.5z" />
    <glyph glyph-name="Racute" unicode="&#x154;" horiz-adv-x="1212" 
d="M333 554v-554.001h-163v1338h347c58.667 0 108.5 -2.16699 149.5 -6.5s78.5 -11.166 112.5 -20.499c93.333 -25.333 164.666 -68.5 213.999 -129.5s74 -137.167 74 -228.5c0 -54 -8.66699 -102.333 -26 -145s-41.666 -79.667 -72.999 -111s-68.833 -57 -112.5 -77
s-92.167 -34.667 -145.5 -44v-4l437 -572h-205l-412 554h-197zM333 1191v-489.999h161c50 0 92.667 1.66699 128 5s67 9.33301 95 18c56.667 17.333 100.334 45 131.001 83s46 87.667 46 149c-0.666992 57.333 -15.334 103.5 -44.001 138.5s-68.334 60.167 -119.001 75.5
c-24 7.33301 -52.667 12.666 -86 15.999s-75.666 5 -126.999 5h-185zM778 1656l-181 -247h-139l146 247h174zM308 1338z" />
    <glyph glyph-name="racute" unicode="&#x155;" horiz-adv-x="686" 
d="M594 1473l-161 -349h-130l123 349h168zM671 824l-11.999 0.000976562c-36.667 0 -72.667 -3.33301 -108 -10s-68.5 -16.834 -99.5 -30.501s-59 -30.5 -84 -50.5s-45.833 -43.667 -62.5 -71v-662h-155v950h120l30 -151h3c15.333 24.667 34.166 47.667 56.499 69
s47.5 40 75.5 56s58.667 28.5 92 37.5s68.333 13.5 105 13.5c6.66699 0 13.5 -0.166992 20.5 -0.5s13.167 -0.833008 18.5 -1.5v-149z" />
    <glyph glyph-name="Rcommaaccent" unicode="&#x156;" horiz-adv-x="1212" 
d="M333 554v-554.001h-163v1338h347c58.667 0 108.5 -2.16699 149.5 -6.5s78.5 -11.166 112.5 -20.499c93.333 -25.333 164.666 -68.5 213.999 -129.5s74 -137.167 74 -228.5c0 -54 -8.66699 -102.333 -26 -145s-41.666 -79.667 -72.999 -111s-68.833 -57 -112.5 -77
s-92.167 -34.667 -145.5 -44v-4l437 -572h-205l-412 554h-197zM333 1191v-489.999h161c50 0 92.667 1.66699 128 5s67 9.33301 95 18c56.667 17.333 100.334 45 131.001 83s46 87.667 46 149c-0.666992 57.333 -15.334 103.5 -44.001 138.5s-68.334 60.167 -119.001 75.5
c-24 7.33301 -52.667 12.666 -86 15.999s-75.666 5 -126.999 5h-185zM608 -325c0 26 -7.83203 44.833 -23.499 56.5s-35.834 17.5 -60.501 17.5v129c10 0.666992 19.333 1 28 1c62 0 111.167 -14.167 147.5 -42.5s54.5 -69.5 54.5 -123.5
c0 -33.333 -6.33301 -66.5 -19 -99.5s-32.667 -67.5 -60 -103.5h-143c22.667 31.333 41 61 55 89s21 53.333 21 76z" />
    <glyph glyph-name="rcommaaccent" unicode="&#x157;" horiz-adv-x="686" 
d="M242 -325c0 26 -7.83203 44.833 -23.499 56.5s-35.834 17.5 -60.501 17.5v129c10 0.666992 19.333 1 28 1c62 0 111.167 -14.167 147.5 -42.5s54.5 -69.5 54.5 -123.5c0 -33.333 -6.33301 -66.5 -19 -99.5s-32.667 -67.5 -60 -103.5h-143c22.667 31.333 41 61 55 89
s21 53.333 21 76zM671.001 824l-11.999 0.000976562c-36.667 0 -72.667 -3.33301 -108 -10s-68.5 -16.834 -99.5 -30.501s-59 -30.5 -84 -50.5s-45.833 -43.667 -62.5 -71v-662h-155v950h120l30 -151h3c15.333 24.667 34.166 47.667 56.499 69s47.5 40 75.5 56
s58.667 28.5 92 37.5s68.333 13.5 105 13.5c6.66699 0 13.5 -0.166992 20.5 -0.5s13.167 -0.833008 18.5 -1.5v-149z" />
    <glyph glyph-name="Rcaron" unicode="&#x158;" horiz-adv-x="1212" 
d="M333 554v-554.001h-163v1338h347c58.667 0 108.5 -2.16699 149.5 -6.5s78.5 -11.166 112.5 -20.499c93.333 -25.333 164.666 -68.5 213.999 -129.5s74 -137.167 74 -228.5c0 -54 -8.66699 -102.333 -26 -145s-41.666 -79.667 -72.999 -111s-68.833 -57 -112.5 -77
s-92.167 -34.667 -145.5 -44v-4l437 -572h-205l-412 554h-197zM333 1191v-489.999h161c50 0 92.667 1.66699 128 5s67 9.33301 95 18c56.667 17.333 100.334 45 131.001 83s46 87.667 46 149c-0.666992 57.333 -15.334 103.5 -44.001 138.5s-68.334 60.167 -119.001 75.5
c-24 7.33301 -52.667 12.666 -86 15.999s-75.666 5 -126.999 5h-185zM485 1410l-216 247h154l138 -153h4l139 153h154l-216 -247h-157zM214 1338z" />
    <glyph glyph-name="rcaron" unicode="&#x159;" horiz-adv-x="686" 
d="M313 1124l-210 349h140l147 -246h4l146 246h140l-210 -349h-157zM671 824l-11.999 0.000976562c-36.667 0 -72.667 -3.33301 -108 -10s-68.5 -16.834 -99.5 -30.501s-59 -30.5 -84 -50.5s-45.833 -43.667 -62.5 -71v-662h-155v950h120l30 -151h3
c15.333 24.667 34.166 47.667 56.499 69s47.5 40 75.5 56s58.667 28.5 92 37.5s68.333 13.5 105 13.5c6.66699 0 13.5 -0.166992 20.5 -0.5s13.167 -0.833008 18.5 -1.5v-149z" />
    <glyph glyph-name="Sacute" unicode="&#x15a;" horiz-adv-x="1130" 
d="M294 984c0 -39.333 8 -71.8311 24 -97.498s37.5 -46.834 64.5 -63.501s58.333 -30.334 94 -41.001s72.834 -20.667 111.501 -30c52 -12.667 103.167 -26.667 153.5 -42s95.166 -36.5 134.499 -63.5s71.166 -62.167 95.499 -105.5s36.5 -99 36.5 -167
c0 -69.333 -12.833 -129.166 -38.5 -179.499s-61.334 -91.666 -107.001 -123.999s-100.167 -56.333 -163.5 -72s-132.666 -23.5 -207.999 -23.5c-34.667 0 -70.167 2.16699 -106.5 6.5s-71 10.166 -104 17.499s-62.833 15.666 -89.5 24.999s-47.667 18.666 -63 27.999v149
c24 -12 51 -23 81 -33s61 -18.5 93 -25.5s64.333 -12.5 97 -16.5s63.334 -6 92.001 -6c46.667 0 91.167 4 133.5 12s79.5 21.333 111.5 40s57.333 44.167 76 76.5s28 72.833 28 121.5c0 40 -8.16699 73 -24.5 99s-38.166 47.5 -65.499 64.5s-58.833 30.833 -94.5 41.5
s-73.167 20.667 -112.5 30c-52 12 -102.833 25.5 -152.5 40.5s-94 35.833 -133 62.5s-70.333 61 -94 103s-35.5 95.667 -35.5 161c0 68 12 126.5 36 175.5s56.667 89.5 98 121.5s89.666 55.667 144.999 71s114.333 23 177 23c71.333 0 137.833 -6.83301 199.5 -20.5
s118.167 -31.5 169.5 -53.5v-151c-55.333 23.333 -112.5 42.333 -171.5 57s-122.167 22.334 -189.5 23.001c-50.667 0 -94.667 -5.5 -132 -16.5s-68.333 -26.667 -93 -47s-43 -45 -55 -74s-18 -61.167 -18 -96.5zM839 1656l-181 -247h-139l146 247h174zM369 1338z" />
    <glyph glyph-name="sacute" unicode="&#x15b;" horiz-adv-x="828" 
d="M639 1473l-161 -349h-130l123 349h168zM250 697c0 -26 5.66602 -47.333 16.999 -64s26.5 -30.167 45.5 -40.5s41 -18.833 66 -25.5s50.833 -12.667 77.5 -18c36.667 -8 71.334 -16.833 104.001 -26.5s62.834 -24.167 90.501 -43.5s50 -45.5 67 -78.5
s25.5 -75.833 25.5 -128.5c0 -48 -9.33301 -90.5 -28 -127.5s-45 -68 -79 -93s-74.667 -44 -122 -57s-99.333 -19.5 -156 -19.5c-34.667 0 -66.167 1.83301 -94.5 5.5s-53.333 8.33398 -75 14.001s-40.167 11.5 -55.5 17.5s-28 11.667 -38 17v130
c40 -16 79.667 -28.667 119 -38s82.666 -14 129.999 -14c37.333 0 71 3.33301 101 10s55.833 16.5 77.5 29.5s38.334 29.333 50.001 49s17.5 42.5 17.5 68.5c0 26.667 -5.33301 48.667 -16 66s-25 31.666 -43 42.999s-38.833 20.666 -62.5 27.999s-48.5 14 -74.5 20
c-34 7.33301 -68.5 16 -103.5 26s-66.833 24 -95.5 42s-51.834 42.5 -69.501 73.5s-26.5 70.833 -26.5 119.5c0 50 9 93.333 27 130s42.333 67 73 91s66.334 42 107.001 54s83.667 18 129 18c52.667 0 101.5 -5 146.5 -15s85.833 -22.667 122.5 -38v-132
c-40 15.333 -80.5 27.833 -121.5 37.5s-83.167 14.834 -126.5 15.501c-36.667 0 -68 -3.66699 -94 -11s-47.333 -17.5 -64 -30.5s-28.834 -28.333 -36.501 -46s-11.5 -37.167 -11.5 -58.5z" />
    <glyph glyph-name="Scircumflex" unicode="&#x15c;" horiz-adv-x="1130" 
d="M294 984c0 -39.333 8 -71.8311 24 -97.498s37.5 -46.834 64.5 -63.501s58.333 -30.334 94 -41.001s72.834 -20.667 111.501 -30c52 -12.667 103.167 -26.667 153.5 -42s95.166 -36.5 134.499 -63.5s71.166 -62.167 95.499 -105.5s36.5 -99 36.5 -167
c0 -69.333 -12.833 -129.166 -38.5 -179.499s-61.334 -91.666 -107.001 -123.999s-100.167 -56.333 -163.5 -72s-132.666 -23.5 -207.999 -23.5c-34.667 0 -70.167 2.16699 -106.5 6.5s-71 10.166 -104 17.499s-62.833 15.666 -89.5 24.999s-47.667 18.666 -63 27.999v149
c24 -12 51 -23 81 -33s61 -18.5 93 -25.5s64.333 -12.5 97 -16.5s63.334 -6 92.001 -6c46.667 0 91.167 4 133.5 12s79.5 21.333 111.5 40s57.333 44.167 76 76.5s28 72.833 28 121.5c0 40 -8.16699 73 -24.5 99s-38.166 47.5 -65.499 64.5s-58.833 30.833 -94.5 41.5
s-73.167 20.667 -112.5 30c-52 12 -102.833 25.5 -152.5 40.5s-94 35.833 -133 62.5s-70.333 61 -94 103s-35.5 95.667 -35.5 161c0 68 12 126.5 36 175.5s56.667 89.5 98 121.5s89.666 55.667 144.999 71s114.333 23 177 23c71.333 0 137.833 -6.83301 199.5 -20.5
s118.167 -31.5 169.5 -53.5v-151c-55.333 23.333 -112.5 42.333 -171.5 57s-122.167 22.334 -189.5 23.001c-50.667 0 -94.667 -5.5 -132 -16.5s-68.333 -26.667 -93 -47s-43 -45 -55 -74s-18 -61.167 -18 -96.5zM653 1656l216 -247h-158l-137 151h-4l-136 -151h-158
l216 247h161zM223 1338z" />
    <glyph glyph-name="scircumflex" unicode="&#x15d;" horiz-adv-x="828" 
d="M498 1473l210 -349h-140l-147 246h-4l-146 -246h-140l210 349h157zM250 697c0 -26 5.66602 -47.333 16.999 -64s26.5 -30.167 45.5 -40.5s41 -18.833 66 -25.5s50.833 -12.667 77.5 -18c36.667 -8 71.334 -16.833 104.001 -26.5s62.834 -24.167 90.501 -43.5
s50 -45.5 67 -78.5s25.5 -75.833 25.5 -128.5c0 -48 -9.33301 -90.5 -28 -127.5s-45 -68 -79 -93s-74.667 -44 -122 -57s-99.333 -19.5 -156 -19.5c-34.667 0 -66.167 1.83301 -94.5 5.5s-53.333 8.33398 -75 14.001s-40.167 11.5 -55.5 17.5s-28 11.667 -38 17v130
c40 -16 79.667 -28.667 119 -38s82.666 -14 129.999 -14c37.333 0 71 3.33301 101 10s55.833 16.5 77.5 29.5s38.334 29.333 50.001 49s17.5 42.5 17.5 68.5c0 26.667 -5.33301 48.667 -16 66s-25 31.666 -43 42.999s-38.833 20.666 -62.5 27.999s-48.5 14 -74.5 20
c-34 7.33301 -68.5 16 -103.5 26s-66.833 24 -95.5 42s-51.834 42.5 -69.501 73.5s-26.5 70.833 -26.5 119.5c0 50 9 93.333 27 130s42.333 67 73 91s66.334 42 107.001 54s83.667 18 129 18c52.667 0 101.5 -5 146.5 -15s85.833 -22.667 122.5 -38v-132
c-40 15.333 -80.5 27.833 -121.5 37.5s-83.167 14.834 -126.5 15.501c-36.667 0 -68 -3.66699 -94 -11s-47.333 -17.5 -64 -30.5s-28.834 -28.333 -36.501 -46s-11.5 -37.167 -11.5 -58.5z" />
    <glyph glyph-name="Scedilla" unicode="&#x15e;" horiz-adv-x="1130" 
d="M440 -23c-31.333 2 -62.667 5.33984 -94 10.0068s-61 10.5 -89 17.5s-53.167 14.5 -75.5 22.5s-40.166 16.333 -53.499 25v149c24 -12 51 -23 81 -33s61 -18.5 93 -25.5s64.333 -12.5 97 -16.5s63.334 -6 92.001 -6c46.667 0 91.167 3.83301 133.5 11.5s79.5 21 111.5 40
s57.333 44.667 76 77s28 72.833 28 121.5c0 40 -8.16699 73 -24.5 99s-38.166 47.5 -65.499 64.5s-58.833 30.833 -94.5 41.5s-73.167 20.667 -112.5 30c-52 12 -102.833 25.667 -152.5 41s-94 36.166 -133 62.499s-70.333 60.5 -94 102.5s-35.5 95.667 -35.5 161
c0 68 12 126.5 36 175.5s56.667 89.5 98 121.5s89.666 55.667 144.999 71s114.333 23 177 23c72.667 0 139.5 -6.83301 200.5 -20.5s117.167 -31.5 168.5 -53.5v-151c-55.333 23.333 -112.5 42.5 -171.5 57.5s-122.167 22.5 -189.5 22.5c-50.667 0 -94.667 -5.5 -132 -16.5
s-68.333 -26.667 -93 -47s-43 -45 -55 -74s-18 -61.167 -18 -96.5c0 -39.333 8 -71.833 24 -97.5s37.5 -46.834 64.5 -63.501s58.333 -30.334 94 -41.001s72.834 -20.667 111.501 -30c52 -12.667 103.167 -26.667 153.5 -42s95.166 -36.5 134.499 -63.5
s71.166 -62.167 95.499 -105.5s36.5 -99 36.5 -167c0 -64 -10.833 -119.667 -32.5 -167s-52.167 -87.333 -91.5 -120s-86.333 -57.834 -141 -75.501s-115 -28.834 -181 -33.501l-28 -104c26.667 -4 51.167 -10.167 73.5 -18.5s41.5 -19.166 57.5 -32.499
s28.333 -29.5 37 -48.5s13 -40.833 13 -65.5c0 -34.667 -7.66699 -64.5 -23 -89.5s-35.833 -45.667 -61.5 -62s-55.167 -28.333 -88.5 -36s-68 -11.5 -104 -11.5c-28.667 0 -54.5 1.83301 -77.5 5.5s-41.5 8.16699 -55.5 13.5v113c8 -2.66699 17.167 -5 27.5 -7
s21 -3.83301 32 -5.5s21.667 -2.83398 32 -3.50098s19.5 -1 27.5 -1c19.333 0 38.166 1.16699 56.499 3.5s34.833 6.66602 49.5 12.999s26.5 14.666 35.5 24.999s13.5 23.5 13.5 39.5c0 14 -4.66699 25.833 -14 35.5s-22.5 17.5 -39.5 23.5s-37.667 10.5 -62 13.5
s-51.5 5.16699 -81.5 6.5z" />
    </font>
</defs>
</svg>
